<?xml version="1.0" encoding="utf-8"?><svg xmlns="http://www.w3.org/2000/svg" xmlns:xlink="http://www.w3.org/1999/xlink"><symbol viewBox="0 0 45 41" id="adv-icon1" xmlns="http://www.w3.org/2000/svg"><path d="M20.674 37.011c-7.297-.908-12.8-7.146-12.8-14.511 0-2.36.575-4.698 1.662-6.774a5.634 5.634 0 001.352-5.317 5.634 5.634 0 00-3.969-3.968.879.879 0 00-.85.228 5.634 5.634 0 00-1.452 5.42 5.634 5.634 0 002.98 3.6 16.325 16.325 0 00-.829 2.238 5.556 5.556 0 00-.535-.622 5.633 5.633 0 00-5.421-1.453.879.879 0 00-.623.622 5.634 5.634 0 001.453 5.421 5.63 5.63 0 004.507 1.617c.057.93.192 1.843.4 2.728-.25-.108-.51-.2-.776-.271A5.633 5.633 0 00.352 27.42a.879.879 0 00-.228.85 5.633 5.633 0 003.968 3.969c.477.127.962.19 1.444.19a5.649 5.649 0 003.224-1.015 16.494 16.494 0 001.807 2.304 5.636 5.636 0 00-4.56 2.798.879.879 0 000 .88 5.634 5.634 0 004.86 2.806 5.633 5.633 0 004.85-2.786c1.471.67 3.063 1.13 4.74 1.339a.879.879 0 00.217-1.745zm-16.127-6.47a3.87 3.87 0 01-2.553-2.224 3.87 3.87 0 013.324-.65A3.87 3.87 0 017.87 29.89a3.87 3.87 0 01-3.324.65zm1.768-18.906a3.87 3.87 0 01.65-3.324 3.87 3.87 0 012.225 2.553 3.87 3.87 0 01-.65 3.324 3.871 3.871 0 01-2.225-2.553zm-3.43 9.017a3.87 3.87 0 01-1.099-3.203 3.871 3.871 0 013.204 1.098 3.87 3.87 0 011.098 3.204 3.872 3.872 0 01-3.203-1.099zm7.983 17.793a3.87 3.87 0 01-3.042-1.488 3.871 3.871 0 013.042-1.489c1.193 0 2.316.56 3.042 1.489a3.87 3.87 0 01-3.042 1.488zm28.357-12.477a5.58 5.58 0 00-.776.272c.208-.886.342-1.797.4-2.728a5.63 5.63 0 004.507-1.617 5.633 5.633 0 001.452-5.42.879.879 0 00-.622-.623 5.635 5.635 0 00-5.421 1.452 5.565 5.565 0 00-.536.623 16.321 16.321 0 00-.828-2.239 5.633 5.633 0 002.98-3.598 5.634 5.634 0 00-1.453-5.421.878.878 0 00-.85-.228 5.633 5.633 0 00-3.969 3.968 5.634 5.634 0 001.353 5.317 14.652 14.652 0 011.66 6.774c0 7.365-5.502 13.603-12.798 14.511a.88.88 0 00.217 1.745 16.263 16.263 0 004.74-1.34 5.633 5.633 0 004.849 2.787 5.633 5.633 0 004.86-2.806.879.879 0 000-.88 5.636 5.636 0 00-4.56-2.798 16.478 16.478 0 001.807-2.304 5.648 5.648 0 003.225 1.014c.482 0 .967-.062 1.443-.19a5.633 5.633 0 003.968-3.968.88.88 0 00-.227-.85 5.633 5.633 0 00-5.421-1.453zm.783-7.42a3.87 3.87 0 013.203-1.1 3.87 3.87 0 01-1.098 3.204 3.871 3.871 0 01-3.204 1.099 3.87 3.87 0 011.099-3.204zm-4.2-7.684a3.871 3.871 0 012.224-2.553c.71.941.96 2.171.65 3.324a3.871 3.871 0 01-2.224 2.553 3.871 3.871 0 01-.65-3.324zm1.363 26.093a3.871 3.871 0 01-3.041 1.488 3.87 3.87 0 01-3.042-1.488 3.871 3.871 0 013.042-1.489 3.87 3.87 0 013.041 1.489zm3.279-6.415a3.87 3.87 0 01-3.323-.65 3.87 3.87 0 012.552-2.226 3.87 3.87 0 013.324.65 3.87 3.87 0 01-2.553 2.226z"/><path d="M28.149 30.94a1.728 1.728 0 00.636-1.966l-1.38-4.217 3.604-2.607c.628-.454.88-1.224.64-1.962a1.728 1.728 0 00-1.669-1.214h-4.45l-1.362-4.215a1.728 1.728 0 00-1.67-1.215c-.775 0-1.43.477-1.669 1.215l-1.362 4.215h-4.45a1.73 1.73 0 00-1.67 1.214 1.728 1.728 0 00.642 1.962l3.604 2.607-1.38 4.217c-.242.738.008 1.51.635 1.965a1.75 1.75 0 001.032.342c.36 0 .72-.115 1.034-.344l3.585-2.616 3.584 2.616a1.728 1.728 0 002.066.002zm-5.65-4.586a.877.877 0 00-.518.169l-4.095 2.989 1.577-4.818a.879.879 0 00-.32-.986l-4.117-2.976h5.08a.88.88 0 00.836-.609l1.557-4.814 1.556 4.814a.88.88 0 00.836.609h5.08l-4.116 2.976a.88.88 0 00-.32.986l1.576 4.818-4.094-2.989a.877.877 0 00-.518-.169zm0-24.596a.885.885 0 00.621-.258.885.885 0 00.258-.621.885.885 0 00-.258-.621.885.885 0 00-.621-.258.885.885 0 00-.622.258.886.886 0 00-.257.62c0 .232.094.458.257.622.164.164.39.258.622.258zm-6.887 8.053a.88.88 0 001.593-.743l-2.294-4.92a.88.88 0 00-1.593.743l2.294 4.92zm6.885.252h.002a.879.879 0 00.879-.877l.005-4.345a.879.879 0 10-1.758-.002l-.005 4.344c0 .486.392.88.877.88zm5.72.173a.876.876 0 001.169-.425l2.294-4.92a.88.88 0 00-1.594-.743l-2.294 4.92a.879.879 0 00.425 1.168z"/></symbol><symbol viewBox="0 0 28 8" id="arrow" xmlns="http://www.w3.org/2000/svg"><path d="M27.354 4.354a.5.5 0 000-.708L24.172.464a.5.5 0 10-.707.708L26.293 4l-2.828 2.828a.5.5 0 10.707.708l3.182-3.182zM0 4.5h27v-1H0v1z"/></symbol><symbol viewBox="0 0 34 34" id="close" xmlns="http://www.w3.org/2000/svg"><path d="M34 2.003L31.997 0 17 14.997 2.003 0 0 2.003 14.997 17 0 31.997 2.003 34 17 19.003 31.997 34 34 31.997 19.003 17 34 2.003z"/></symbol><symbol viewBox="0 0 26 26" id="facebook" xmlns="http://www.w3.org/2000/svg"><path d="M23.666.2H2.334A2.14 2.14 0 00.2 2.333v21.334A2.14 2.14 0 002.333 25.8h21.333a2.14 2.14 0 002.134-2.133V2.333A2.14 2.14 0 0023.666.2zm0 23.467h-8.533v-8.534h5.334V13h-5.334v-2.133a3.2 3.2 0 013.2-3.2h2.134V5.533h-2.134A5.334 5.334 0 0013 10.866V13h-2.133v2.133H13v8.534H2.333V2.333h21.333v21.334z"/></symbol><symbol viewBox="0 0 26 26" id="instagram" xmlns="http://www.w3.org/2000/svg"><path d="M19.4.2H6.6C3.08.2.2 3.08.2 6.6v12.8c0 3.52 2.88 6.4 6.4 6.4h12.8c3.52 0 6.4-2.88 6.4-6.4V6.6c0-3.52-2.88-6.4-6.4-6.4zm4.267 19.2a4.271 4.271 0 01-4.267 4.267H6.6A4.272 4.272 0 012.333 19.4V6.6A4.272 4.272 0 016.6 2.333h12.8A4.27 4.27 0 0123.667 6.6v12.8z"/><path d="M19.933 7.666a1.6 1.6 0 100-3.2 1.6 1.6 0 000 3.2zM13 6.6a6.4 6.4 0 10.001 12.8A6.4 6.4 0 0013 6.6zm0 10.667a4.267 4.267 0 110-8.534 4.267 4.267 0 010 8.534z"/></symbol><symbol viewBox="0 0 155 43" id="logo" xmlns="http://www.w3.org/2000/svg"><path d="M4.596 17.32l-.086.45-.458.022a3.27 3.27 0 00-3.118 3.272 3.27 3.27 0 003.118 3.273l.458.022.086.45c1.78 9.311 9.962 16.07 19.456 16.07h3.716V1.25h-3.716c-9.493 0-17.676 6.759-19.456 16.07z"/><path d="M18.806 22.522c.531-11.252 5.892-20.14 11.973-19.853l-4.294-.203C16.551 1.998 7.943 8.72 5.7 18.046a3.859 3.859 0 00-.364 7.699c1.355 9.496 8.726 14.961 18.66 15.43l4.295.204c-6.082-.287-10.017-7.603-9.485-18.856z"/><path d="M29.163 41.277a.68.68 0 01-.68.68h-4.201c-9.905 0-18.463-6.95-20.513-16.589A4.433 4.433 0 010 20.978a4.434 4.434 0 013.769-4.39C5.819 6.95 14.377 0 24.282 0h4.564c.175 0 .317.142.317.317v40.96zM24.282 1.164c-9.493 0-17.675 6.759-19.456 16.07l-.086.45-.458.022a3.27 3.27 0 00-3.118 3.272 3.27 3.27 0 003.118 3.273l.458.022.086.45c1.78 9.311 9.963 16.07 19.456 16.07h3.717V1.163h-3.717z"/><path d="M39.605 20.978c0 11.265-4.936 20.396-11.024 20.396-6.088 0-11.024-9.131-11.024-20.396C17.557 9.714 22.493.582 28.581.582c6.088 0 11.024 9.132 11.024 20.396z"/><path d="M28.58 41.957c-3.167 0-6.118-2.23-8.306-6.28-2.127-3.935-3.299-9.156-3.299-14.699 0-5.543 1.172-10.763 3.299-14.699C22.462 2.23 25.413 0 28.58 0s6.118 2.23 8.307 6.279c2.127 3.936 3.299 9.156 3.299 14.7 0 5.542-1.172 10.762-3.3 14.699-2.188 4.049-5.138 6.279-8.306 6.279zm0-40.793c-2.72 0-5.306 2.014-7.282 5.669-2.037 3.769-3.159 8.793-3.159 14.145 0 5.353 1.122 10.377 3.159 14.146 1.976 3.655 4.562 5.668 7.283 5.668 2.72 0 5.307-2.013 7.283-5.668 2.037-3.77 3.159-8.793 3.159-14.146 0-5.352-1.122-10.376-3.16-14.145-1.975-3.656-4.561-5.669-7.282-5.669z"/><path d="M34.86 22.361c0 8.018-3.079 14.517-6.876 14.517-3.798 0-6.877-6.5-6.877-14.517s3.079-14.516 6.877-14.516c3.797 0 6.876 6.5 6.876 14.516z"/><path d="M29.163 4.892h-1.164v31.656h1.164V4.892z"/><path d="M35.018 20.209H21.049v1.164h13.969V20.21z"/><path d="M34.935 28.898l-12.11-17.36-.955.666 12.11 17.36.955-.666z"/><path d="M34.956 11.142l-1-.598L22.15 30.29l.999.598 11.808-19.745z"/><path d="M28.58 37.273c-4.549 0-8.113-7.24-8.113-16.482 0-9.242 3.564-16.481 8.114-16.481 4.55 0 8.113 7.24 8.113 16.481 0 9.242-3.563 16.482-8.113 16.482zm0-31.8c-3.766 0-6.949 7.015-6.949 15.318s3.183 15.317 6.95 15.317c3.767 0 6.95-7.014 6.95-15.317S32.347 5.474 28.58 5.474z"/><path d="M50.627 5.18l.303-.636-1.873-.862a6.08 6.08 0 00-.752-.432C42.82.606 34.41 6.688 29.519 16.835c-4.89 10.146-4.41 20.516 1.074 23.16.166.08.334.152.504.215l2.316 1.066.32-.672c5.202-.237 11.617-5.836 15.646-14.194 4.075-8.456 4.42-17.065 1.248-21.23z"/><path d="M33.289 18.406C37.639 9.38 44.776 3.57 50.159 4.26l-1.05-.484a6.088 6.088 0 00-.752-.432C42.873.7 34.462 6.781 29.571 16.928c-4.89 10.147-4.41 20.517 1.075 23.16.165.08.333.152.503.215l2.316 1.067.12-.253c-4.74-3.222-4.945-13.067-.296-22.71z"/><path d="M33.69 42.045l-2.818-1.298a6.702 6.702 0 01-.532-.228c-2.854-1.376-4.543-4.666-4.756-9.264-.207-4.47 1.004-9.68 3.41-14.674C33.12 8.025 39.91 2.05 45.508 2.05c1.093 0 2.119.228 3.05.676.268.13.531.28.784.447l2.368 1.09-.408.855c1.512 2.172 2.202 5.308 2 9.1-.212 3.968-1.387 8.272-3.399 12.446-1.987 4.123-4.587 7.692-7.518 10.322-2.799 2.511-5.65 3.95-8.273 4.177l-.422.883zM45.508 3.213c-5.168 0-11.528 5.706-15.465 13.874-2.324 4.823-3.495 9.835-3.296 14.114.192 4.15 1.648 7.088 4.099 8.27.146.07.3.135.455.194l.04.016 1.793.826.224-.469.348-.016c5.097-.233 11.326-5.935 15.148-13.865 3.884-8.057 4.422-16.538 1.31-20.625l-.215-.283.202-.423-1.38-.636-.039-.026a5.52 5.52 0 00-.68-.39 5.81 5.81 0 00-2.544-.56z"/><path d="M53.096 27.888c-4.89 10.147-13.301 16.23-18.785 13.585-5.484-2.644-5.965-13.014-1.074-23.16 4.89-10.147 13.301-16.23 18.785-13.585 5.485 2.644 5.965 13.013 1.075 23.16z"/><path d="M53.096 28.356c-4.89 10.147-13.301 16.229-18.785 13.585-5.484-2.644-5.965-13.014-1.074-23.16C38.127 8.632 46.538 2.55 52.022 5.194c5.485 2.645 5.965 13.014 1.075 23.16z"/><path d="M51.356 26.906l-1.049-.506c1.714-3.556 2.577-7.25 2.431-10.4-.14-3.023-1.19-5.156-2.957-6.008l.506-1.048c2.17 1.046 3.453 3.532 3.614 7.002.155 3.34-.75 7.233-2.545 10.96zM36.64 37.257c-2.17-1.046-3.453-3.533-3.614-7.002-.155-3.34.749-7.233 2.545-10.96l1.049.506c-1.714 3.556-2.578 7.25-2.431 10.4.14 3.022 1.19 5.155 2.956 6.007l-.505 1.049z"/><path d="M36.962 42.819a6.955 6.955 0 01-3.05-.677c-2.853-1.375-4.542-4.665-4.756-9.263-.207-4.47 1.004-9.68 3.41-14.674C36.692 9.65 43.483 3.673 49.08 3.673a6.96 6.96 0 013.05.676c2.853 1.376 4.543 4.666 4.756 9.264.207 4.47-1.004 9.68-3.41 14.674-4.125 8.556-10.915 14.532-16.514 14.532zM49.08 4.837c-5.168 0-11.527 5.705-15.465 13.874-2.324 4.822-3.495 9.834-3.296 14.114.192 4.151 1.648 7.088 4.099 8.27.771.371 1.627.56 2.544.56 5.168 0 11.527-5.705 15.464-13.874 2.325-4.822 3.495-9.834 3.297-14.114-.193-4.15-1.648-7.088-4.1-8.27a5.801 5.801 0 00-2.543-.56z"/><path d="M43.456 5.659l-3.562-1.893-.58 1.09 3.563 1.893.579-1.09zM41.675 7.3l-3.562-1.893-.58 1.09 3.563 1.893.58-1.09zm-1.779 1.476l-3.562-1.893-.58 1.09 3.563 1.893.579-1.09zm-1.428 1.515l-3.562-1.893-.58 1.09 3.563 1.894.579-1.09zm-1.319 1.893l-3.563-1.893-.579 1.09 3.563 1.893.579-1.09zM17.913 35.722H16.75v1.273h1.163v-1.273zm-2.801-1.273h-1.164v1.273h1.164V34.45zm1.746-1.71h-1.164v1.274h1.164v-1.274z"/><path d="M87.535 23.754H69.754V9.147h2.88v11.897h4.569V9.147h2.88v11.897h4.568V9.147h2.88v14.607h.004zm14.589 0l-3.005-4.693c-.335-.516-.626-.863-.878-1.044-.249-.181-.618-.272-1.105-.272h-1.334v6.013h-2.88V9.147h2.88v5.824h1.251c.472 0 .837-.09 1.097-.271.257-.181.555-.528.886-1.045l2.88-4.508h3.257l-3.445 5.387c-.683.93-1.244 1.515-1.693 1.753.528.237 1.12.87 1.776 1.9l3.57 5.571h-3.257v-.004zm7.953-12.571C111.521 9.728 113.278 9 115.336 9c2.058 0 3.815.728 5.27 2.183 1.455 1.455 2.183 3.211 2.183 5.27 0 2.062-.728 3.814-2.183 5.27-1.455 1.454-3.212 2.182-5.27 2.182-2.058 0-3.811-.728-5.259-2.183-1.447-1.455-2.171-3.211-2.171-5.27 0-2.058.724-3.814 2.171-5.27zm8.512 1.866c-.874-.89-1.96-1.335-3.257-1.335-1.293 0-2.375.445-3.245 1.335-.871.893-1.305 2.024-1.305 3.4 0 1.39.434 2.53 1.305 3.411.87.886 1.952 1.327 3.245 1.327 1.308 0 2.398-.44 3.269-1.327.867-.882 1.304-2.02 1.304-3.411 0-1.376-.437-2.507-1.316-3.4zm13.088 1.379l-3.63 9.33h-3.193l6.013-14.611h1.689l5.926 14.611h-3.193l-3.612-9.33zm13.88 6.657l-1.044 2.673h-3.193l6.013-14.611h1.688l5.926 14.607h-3.193l-1.044-2.673h-5.153v.004zm2.586-6.72l-1.587 3.984h3.151l-1.564-3.985z" fill-opacity=".87"/><path d="M72.78 29.772l-2.736 6.736H69L72.525 28h.535l3.513 8.508H75.53l-2.748-6.736zm10.94 6.736h-.874v-4.595l-4.049 4.595h-.535v-6.077h.886v4.596l4.048-4.596h.524v6.077zm8.508 0h-.885v-4.595l-2.236 2.54-2.235-2.54v4.595h-.886v-6.077h.535l2.59 2.94 2.59-2.94h.535v6.077h-.008zm4.999-6.163c.867 0 1.606.305 2.213.916.607.61.912 1.35.912 2.205 0 .86-.305 1.59-.912 2.201a3.016 3.016 0 01-2.213.913 2.993 2.993 0 01-2.205-.913 3.01 3.01 0 01-.905-2.201c0-.867.305-1.606.912-2.213a3 3 0 012.198-.908zm-.015.852a2.15 2.15 0 00-1.568.652c-.438.433-.656.972-.656 1.624 0 .649.215 1.188.652 1.618.433.43.957.644 1.576.644a2.18 2.18 0 001.58-.644c.436-.43.655-.97.655-1.618 0-.648-.219-1.187-.656-1.624a2.16 2.16 0 00-1.583-.652zm10.528 5.311h-.886v-2.639h-3.732v2.639h-.885v-6.077h.885v2.59h3.732v-2.59h.886v6.077zm11.633 0h-.886v-2.639h-3.731v2.639h-.886v-6.077h.886v2.59h3.731v-2.59h.886v6.077zm8.071 0h-.633l-.038-1.372a2.71 2.71 0 01-1.01 1.052 2.77 2.77 0 01-1.459.395c-.86 0-1.58-.301-2.164-.904-.584-.604-.874-1.339-.874-2.206s.29-1.605.874-2.212c.584-.607 1.304-.913 2.164-.913.528 0 1.01.132 1.451.396.441.264.781.615 1.014 1.052l.038-1.36h.633v6.072h.004zm-4.648-1.421c.434.43.958.644 1.576.644.614 0 1.142-.214 1.579-.644.438-.43.656-.969.656-1.617 0-.649-.218-1.188-.656-1.625a2.166 2.166 0 00-1.579-.652 2.15 2.15 0 00-1.568.652c-.438.434-.656.973-.656 1.625-.004.648.215 1.187.648 1.617zm16.413 1.421h-.875v-2.394c-.414.698-1.104 1.044-2.077 1.044-1.832 0-2.748-1.017-2.748-3.05v-1.677h.886v1.629c0 .769.147 1.338.445 1.707.294.37.807.555 1.538.555.697 0 1.199-.189 1.5-.573.306-.381.456-.871.456-1.47V30.43h.875v6.077zm8.071 0h-.633l-.038-1.372a2.71 2.71 0 01-1.01 1.052 2.772 2.772 0 01-1.459.395c-.86 0-1.58-.301-2.164-.904-.584-.604-.875-1.339-.875-2.206s.291-1.605.875-2.212c.584-.607 1.304-.913 2.164-.913.528 0 1.01.132 1.451.396.441.264.78.615 1.014 1.052l.038-1.36h.633v6.072h.004zm-4.648-1.421c.433.43.957.644 1.576.644.618 0 1.142-.214 1.579-.644.437-.43.656-.969.656-1.617 0-.649-.219-1.188-.656-1.625a2.166 2.166 0 00-1.579-.652c-.607 0-1.131.218-1.569.652-.437.434-.655.973-.655 1.625 0 .648.214 1.187.648 1.617zM155 36.508h-.875v-4.595l-4.048 4.595h-.535v-6.077h.885v4.596l4.049-4.596H155v6.077zm-1.5-7.238c-.336.306-.747.457-1.233.457-.486 0-.897-.151-1.233-.457a1.462 1.462 0 01-.505-1.123h.645c0 .268.105.49.316.667.212.177.472.268.777.268.309 0 .569-.09.784-.268.215-.177.32-.4.32-.667h.634c0 .445-.17.818-.505 1.123z" fill-opacity=".67"/></symbol><symbol viewBox="0 0 19 17" id="telegram" xmlns="http://www.w3.org/2000/svg"><path d="M18.707.887c-.232-.283-.58-.44-.98-.44a1.92 1.92 0 00-.683.136L.962 6.723c-.853.325-.968.814-.96 1.077.007.262.15.743 1.02 1.02l.015.005 3.337.955 1.804 5.159c.246.703.798 1.14 1.44 1.14.406 0 .805-.17 1.154-.491l2.064-1.9 2.993 2.41.029.024a.559.559 0 01.008.006c.333.258.696.394 1.05.394.694 0 1.246-.513 1.406-1.306l2.635-13.013c.106-.522.018-.99-.25-1.316zM5.489 9.6l6.436-3.289-4.008 4.259a.556.556 0 00-.135.248l-.773 3.13L5.49 9.6zm2.528 5.17a1.066 1.066 0 01-.08.067l.717-2.904 1.304 1.05-1.941 1.787zm9.848-12.787L15.23 14.995c-.025.124-.106.414-.315.414-.102 0-.232-.056-.364-.158l-3.392-2.73-.001-.002-2.018-1.625 5.795-6.158a.557.557 0 00-.658-.877l-9.532 4.87-3.382-.968 16.079-6.138a.816.816 0 01.286-.062c.034 0 .094.004.117.031.03.036.067.16.02.39z"/></symbol><symbol viewBox="0 0 31 21" id="youtube" xmlns="http://www.w3.org/2000/svg"><path d="M29.887 3.449C29.732 2.152 28.51.909 27.232.743a95.143 95.143 0 00-23.463 0c-1.28.166-2.5 1.41-2.656 2.706a60.462 60.462 0 000 14.103c.155 1.296 1.377 2.54 2.656 2.706 7.79.967 15.67.967 23.463 0 1.278-.165 2.5-1.41 2.655-2.706.55-4.749.55-9.354 0-14.103zm-2.45 13.82c-.027.171-.345.503-.527.543-3.76.466-7.604.705-11.41.705s-7.65-.239-11.428-.707c-.166-.038-.482-.37-.51-.553a57.958 57.958 0 01.002-13.524c.026-.173.344-.505.528-.545a92.941 92.941 0 0111.41-.704c3.804 0 7.649.238 11.427.707.162.037.48.369.51.553a58.04 58.04 0 01-.002 13.524z"/><path d="M13.033 5.567v9.867l7.4-4.933-7.4-4.934z"/></symbol></svg>