<?xml version="1.0" encoding="utf-8"?><svg xmlns="http://www.w3.org/2000/svg" xmlns:xlink="http://www.w3.org/1999/xlink"><symbol viewBox="0 0 45 41" id="adv-icon1" xmlns="http://www.w3.org/2000/svg"><path d="M20.674 37.011c-7.297-.908-12.8-7.146-12.8-14.511 0-2.36.575-4.698 1.662-6.774a5.634 5.634 0 001.352-5.317 5.634 5.634 0 00-3.969-3.968.879.879 0 00-.85.228 5.634 5.634 0 00-1.452 5.42 5.634 5.634 0 002.98 3.6 16.325 16.325 0 00-.829 2.238 5.556 5.556 0 00-.535-.622 5.633 5.633 0 00-5.421-1.453.879.879 0 00-.623.622 5.634 5.634 0 001.453 5.421 5.63 5.63 0 004.507 1.617c.057.93.192 1.843.4 2.728-.25-.108-.51-.2-.776-.271A5.633 5.633 0 00.352 27.42a.879.879 0 00-.228.85 5.633 5.633 0 003.968 3.969c.477.127.962.19 1.444.19a5.649 5.649 0 003.224-1.015 16.494 16.494 0 001.807 2.304 5.636 5.636 0 00-4.56 2.798.879.879 0 000 .88 5.634 5.634 0 004.86 2.806 5.633 5.633 0 004.85-2.786c1.471.67 3.063 1.13 4.74 1.339a.879.879 0 00.217-1.745zm-16.127-6.47a3.87 3.87 0 01-2.553-2.224 3.87 3.87 0 013.324-.65A3.87 3.87 0 017.87 29.89a3.87 3.87 0 01-3.324.65zm1.768-18.906a3.87 3.87 0 01.65-3.324 3.87 3.87 0 012.225 2.553 3.87 3.87 0 01-.65 3.324 3.871 3.871 0 01-2.225-2.553zm-3.43 9.017a3.87 3.87 0 01-1.099-3.203 3.871 3.871 0 013.204 1.098 3.87 3.87 0 011.098 3.204 3.872 3.872 0 01-3.203-1.099zm7.983 17.793a3.87 3.87 0 01-3.042-1.488 3.871 3.871 0 013.042-1.489c1.193 0 2.316.56 3.042 1.489a3.87 3.87 0 01-3.042 1.488zm28.357-12.477a5.58 5.58 0 00-.776.272c.208-.886.342-1.797.4-2.728a5.63 5.63 0 004.507-1.617 5.633 5.633 0 001.452-5.42.879.879 0 00-.622-.623 5.635 5.635 0 00-5.421 1.452 5.565 5.565 0 00-.536.623 16.321 16.321 0 00-.828-2.239 5.633 5.633 0 002.98-3.598 5.634 5.634 0 00-1.453-5.421.878.878 0 00-.85-.228 5.633 5.633 0 00-3.969 3.968 5.634 5.634 0 001.353 5.317 14.652 14.652 0 011.66 6.774c0 7.365-5.502 13.603-12.798 14.511a.88.88 0 00.217 1.745 16.263 16.263 0 004.74-1.34 5.633 5.633 0 004.849 2.787 5.633 5.633 0 004.86-2.806.879.879 0 000-.88 5.636 5.636 0 00-4.56-2.798 16.478 16.478 0 001.807-2.304 5.648 5.648 0 003.225 1.014c.482 0 .967-.062 1.443-.19a5.633 5.633 0 003.968-3.968.88.88 0 00-.227-.85 5.633 5.633 0 00-5.421-1.453zm.783-7.42a3.87 3.87 0 013.203-1.1 3.87 3.87 0 01-1.098 3.204 3.871 3.871 0 01-3.204 1.099 3.87 3.87 0 011.099-3.204zm-4.2-7.684a3.871 3.871 0 012.224-2.553c.71.941.96 2.171.65 3.324a3.871 3.871 0 01-2.224 2.553 3.871 3.871 0 01-.65-3.324zm1.363 26.093a3.871 3.871 0 01-3.041 1.488 3.87 3.87 0 01-3.042-1.488 3.871 3.871 0 013.042-1.489 3.87 3.87 0 013.041 1.489zm3.279-6.415a3.87 3.87 0 01-3.323-.65 3.87 3.87 0 012.552-2.226 3.87 3.87 0 013.324.65 3.87 3.87 0 01-2.553 2.226z"/><path d="M28.149 30.94a1.728 1.728 0 00.636-1.966l-1.38-4.217 3.604-2.607c.628-.454.88-1.224.64-1.962a1.728 1.728 0 00-1.669-1.214h-4.45l-1.362-4.215a1.728 1.728 0 00-1.67-1.215c-.775 0-1.43.477-1.669 1.215l-1.362 4.215h-4.45a1.73 1.73 0 00-1.67 1.214 1.728 1.728 0 00.642 1.962l3.604 2.607-1.38 4.217c-.242.738.008 1.51.635 1.965a1.75 1.75 0 001.032.342c.36 0 .72-.115 1.034-.344l3.585-2.616 3.584 2.616a1.728 1.728 0 002.066.002zm-5.65-4.586a.877.877 0 00-.518.169l-4.095 2.989 1.577-4.818a.879.879 0 00-.32-.986l-4.117-2.976h5.08a.88.88 0 00.836-.609l1.557-4.814 1.556 4.814a.88.88 0 00.836.609h5.08l-4.116 2.976a.88.88 0 00-.32.986l1.576 4.818-4.094-2.989a.877.877 0 00-.518-.169zm0-24.596a.885.885 0 00.621-.258.885.885 0 00.258-.621.885.885 0 00-.258-.621.885.885 0 00-.621-.258.885.885 0 00-.622.258.886.886 0 00-.257.62c0 .232.094.458.257.622.164.164.39.258.622.258zm-6.887 8.053a.88.88 0 001.593-.743l-2.294-4.92a.88.88 0 00-1.593.743l2.294 4.92zm6.885.252h.002a.879.879 0 00.879-.877l.005-4.345a.879.879 0 10-1.758-.002l-.005 4.344c0 .486.392.88.877.88zm5.72.173a.876.876 0 001.169-.425l2.294-4.92a.88.88 0 00-1.594-.743l-2.294 4.92a.879.879 0 00.425 1.168z"/></symbol><symbol viewBox="0 0 112 112" id="adv-icon10" xmlns="http://www.w3.org/2000/svg"><path d="M56 69.344a3.285 3.285 0 01-3.28-3.281c0-1.322.786-2.51 2.003-3.025 1.47-.622 3.228-.09 4.825 1.457a3.281 3.281 0 004.567-4.713c-1.482-1.435-3.128-2.45-4.833-3.022v-3.822a3.281 3.281 0 00-6.563 0v3.843a9.83 9.83 0 00-6.563 9.281c0 5.428 4.417 9.844 9.845 9.844a3.285 3.285 0 013.28 3.281 3.293 3.293 0 01-2.157 3.085c-1.686.614-3.648-.218-5.383-2.284a3.281 3.281 0 10-5.025 4.22c1.774 2.112 3.839 3.56 6.004 4.29v3.814a3.281 3.281 0 006.562 0v-3.844c.03-.01.059-.019.088-.03a9.876 9.876 0 006.474-9.25c0-5.428-4.415-9.844-9.843-9.844z"/><path d="M86.388 49.275c-3.9-4.797-8.358-8.62-13.251-11.369a9.903 9.903 0 001.842-3.3c1.603-4.88-.738-10.676-6.713-12.565l8.376-14.604a3.283 3.283 0 00-1.93-4.784A66.992 66.992 0 0056 0c-6.36 0-12.656.893-18.711 2.653a3.283 3.283 0 00-1.93 4.784l8.375 14.605c-5.951 1.878-8.321 7.667-6.712 12.567a9.86 9.86 0 001.843 3.296c-4.894 2.75-9.353 6.572-13.253 11.37-7.797 9.592-12.268 21.69-12.268 33.194C13.344 106.332 32.385 112 56 112c23.631 0 42.656-5.677 42.656-29.531 0-11.504-4.471-23.602-12.268-33.194zM43.202 7.923A60.64 60.64 0 0156 6.563c4.323 0 8.612.456 12.798 1.36l-7.226 12.6a40.252 40.252 0 00-11.144 0l-7.226-12.6zm2.144 20.492c5.647-1.853 11.555-2.204 17.299-1.055l.02.003c1.34.27 2.669.619 3.984 1.05a3.29 3.29 0 012.096 4.144 3.271 3.271 0 01-2.764 2.238A33.276 33.276 0 0056 33.25c-3.366 0-6.696.518-9.961 1.538a3.264 3.264 0 01-2.783-2.228 3.29 3.29 0 012.09-4.145zM56 105.48c-25.637 0-36.094-6.698-36.094-23.012 0-9.875 4.037-20.736 10.798-29.054C37.834 44.643 46.818 39.813 56 39.813c10.108 0 18.948 5.792 25.296 13.602 6.761 8.318 10.798 19.179 10.798 29.054 0 16.314-10.457 23.012-36.094 23.012z"/></symbol><symbol viewBox="0 0 92 92" id="adv-icon11" xmlns="http://www.w3.org/2000/svg"><path d="M69.36 41.328a3.594 3.594 0 100-7.187 3.594 3.594 0 000 7.187z"/><path d="M77.625 7.188h-4.672V3.594a3.594 3.594 0 10-7.187 0v3.594H49.414V3.594a3.594 3.594 0 10-7.187 0v3.594H26.055V3.594a3.594 3.594 0 10-7.188 0v3.594h-4.492C6.449 7.188 0 13.636 0 21.563v56.062C0 85.551 6.449 92 14.375 92h27.492a3.594 3.594 0 100-7.188H14.375c-3.963 0-7.188-3.224-7.188-7.187V21.562c0-3.963 3.225-7.187 7.188-7.187h4.492v3.594a3.594 3.594 0 107.188 0v-3.594h16.172v3.594a3.594 3.594 0 107.187 0v-3.594h16.352v3.594a3.594 3.594 0 107.187 0v-3.594h4.672c3.963 0 7.188 3.224 7.188 7.188v20.484a3.594 3.594 0 107.187 0V21.563c0-7.927-6.449-14.375-14.375-14.375z"/><path d="M70.258 48.516c-11.989 0-21.742 9.753-21.742 21.742S58.269 92 70.258 92 92 82.247 92 70.258s-9.753-21.742-21.742-21.742zm0 36.297c-8.026 0-14.555-6.53-14.555-14.555 0-8.026 6.53-14.555 14.555-14.555 8.025 0 14.555 6.53 14.555 14.555 0 8.025-6.53 14.555-14.555 14.555z"/><path d="M75.469 66.664h-1.617v-3.773a3.594 3.594 0 00-7.188 0v7.367a3.594 3.594 0 003.594 3.594h5.21a3.594 3.594 0 000-7.188zM53.727 41.328a3.594 3.594 0 100-7.187 3.594 3.594 0 000 7.187zM38.094 56.96a3.594 3.594 0 100-7.186 3.594 3.594 0 000 7.187zM22.46 41.328a3.594 3.594 0 100-7.187 3.594 3.594 0 000 7.187zm0 15.632a3.594 3.594 0 10.001-7.187 3.594 3.594 0 000 7.188zm0 15.634a3.594 3.594 0 100-7.188 3.594 3.594 0 000 7.188zm15.634 0a3.594 3.594 0 100-7.188 3.594 3.594 0 000 7.188zm0-31.266a3.594 3.594 0 100-7.187 3.594 3.594 0 000 7.187z"/></symbol><symbol viewBox="0 0 115 115" id="adv-icon12" xmlns="http://www.w3.org/2000/svg"><g clip-path="url(#dclip0)"><path d="M112.46 108.252l-.147-.037-3.03-12.114a3.366 3.366 0 00-1.692-2.16c-1.022-.542-19.979-10.411-37.506-8.544 13.408-6.978 33.216-3.195 33.473-3.144a3.37 3.37 0 001.321-6.607c-.387-.077-9.58-1.882-20.269-.951-12.228 1.063-21.48 5.315-27.11 12.393-5.63-7.078-14.882-11.33-27.11-12.393-10.69-.93-19.883.874-20.269.95a3.368 3.368 0 001.32 6.609c.257-.051 20.066-3.835 33.475 3.143C27.388 83.53 8.43 93.4 7.409 93.941a3.368 3.368 0 00-1.692 2.16l-3.03 12.114-.147.037a3.37 3.37 0 001.66 6.531l37.61-9.56c3.026 5.752 8.994 9.439 15.69 9.439 6.695 0 12.663-3.687 15.69-9.439l37.61 9.56a3.372 3.372 0 004.095-2.435 3.369 3.369 0 00-2.435-4.096zM72.042 97.979A3.369 3.369 0 0068 100.23a10.961 10.961 0 01-10.499 7.693 10.96 10.96 0 01-10.498-7.693 3.368 3.368 0 00-4.044-2.252l-32.853 8.35 1.771-7.083c5.82-2.776 29.575-13.043 43.692-3.162a3.37 3.37 0 003.864 0c14.084-9.859 37.87.396 43.693 3.164l1.771 7.081-32.854-8.35zm24.091-83.042h2.92v2.92a3.37 3.37 0 006.738 0v-2.92h2.92a3.37 3.37 0 000-6.738h-2.92v-2.92a3.37 3.37 0 00-6.738 0v2.92h-2.92a3.37 3.37 0 000 6.738zm-.397 35.747l-21.562 8.984a3.369 3.369 0 102.592 6.22l21.562-8.985a3.37 3.37 0 10-2.592-6.22zM63.908 62.462a3.37 3.37 0 004.058-2.497L76.95 22.23a3.37 3.37 0 00-6.555-1.56l-8.984 37.733a3.369 3.369 0 002.497 4.058zM46.977 59.66a3.37 3.37 0 006.671-.952l-3.593-25.156a3.37 3.37 0 00-6.671.953l3.593 25.156zM11.993 38.833a3.369 3.369 0 000 4.765L33.555 65.16c.658.658 1.52.987 2.382.987a3.369 3.369 0 002.382-5.752L16.757 38.834a3.37 3.37 0 00-4.764 0zm-1.21-17.607c5.821 0 10.557-4.736 10.557-10.557C21.34 4.85 16.604.113 10.783.113 4.963.113.227 4.848.227 10.669c0 5.821 4.735 10.557 10.556 10.557zm0-14.375a3.823 3.823 0 013.818 3.818 3.823 3.823 0 01-3.818 3.819 3.823 3.823 0 01-3.818-3.819 3.823 3.823 0 013.818-3.818zM5.393 64.35a3.37 3.37 0 100-6.738 3.37 3.37 0 000 6.739zm82.654-26.953a3.37 3.37 0 100-6.738 3.37 3.37 0 000 6.738zM57.5 17.632a3.37 3.37 0 100-6.738 3.37 3.37 0 000 6.738z"/></g><defs><clipPath id="dclip0"><path d="M0 0h115v115H0z"/></clipPath></defs></symbol><symbol viewBox="0 0 129 129" id="adv-icon13" xmlns="http://www.w3.org/2000/svg"><g clip-path="url(#eclip0)"><path d="M64.5-.5H36.55a2.65 2.65 0 00-2.65 2.65V16.7H2.15A2.65 2.65 0 00-.5 19.35v107.5a2.65 2.65 0 002.65 2.65H64.5a2.65 2.65 0 002.65-2.65V2.15A2.65 2.65 0 0064.5-.5zm-2.65 111.8H39.2V108h22.65v3.3zM4.8 32.75h29.1v63.5H4.8v-63.5zm57.05-9.6H39.2V17.7h22.65v5.45zM4.8 101.55h29.1V107H4.8v-5.45zm34.4 1.15V28.45h22.65v74.25H39.2zM61.85 4.8v7.6H39.2V4.8h22.65zM33.9 22v5.45H4.8V22h29.1zM4.8 112.3h29.1v11.9H4.8v-11.9zm34.4 11.9v-7.6h22.65v7.6H39.2z"/><path d="M129.414 117.582v.001a2.649 2.649 0 01-1.882 3.222l-32.248 8.6a2.647 2.647 0 01-2.017-.265 2.646 2.646 0 01-1.232-1.622l37.379-9.936zm0 0l-25.8-98.9 25.8 98.9zm-63.18-88.964l25.8 98.899 11.58-108.835a2.651 2.651 0 00-1.231-1.622 2.65 2.65 0 00-2.017-.27l-32.25 8.6a2.649 2.649 0 00-1.882 3.228zm9.22 14.346l27.13-7.233.758 2.902-27.127 7.244-.76-2.913zm2.107 8.041l27.119-7.233 12.218 46.865-27.12 7.236-12.217-46.868zm13.562 51.998l27.122-7.236 1.949 7.47-27.13 7.232-1.94-7.466zM72.03 29.831l27.127-7.234 2.089 8.008-27.13 7.23-2.086-8.004zm24.46 93.772l-2.088-8.008 27.13-7.235 2.086 8.005-27.127 7.238zM27.95 38.2h-17.2a2.65 2.65 0 00-2.65 2.65v17.2a2.65 2.65 0 002.65 2.65h17.2a2.65 2.65 0 002.65-2.65v-17.2a2.65 2.65 0 00-2.65-2.65zM25.3 55.4H13.4V43.5h11.9v11.9z"/></g><defs><clipPath id="eclip0"><path d="M0 0h129v129H0z"/></clipPath></defs></symbol><symbol viewBox="0 0 39 40" id="adv-icon2" xmlns="http://www.w3.org/2000/svg"><path d="M34.48 9.822c.53-1.107.894-2.254.894-3.323C35.374 3.467 32.95 1 29.972 1c-1.928 0-3.623 1.035-4.579 2.587a17.788 17.788 0 00-3.218-.644.57.57 0 00-.621.515c-.032.317.194.6.505.633.957.1 1.907.284 2.83.548a5.564 5.564 0 00-.318 1.86c0 3.886 4.796 8.814 5 9.022a.565.565 0 00.802 0c.129-.131 2.089-2.145 3.516-4.59a17.211 17.211 0 012.605 5.163l-8.218.881a.564.564 0 00-.376.204c-.085.104-2.095 2.564-3.125 4.14a5.323 5.323 0 00-3.077 1.248l-.107-.653-.73-4.435a.58.58 0 00-.195-.347l-4.381-3.743a.562.562 0 00-.294-.13l-4.49-.571a5.474 5.474 0 00-3.404-3.41c3.018-3.19 7.04-5.052 11.4-5.26a.573.573 0 00.54-.602.57.57 0 00-.592-.55c-2.462.117-4.83.73-7.037 1.821A18.09 18.09 0 006.79 9.015a5.35 5.35 0 00-.39-.016c-2.976 0-5.4 2.467-5.4 5.499 0 1.37.596 2.87 1.377 4.246-.111.83-.168 1.678-.168 2.522 0 4.92 1.882 9.546 5.3 13.025 3.416 3.48 7.96 5.395 12.793 5.395 4.833 0 9.377-1.916 12.794-5.395 3.418-3.479 5.3-8.105 5.3-13.025 0-4.204-1.355-8.16-3.916-11.444zm-4.508 4.453c-1.132-1.25-4.268-4.968-4.268-7.776 0-2.396 1.914-4.345 4.268-4.345s4.268 1.949 4.268 4.345c0 2.808-3.136 6.526-4.268 7.776zm-4.835 8.183c2.354 0 4.268 1.95 4.268 4.346 0 2.808-3.136 6.526-4.268 7.776-1.132-1.25-4.268-4.968-4.268-7.776 0-2.396 1.915-4.346 4.268-4.346zm-23.004-7.96c0-2.396 1.915-4.346 4.268-4.346 2.354 0 4.269 1.95 4.269 4.346 0 2.808-3.137 6.526-4.269 7.776-1.131-1.25-4.268-4.968-4.268-7.776zm1.209 6.768c0-.319.009-.639.026-.958A27.167 27.167 0 006 23.52a.565.565 0 00.801 0 27.155 27.155 0 002.739-3.365l2.21 5.063c.048.108.127.2.227.26l3.262 1.993-1.465 4.52-3.796 2.965a17.356 17.356 0 01-6.637-13.69zm7.6 14.392l3.661-2.859a.577.577 0 00.193-.277l1.662-5.127a.582.582 0 00-.246-.676l-3.498-2.136L10.277 19c.853-1.445 1.526-3.047 1.526-4.503a5.65 5.65 0 00-.034-.614l3.915.499 4.094 3.497.696 4.224.25 1.534a5.534 5.534 0 00-.988 3.166c0 .767.187 1.574.488 2.378l-1.595 4.611-5.413 3.158a16.87 16.87 0 01-2.274-1.293zm9.36 2.875c-2.021 0-3.96-.363-5.76-1.026l4.833-2.82a.574.574 0 00.253-.308l1.28-3.702c1.434 2.69 3.69 5.007 3.828 5.149a.565.565 0 00.802 0c.159-.162 3.105-3.19 4.4-6.356l4.631 1.122c-3.02 4.773-8.287 7.94-14.267 7.94zm10.01-10.159c.143-.532.227-1.06.227-1.57 0-2.697-1.918-4.945-4.437-5.41.87-1.238 2.103-2.778 2.523-3.296l8.174-.876c.307 1.308.463 2.661.463 4.044a17.4 17.4 0 01-2.085 8.288l-4.866-1.18z"/><path d="M25.137 23.766c-1.645 0-2.984 1.363-2.984 3.038 0 1.675 1.339 3.038 2.984 3.038s2.984-1.363 2.984-3.038c0-1.675-1.338-3.038-2.984-3.038zm0 4.922c-1.02 0-1.85-.845-1.85-1.884 0-1.04.83-1.885 1.85-1.885s1.851.846 1.851 1.885c0 1.039-.83 1.884-1.85 1.884zm4.835-25.227c-1.645 0-2.984 1.363-2.984 3.038 0 1.675 1.339 3.038 2.984 3.038s2.984-1.363 2.984-3.038c0-1.675-1.339-3.038-2.984-3.038zm0 4.922c-1.02 0-1.85-.845-1.85-1.884s.83-1.884 1.85-1.884 1.85.845 1.85 1.884-.83 1.884-1.85 1.884zM6.402 11.46c-1.646 0-2.985 1.363-2.985 3.038 0 1.675 1.34 3.038 2.985 3.038 1.645 0 2.984-1.363 2.984-3.038 0-1.675-1.339-3.038-2.984-3.038zm0 4.922c-1.021 0-1.851-.845-1.851-1.884 0-1.04.83-1.884 1.85-1.884 1.021 0 1.851.845 1.851 1.884s-.83 1.884-1.85 1.884z"/></symbol><symbol viewBox="0 0 40 39" id="adv-icon3" xmlns="http://www.w3.org/2000/svg"><g clip-path="url(#gclip0)"><mask id="ga" maskUnits="userSpaceOnUse" x="-1" y="6.855" width="42" height="33"><path d="M-1 6.855h42v33H-1z"/><path d="M39.837 16.633l-6.695-8.48a.798.798 0 00-1.042-.178l-4.323 2.68H22.14a.797.797 0 00-.216.035l-4.371 1.227-4.536-1.21L8.61 7.975a.798.798 0 00-1.03.165L.173 17.083a.751.751 0 00.099 1.06l3.881 3.256 3.482 4.575a2.657 2.657 0 00.061 3.76 2.79 2.79 0 001.681.776 2.653 2.653 0 00.78 2.324 2.79 2.79 0 001.96.792h.03l-.002.054c0 .722.289 1.4.812 1.911a2.794 2.794 0 002.393.759 2.66 2.66 0 00.797 1.645 2.8 2.8 0 001.96.79 2.8 2.8 0 001.96-.79l.424-.413.178.14a2.8 2.8 0 001.927.759c.71 0 1.42-.264 1.96-.79a2.66 2.66 0 00.81-1.954 2.804 2.804 0 002.004-.79c.55-.537.82-1.246.81-1.952.754.012 1.47-.27 2.003-.791a2.66 2.66 0 00.81-1.953 2.802 2.802 0 002.004-.79 2.656 2.656 0 00.364-3.383l2.543-5.192 3.822-3.207a.751.751 0 00.11-1.046zM8.36 9.632l3.17 1.965-6.894 8.188-2.763-2.318L8.36 9.632zm.447 17.361l.957-.932a1.217 1.217 0 01.744-.339h.02a1.21 1.21 0 01.961.363c.443.456.42 1.202-.053 1.663l-.927.904a1.226 1.226 0 01-1.701 0 1.154 1.154 0 010-1.659zm2.461 4.76a1.15 1.15 0 010-1.66l1.855-1.807a1.24 1.24 0 011.367-.23c.469.217.732.712.663 1.21a1.226 1.226 0 01-.358.707l-1.825 1.78c-.228.221-.53.343-.851.343-.321 0-.623-.122-.85-.343zm2.8 2.756a1.15 1.15 0 010-1.658l1.855-1.809c.38-.37.99-.45 1.454-.186.425.241.647.715.575 1.186-.04.259-.167.503-.357.688l-1.825 1.78c-.227.221-.53.343-.85.343-.322 0-.624-.122-.852-.344zm3.19 2.405a1.154 1.154 0 010-1.66l.957-.932a1.233 1.233 0 01.092-.081 1.214 1.214 0 01.65-.257c.013-.002.027-.002.04-.002.029-.002.056-.004.085-.003a1.21 1.21 0 01.936.456c.36.46.312 1.143-.136 1.58l-.922.899a1.227 1.227 0 01-1.702 0zm14.632-8.535a1.226 1.226 0 01-1.702 0 .686.686 0 00-.053-.047l-5.043-4.969a.799.799 0 00-1.11-.005.751.751 0 00-.005 1.081l5.098 5.023.001.001a1.154 1.154 0 010 1.66c-.227.221-.53.343-.85.343a1.21 1.21 0 01-.851-.344l-3.41-3.36a.798.798 0 00-1.11-.005.751.751 0 00-.005 1.082l3.358 3.308c.017.02.035.04.055.06a1.154 1.154 0 010 1.659 1.227 1.227 0 01-1.702 0l-1.862-1.834a.799.799 0 00-1.109-.006.751.751 0 00-.006 1.081l1.81 1.783c.017.02.035.04.055.06a1.154 1.154 0 010 1.659 1.226 1.226 0 01-1.701 0c-.054-.053-.118-.093-.178-.138-.052-.038-.065-.065-.04-.126.026-.061.065-.117.091-.179.029-.069.052-.14.075-.211.12-.378.155-.785.101-1.177a2.682 2.682 0 00-1.171-1.861 2.795 2.795 0 00-1.167-.441 2.68 2.68 0 00-.672-2.461 2.784 2.784 0 00-2.058-.845 2.662 2.662 0 00-.742-1.912 2.785 2.785 0 00-1.975-.845 2.846 2.846 0 00-.67.07 2.664 2.664 0 00-.916-1.64 2.791 2.791 0 00-1.773-.655 2.82 2.82 0 00-1.894.694l-3.032-3.983 7.254-8.616 2.311.617-3.019 5.194a2.625 2.625 0 00-.26 2.053 2.696 2.696 0 001.437 1.699 2.833 2.833 0 001.974.185 2.745 2.745 0 001.673-1.272l1.962-3.376 3.503.242 9.328 9.095a1.154 1.154 0 010 1.66zm.325-3.505l-8.751-8.532a.796.796 0 00-.499-.222l-4.29-.297a.802.802 0 00-.737.386l-2.206 3.796a1.223 1.223 0 01-1.64.442 1.171 1.171 0 01-.567-.708 1.139 1.139 0 01.113-.891l2.945-5.067 1.193-.335.024-.008 4.453-1.254h5.381l6.718 8.327-2.137 4.363zm3.164-5.564l-6.212-7.704 3.17-1.966 5.805 7.352-2.763 2.318z"/></mask><path d="M39.837 16.633l-6.695-8.48a.798.798 0 00-1.042-.178l-4.323 2.68H22.14a.797.797 0 00-.216.035l-4.371 1.227-4.536-1.21L8.61 7.975a.798.798 0 00-1.03.165L.173 17.083a.751.751 0 00.099 1.06l3.881 3.256 3.482 4.575a2.657 2.657 0 00.061 3.76 2.79 2.79 0 001.681.776 2.653 2.653 0 00.78 2.324 2.79 2.79 0 001.96.792h.03l-.002.054c0 .722.289 1.4.812 1.911a2.794 2.794 0 002.393.759 2.66 2.66 0 00.797 1.645 2.8 2.8 0 001.96.79 2.8 2.8 0 001.96-.79l.424-.413.178.14a2.8 2.8 0 001.927.759c.71 0 1.42-.264 1.96-.79a2.66 2.66 0 00.81-1.954 2.804 2.804 0 002.004-.79c.55-.537.82-1.246.81-1.952.754.012 1.47-.27 2.003-.791a2.66 2.66 0 00.81-1.953 2.802 2.802 0 002.004-.79 2.656 2.656 0 00.364-3.383l2.543-5.192 3.822-3.207a.751.751 0 00.11-1.046zM8.36 9.632l3.17 1.965-6.894 8.188-2.763-2.318L8.36 9.632zm.447 17.361l.957-.932a1.217 1.217 0 01.744-.339h.02a1.21 1.21 0 01.961.363c.443.456.42 1.202-.053 1.663l-.927.904a1.226 1.226 0 01-1.701 0 1.154 1.154 0 010-1.659zm2.461 4.76a1.15 1.15 0 010-1.66l1.855-1.807a1.24 1.24 0 011.367-.23c.469.217.732.712.663 1.21a1.226 1.226 0 01-.358.707l-1.825 1.78c-.228.221-.53.343-.851.343-.321 0-.623-.122-.85-.343zm2.8 2.756a1.15 1.15 0 010-1.658l1.855-1.809c.38-.37.99-.45 1.454-.186.425.241.647.715.575 1.186-.04.259-.167.503-.357.688l-1.825 1.78c-.227.221-.53.343-.85.343-.322 0-.624-.122-.852-.344zm3.19 2.405a1.154 1.154 0 010-1.66l.957-.932a1.233 1.233 0 01.092-.081 1.214 1.214 0 01.65-.257c.013-.002.027-.002.04-.002.029-.002.056-.004.085-.003a1.21 1.21 0 01.936.456c.36.46.312 1.143-.136 1.58l-.922.899a1.227 1.227 0 01-1.702 0zm14.632-8.535a1.226 1.226 0 01-1.702 0 .686.686 0 00-.053-.047l-5.043-4.969a.799.799 0 00-1.11-.005.751.751 0 00-.005 1.081l5.098 5.023.001.001a1.154 1.154 0 010 1.66c-.227.221-.53.343-.85.343a1.21 1.21 0 01-.851-.344l-3.41-3.36a.798.798 0 00-1.11-.005.751.751 0 00-.005 1.082l3.358 3.308c.017.02.035.04.055.06a1.154 1.154 0 010 1.659 1.227 1.227 0 01-1.702 0l-1.862-1.834a.799.799 0 00-1.109-.006.751.751 0 00-.006 1.081l1.81 1.783c.017.02.035.04.055.06a1.154 1.154 0 010 1.659 1.226 1.226 0 01-1.701 0c-.054-.053-.118-.093-.178-.138-.052-.038-.065-.065-.04-.126.026-.061.065-.117.091-.179.029-.069.052-.14.075-.211.12-.378.155-.785.101-1.177a2.682 2.682 0 00-1.171-1.861 2.795 2.795 0 00-1.167-.441 2.68 2.68 0 00-.672-2.461 2.784 2.784 0 00-2.058-.845 2.662 2.662 0 00-.742-1.912 2.785 2.785 0 00-1.975-.845 2.846 2.846 0 00-.67.07 2.664 2.664 0 00-.916-1.64 2.791 2.791 0 00-1.773-.655 2.82 2.82 0 00-1.894.694l-3.032-3.983 7.254-8.616 2.311.617-3.019 5.194a2.625 2.625 0 00-.26 2.053 2.696 2.696 0 001.437 1.699 2.833 2.833 0 001.974.185 2.745 2.745 0 001.673-1.272l1.962-3.376 3.503.242 9.328 9.095a1.154 1.154 0 010 1.66zm.325-3.505l-8.751-8.532a.796.796 0 00-.499-.222l-4.29-.297a.802.802 0 00-.737.386l-2.206 3.796a1.223 1.223 0 01-1.64.442 1.171 1.171 0 01-.567-.708 1.139 1.139 0 01.113-.891l2.945-5.067 1.193-.335.024-.008 4.453-1.254h5.381l6.718 8.327-2.137 4.363zm3.164-5.564l-6.212-7.704 3.17-1.966 5.805 7.352-2.763 2.318z"/><path d="M39.837 16.633l-6.695-8.48a.798.798 0 00-1.042-.178l-4.323 2.68H22.14a.797.797 0 00-.216.035l-4.371 1.227-4.536-1.21L8.61 7.975a.798.798 0 00-1.03.165L.173 17.083a.751.751 0 00.099 1.06l3.881 3.256 3.482 4.575a2.657 2.657 0 00.061 3.76 2.79 2.79 0 001.681.776 2.653 2.653 0 00.78 2.324 2.79 2.79 0 001.96.792h.03l-.002.054c0 .722.289 1.4.812 1.911a2.794 2.794 0 002.393.759 2.66 2.66 0 00.797 1.645 2.8 2.8 0 001.96.79 2.8 2.8 0 001.96-.79l.424-.413.178.14a2.8 2.8 0 001.927.759c.71 0 1.42-.264 1.96-.79a2.66 2.66 0 00.81-1.954 2.804 2.804 0 002.004-.79c.55-.537.82-1.246.81-1.952.754.012 1.47-.27 2.003-.791a2.66 2.66 0 00.81-1.953 2.802 2.802 0 002.004-.79 2.656 2.656 0 00.364-3.383l2.543-5.192 3.822-3.207a.751.751 0 00.11-1.046zM8.36 9.632l3.17 1.965-6.894 8.188-2.763-2.318L8.36 9.632zm.447 17.361l.957-.932a1.217 1.217 0 01.744-.339h.02a1.21 1.21 0 01.961.363c.443.456.42 1.202-.053 1.663l-.927.904a1.226 1.226 0 01-1.701 0 1.154 1.154 0 010-1.659zm2.461 4.76a1.15 1.15 0 010-1.66l1.855-1.807a1.24 1.24 0 011.367-.23c.469.217.732.712.663 1.21a1.226 1.226 0 01-.358.707l-1.825 1.78c-.228.221-.53.343-.851.343-.321 0-.623-.122-.85-.343zm2.8 2.756a1.15 1.15 0 010-1.658l1.855-1.809c.38-.37.99-.45 1.454-.186.425.241.647.715.575 1.186-.04.259-.167.503-.357.688l-1.825 1.78c-.227.221-.53.343-.85.343-.322 0-.624-.122-.852-.344zm3.19 2.405a1.154 1.154 0 010-1.66l.957-.932a1.233 1.233 0 01.092-.081 1.214 1.214 0 01.65-.257c.013-.002.027-.002.04-.002.029-.002.056-.004.085-.003a1.21 1.21 0 01.936.456c.36.46.312 1.143-.136 1.58l-.922.899a1.227 1.227 0 01-1.702 0zm14.632-8.535a1.226 1.226 0 01-1.702 0 .686.686 0 00-.053-.047l-5.043-4.969a.799.799 0 00-1.11-.005.751.751 0 00-.005 1.081l5.098 5.023.001.001a1.154 1.154 0 010 1.66c-.227.221-.53.343-.85.343a1.21 1.21 0 01-.851-.344l-3.41-3.36a.798.798 0 00-1.11-.005.751.751 0 00-.005 1.082l3.358 3.308c.017.02.035.04.055.06a1.154 1.154 0 010 1.659 1.227 1.227 0 01-1.702 0l-1.862-1.834a.799.799 0 00-1.109-.006.751.751 0 00-.006 1.081l1.81 1.783c.017.02.035.04.055.06a1.154 1.154 0 010 1.659 1.226 1.226 0 01-1.701 0c-.054-.053-.118-.093-.178-.138-.052-.038-.065-.065-.04-.126.026-.061.065-.117.091-.179.029-.069.052-.14.075-.211.12-.378.155-.785.101-1.177a2.682 2.682 0 00-1.171-1.861 2.795 2.795 0 00-1.167-.441 2.68 2.68 0 00-.672-2.461 2.784 2.784 0 00-2.058-.845 2.662 2.662 0 00-.742-1.912 2.785 2.785 0 00-1.975-.845 2.846 2.846 0 00-.67.07 2.664 2.664 0 00-.916-1.64 2.791 2.791 0 00-1.773-.655 2.82 2.82 0 00-1.894.694l-3.032-3.983 7.254-8.616 2.311.617-3.019 5.194a2.625 2.625 0 00-.26 2.053 2.696 2.696 0 001.437 1.699 2.833 2.833 0 001.974.185 2.745 2.745 0 001.673-1.272l1.962-3.376 3.503.242 9.328 9.095a1.154 1.154 0 010 1.66zm.325-3.505l-8.751-8.532a.796.796 0 00-.499-.222l-4.29-.297a.802.802 0 00-.737.386l-2.206 3.796a1.223 1.223 0 01-1.64.442 1.171 1.171 0 01-.567-.708 1.139 1.139 0 01.113-.891l2.945-5.067 1.193-.335.024-.008 4.453-1.254h5.381l6.718 8.327-2.137 4.363zm3.164-5.564l-6.212-7.704 3.17-1.966 5.805 7.352-2.763 2.318z" mask="url(#ga)"/><path d="M24.233 9.27a.84.84 0 00.59-.24l5.357-5.223a.801.801 0 000-1.153.849.849 0 00-1.179 0l-5.357 5.224a.801.801 0 000 1.153.843.843 0 00.589.238zm-9.056-.24a.842.842 0 00.59.24c.213 0 .426-.08.59-.24a.801.801 0 000-1.152l-5.358-5.224a.849.849 0 00-1.18 0 .801.801 0 000 1.153l5.358 5.224zM20 9.27c.46 0 .834-.365.834-.816V4.131A.825.825 0 0020 3.317a.825.825 0 00-.834.814v4.323c0 .451.375.815.834.815zm.794-7.953a.839.839 0 01-.753.563m.753-.563l-1.564.062a.84.84 0 00.81.501m.754-.563a.81.81 0 00-.287-.897m.287.897L20.507.42m-.466 1.46l-.003-.05.003.05zm.466-1.46a.86.86 0 00-.97-.03l.97.03zm-.97-.03a.81.81 0 00-.307.99l.308-.99z"/></g><defs><clipPath id="gclip0"><path d="M0 0h40v39H0z"/></clipPath></defs></symbol><symbol viewBox="0 0 39 39" id="adv-icon4" xmlns="http://www.w3.org/2000/svg"><g clip-path="url(#hclip0)"><mask id="ha" maskUnits="userSpaceOnUse" x="23.584" y="23.349" width="12" height="16"><path d="M23.584 23.349h12v16h-12z"/><path d="M32.308 32.858l-.86-.289a.831.831 0 01-.567-.793v-.884l.257-.156c.534-.326.865-.916.865-1.541v-2.854a1.993 1.993 0 00-1.99-1.992h-1.756c-1.097 0-1.99.893-1.99 1.992v2.854c0 .625.332 1.215.865 1.54l.257.157v.884a.845.845 0 01-.267.614.827.827 0 01-.302.18l-.859.288c-.446.15-.844.391-1.184.714l-.01.01-.01.008-.009.01a.73.73 0 00-.057.068l-.016.024-.014.022a.58.58 0 00-.015.027l-.01.02-.012.03-.008.022-.01.03-.006.024-.006.028a.44.44 0 00-.008.053l-.002.031v.023a.595.595 0 00.003.055.574.574 0 00.009.057l.005.027.009.03.007.022a.717.717 0 00.014.034l.004.012c.162.353.244.73.244 1.12v2.94a.571.571 0 101.143 0v-2.94c0-.404-.063-.798-.185-1.177.15-.1.314-.182.49-.24l.857-.29c.154-.051.3-.121.435-.208.237.07.477.122.72.156l-.86 3.041a.572.572 0 00.125.537l1.05 1.171a.572.572 0 00.412.19h.014c.152 0 .298-.06.405-.169l1.162-1.171a.572.572 0 00.14-.573l-.952-3.043c.253-.042.504-.103.75-.183a2 2 0 00.501.253l.857.288a2.076 2.076 0 011.413 1.97V38.3a.571.571 0 101.143 0v-2.39c0-1.383-.88-2.61-2.19-3.052zm-3.194-.353a3.91 3.91 0 01-.704-.05c.08-.216.121-.446.121-.68v-.23a1.792 1.792 0 001.208 0v.23c0 .223.037.439.106.643-.24.052-.485.08-.731.087zM27.41 27.84l1.028-.537 2.422.78v1.111c0 .23-.121.447-.317.566l-1.065.65a.656.656 0 01-.686 0l-1.065-.65a.666.666 0 01-.317-.566V27.84zm.847-2.349h1.756a.85.85 0 01.847.85v.541l-2.3-.74a.571.571 0 00-.439.037l-.711.372v-.21c0-.469.38-.85.847-.85zm.844 11.645l-.436-.487.442-1.564.486 1.554-.492.497z"/></mask><path d="M32.308 32.858l-.86-.289a.831.831 0 01-.567-.793v-.884l.257-.156c.534-.326.865-.916.865-1.541v-2.854a1.993 1.993 0 00-1.99-1.992h-1.756c-1.097 0-1.99.893-1.99 1.992v2.854c0 .625.332 1.215.865 1.54l.257.157v.884a.845.845 0 01-.267.614.827.827 0 01-.302.18l-.859.288c-.446.15-.844.391-1.184.714l-.01.01-.01.008-.009.01a.73.73 0 00-.057.068l-.016.024-.014.022a.58.58 0 00-.015.027l-.01.02-.012.03-.008.022-.01.03-.006.024-.006.028a.44.44 0 00-.008.053l-.002.031v.023a.595.595 0 00.003.055.574.574 0 00.009.057l.005.027.009.03.007.022a.717.717 0 00.014.034l.004.012c.162.353.244.73.244 1.12v2.94a.571.571 0 101.143 0v-2.94c0-.404-.063-.798-.185-1.177.15-.1.314-.182.49-.24l.857-.29c.154-.051.3-.121.435-.208.237.07.477.122.72.156l-.86 3.041a.572.572 0 00.125.537l1.05 1.171a.572.572 0 00.412.19h.014c.152 0 .298-.06.405-.169l1.162-1.171a.572.572 0 00.14-.573l-.952-3.043c.253-.042.504-.103.75-.183a2 2 0 00.501.253l.857.288a2.076 2.076 0 011.413 1.97V38.3a.571.571 0 101.143 0v-2.39c0-1.383-.88-2.61-2.19-3.052zm-3.194-.353a3.91 3.91 0 01-.704-.05c.08-.216.121-.446.121-.68v-.23a1.792 1.792 0 001.208 0v.23c0 .223.037.439.106.643-.24.052-.485.08-.731.087zM27.41 27.84l1.028-.537 2.422.78v1.111c0 .23-.121.447-.317.566l-1.065.65a.656.656 0 01-.686 0l-1.065-.65a.666.666 0 01-.317-.566V27.84zm.847-2.349h1.756a.85.85 0 01.847.85v.541l-2.3-.74a.571.571 0 00-.439.037l-.711.372v-.21c0-.469.38-.85.847-.85zm.844 11.645l-.436-.487.442-1.564.486 1.554-.492.497z"/><path d="M32.308 32.858l-.86-.289a.831.831 0 01-.567-.793v-.884l.257-.156c.534-.326.865-.916.865-1.541v-2.854a1.993 1.993 0 00-1.99-1.992h-1.756c-1.097 0-1.99.893-1.99 1.992v2.854c0 .625.332 1.215.865 1.54l.257.157v.884a.845.845 0 01-.267.614.827.827 0 01-.302.18l-.859.288c-.446.15-.844.391-1.184.714l-.01.01-.01.008-.009.01a.73.73 0 00-.057.068l-.016.024-.014.022a.58.58 0 00-.015.027l-.01.02-.012.03-.008.022-.01.03-.006.024-.006.028a.44.44 0 00-.008.053l-.002.031v.023a.595.595 0 00.003.055.574.574 0 00.009.057l.005.027.009.03.007.022a.717.717 0 00.014.034l.004.012c.162.353.244.73.244 1.12v2.94a.571.571 0 101.143 0v-2.94c0-.404-.063-.798-.185-1.177.15-.1.314-.182.49-.24l.857-.29c.154-.051.3-.121.435-.208.237.07.477.122.72.156l-.86 3.041a.572.572 0 00.125.537l1.05 1.171a.572.572 0 00.412.19h.014c.152 0 .298-.06.405-.169l1.162-1.171a.572.572 0 00.14-.573l-.952-3.043c.253-.042.504-.103.75-.183a2 2 0 00.501.253l.857.288a2.076 2.076 0 011.413 1.97V38.3a.571.571 0 101.143 0v-2.39c0-1.383-.88-2.61-2.19-3.052zm-3.194-.353a3.91 3.91 0 01-.704-.05c.08-.216.121-.446.121-.68v-.23a1.792 1.792 0 001.208 0v.23c0 .223.037.439.106.643-.24.052-.485.08-.731.087zM27.41 27.84l1.028-.537 2.422.78v1.111c0 .23-.121.447-.317.566l-1.065.65a.656.656 0 01-.686 0l-1.065-.65a.666.666 0 01-.317-.566V27.84zm.847-2.349h1.756a.85.85 0 01.847.85v.541l-2.3-.74a.571.571 0 00-.439.037l-.711.372v-.21c0-.469.38-.85.847-.85zm.844 11.645l-.436-.487.442-1.564.486 1.554-.492.497z" mask="url(#ha)"/><mask id="hb" maskUnits="userSpaceOnUse" x="3.602" y="20.256" width="21" height="19"><path d="M3.602 20.256h21v19h-21z"/><path d="M23.415 31.727l-1.056-.357a1.163 1.163 0 01-.468-.295v-.001a1.164 1.164 0 01-.323-.807v-1.161l.38-.231a2.103 2.103 0 001-1.785v-3.513a2.32 2.32 0 00-2.317-2.32h-2.162a2.322 2.322 0 00-2.317 2.32v3.513c0 .724.383 1.408 1.001 1.785l.38.231v1.161c0 .323-.136.635-.37.854a1.15 1.15 0 01-.422.25l-1.056.356a3.842 3.842 0 00-1.907 1.427 3.22 3.22 0 00-.64-.296l-.859-.289a.836.836 0 01-.567-.793v-.884l.257-.156c.533-.326.864-.916.864-1.541v-2.854a1.993 1.993 0 00-1.99-1.992H9.087c-1.097 0-1.99.893-1.99 1.992v2.854c0 .625.332 1.215.865 1.54l.257.157v.884a.843.843 0 01-.569.794l-.858.288a3.218 3.218 0 00-2.19 3.053V38.3a.571.571 0 101.143 0v-2.39c0-.893.567-1.684 1.412-1.969l.857-.288a1.9 1.9 0 00.435-.21c.237.07.478.123.721.157l-.86 3.041a.572.572 0 00.124.537l1.05 1.171a.572.572 0 00.412.19h.014a.57.57 0 00.406-.169l1.161-1.171a.57.57 0 00.14-.573l-.952-3.043c.254-.042.504-.103.75-.184.155.108.324.195.502.254l.857.288c.176.06.34.14.49.241a3.814 3.814 0 00-.185 1.176V38.3a.571.571 0 101.143 0v-2.942a2.696 2.696 0 011.829-2.55l1.054-.354c.198-.067.385-.16.557-.276.353.107.713.181 1.078.223l-1.1 3.892a.57.57 0 00.123.537l1.293 1.443a.572.572 0 00.412.189h.014c.152 0 .298-.06.405-.169l1.43-1.442a.57.57 0 00.14-.573l-1.218-3.895c.38-.052.753-.14 1.119-.263.193.144.408.257.636.333l1.056.356a.572.572 0 00.365-1.083zm-13.471.777a3.91 3.91 0 01-.703-.049c.078-.216.12-.446.12-.68v-.23a1.787 1.787 0 001.208 0v.23c0 .222.037.439.106.643-.24.052-.484.08-.731.087zM8.24 27.84l1.029-.537 2.422.78v1.111c0 .23-.122.447-.317.566l-1.066.65a.655.655 0 01-.685 0l-1.066-.65a.667.667 0 01-.317-.566V27.84zm.848-2.349h1.756a.85.85 0 01.847.85v.541l-2.3-.74a.57.57 0 00-.44.037l-.71.372v-.21c0-.469.38-.85.847-.85zm.843 11.645l-.436-.487.443-1.564.486 1.554-.493.497zm9.595-5.84a4.9 4.9 0 01-1.05-.091c.13-.293.2-.612.2-.938v-.481a2.072 2.072 0 001.749 0v.481c0 .308.061.608.177.886a4.865 4.865 0 01-1.076.144zM18.47 22.4h2.162c.648 0 1.175.528 1.175 1.178v.848l-3.003-.968a.572.572 0 00-.44.038l-1.069.558v-.476c0-.65.528-1.178 1.175-1.178zm-1.175 2.943l1.386-.724 3.126 1.007v1.465a.952.952 0 01-.453.81l-1.312.799a.94.94 0 01-.981 0l-1.312-.8a.953.953 0 01-.454-.809v-1.748zm2.209 11.717l-.679-.757.686-2.423.754 2.412-.761.768z"/></mask><path d="M23.415 31.727l-1.056-.357a1.163 1.163 0 01-.468-.295v-.001a1.164 1.164 0 01-.323-.807v-1.161l.38-.231a2.103 2.103 0 001-1.785v-3.513a2.32 2.32 0 00-2.317-2.32h-2.162a2.322 2.322 0 00-2.317 2.32v3.513c0 .724.383 1.408 1.001 1.785l.38.231v1.161c0 .323-.136.635-.37.854a1.15 1.15 0 01-.422.25l-1.056.356a3.842 3.842 0 00-1.907 1.427 3.22 3.22 0 00-.64-.296l-.859-.289a.836.836 0 01-.567-.793v-.884l.257-.156c.533-.326.864-.916.864-1.541v-2.854a1.993 1.993 0 00-1.99-1.992H9.087c-1.097 0-1.99.893-1.99 1.992v2.854c0 .625.332 1.215.865 1.54l.257.157v.884a.843.843 0 01-.569.794l-.858.288a3.218 3.218 0 00-2.19 3.053V38.3a.571.571 0 101.143 0v-2.39c0-.893.567-1.684 1.412-1.969l.857-.288a1.9 1.9 0 00.435-.21c.237.07.478.123.721.157l-.86 3.041a.572.572 0 00.124.537l1.05 1.171a.572.572 0 00.412.19h.014a.57.57 0 00.406-.169l1.161-1.171a.57.57 0 00.14-.573l-.952-3.043c.254-.042.504-.103.75-.184.155.108.324.195.502.254l.857.288c.176.06.34.14.49.241a3.814 3.814 0 00-.185 1.176V38.3a.571.571 0 101.143 0v-2.942a2.696 2.696 0 011.829-2.55l1.054-.354c.198-.067.385-.16.557-.276.353.107.713.181 1.078.223l-1.1 3.892a.57.57 0 00.123.537l1.293 1.443a.572.572 0 00.412.189h.014c.152 0 .298-.06.405-.169l1.43-1.442a.57.57 0 00.14-.573l-1.218-3.895c.38-.052.753-.14 1.119-.263.193.144.408.257.636.333l1.056.356a.572.572 0 00.365-1.083zm-13.471.777a3.91 3.91 0 01-.703-.049c.078-.216.12-.446.12-.68v-.23a1.787 1.787 0 001.208 0v.23c0 .222.037.439.106.643-.24.052-.484.08-.731.087zM8.24 27.84l1.029-.537 2.422.78v1.111c0 .23-.122.447-.317.566l-1.066.65a.655.655 0 01-.685 0l-1.066-.65a.667.667 0 01-.317-.566V27.84zm.848-2.349h1.756a.85.85 0 01.847.85v.541l-2.3-.74a.57.57 0 00-.44.037l-.71.372v-.21c0-.469.38-.85.847-.85zm.843 11.645l-.436-.487.443-1.564.486 1.554-.493.497zm9.595-5.84a4.9 4.9 0 01-1.05-.091c.13-.293.2-.612.2-.938v-.481a2.072 2.072 0 001.749 0v.481c0 .308.061.608.177.886a4.865 4.865 0 01-1.076.144zM18.47 22.4h2.162c.648 0 1.175.528 1.175 1.178v.848l-3.003-.968a.572.572 0 00-.44.038l-1.069.558v-.476c0-.65.528-1.178 1.175-1.178zm-1.175 2.943l1.386-.724 3.126 1.007v1.465a.952.952 0 01-.453.81l-1.312.799a.94.94 0 01-.981 0l-1.312-.8a.953.953 0 01-.454-.809v-1.748zm2.209 11.717l-.679-.757.686-2.423.754 2.412-.761.768z"/><path d="M23.415 31.727l-1.056-.357a1.163 1.163 0 01-.468-.295v-.001a1.164 1.164 0 01-.323-.807v-1.161l.38-.231a2.103 2.103 0 001-1.785v-3.513a2.32 2.32 0 00-2.317-2.32h-2.162a2.322 2.322 0 00-2.317 2.32v3.513c0 .724.383 1.408 1.001 1.785l.38.231v1.161c0 .323-.136.635-.37.854a1.15 1.15 0 01-.422.25l-1.056.356a3.842 3.842 0 00-1.907 1.427 3.22 3.22 0 00-.64-.296l-.859-.289a.836.836 0 01-.567-.793v-.884l.257-.156c.533-.326.864-.916.864-1.541v-2.854a1.993 1.993 0 00-1.99-1.992H9.087c-1.097 0-1.99.893-1.99 1.992v2.854c0 .625.332 1.215.865 1.54l.257.157v.884a.843.843 0 01-.569.794l-.858.288a3.218 3.218 0 00-2.19 3.053V38.3a.571.571 0 101.143 0v-2.39c0-.893.567-1.684 1.412-1.969l.857-.288a1.9 1.9 0 00.435-.21c.237.07.478.123.721.157l-.86 3.041a.572.572 0 00.124.537l1.05 1.171a.572.572 0 00.412.19h.014a.57.57 0 00.406-.169l1.161-1.171a.57.57 0 00.14-.573l-.952-3.043c.254-.042.504-.103.75-.184.155.108.324.195.502.254l.857.288c.176.06.34.14.49.241a3.814 3.814 0 00-.185 1.176V38.3a.571.571 0 101.143 0v-2.942a2.696 2.696 0 011.829-2.55l1.054-.354c.198-.067.385-.16.557-.276.353.107.713.181 1.078.223l-1.1 3.892a.57.57 0 00.123.537l1.293 1.443a.572.572 0 00.412.189h.014c.152 0 .298-.06.405-.169l1.43-1.442a.57.57 0 00.14-.573l-1.218-3.895c.38-.052.753-.14 1.119-.263.193.144.408.257.636.333l1.056.356a.572.572 0 00.365-1.083zm-13.471.777a3.91 3.91 0 01-.703-.049c.078-.216.12-.446.12-.68v-.23a1.787 1.787 0 001.208 0v.23c0 .222.037.439.106.643-.24.052-.484.08-.731.087zM8.24 27.84l1.029-.537 2.422.78v1.111c0 .23-.122.447-.317.566l-1.066.65a.655.655 0 01-.685 0l-1.066-.65a.667.667 0 01-.317-.566V27.84zm.848-2.349h1.756a.85.85 0 01.847.85v.541l-2.3-.74a.57.57 0 00-.44.037l-.71.372v-.21c0-.469.38-.85.847-.85zm.843 11.645l-.436-.487.443-1.564.486 1.554-.493.497zm9.595-5.84a4.9 4.9 0 01-1.05-.091c.13-.293.2-.612.2-.938v-.481a2.072 2.072 0 001.749 0v.481c0 .308.061.608.177.886a4.865 4.865 0 01-1.076.144zM18.47 22.4h2.162c.648 0 1.175.528 1.175 1.178v.848l-3.003-.968a.572.572 0 00-.44.038l-1.069.558v-.476c0-.65.528-1.178 1.175-1.178zm-1.175 2.943l1.386-.724 3.126 1.007v1.465a.952.952 0 01-.453.81l-1.312.799a.94.94 0 01-.981 0l-1.312-.8a.953.953 0 01-.454-.809v-1.748zm2.209 11.717l-.679-.757.686-2.423.754 2.412-.761.768z" mask="url(#hb)"/><path d="M38.904 28.16a.672.672 0 010 .95.67.67 0 01-.95-.001l.07-.07-.07.07-12.68-12.683-2.221 1.465a.671.671 0 01-.755-.01l-2.037-1.426-1.875 1.412L38.904 28.16zm0 0L25.837 15.09l-.07.07m13.137 13l-13.138-13m0 0l.071-.07a.096.096 0 00-.005-.005l-4.612-4.613a2.306 2.306 0 00-1.049-.604V6.446h6.17c.378 0 .71-.23.843-.583a.895.895 0 00-.247-.995l-1.401-1.234 1.4-1.234a.895.895 0 00.248-.995.895.895 0 00-.843-.583h-6.17V.724a.671.671 0 10-1.342 0v9.19a2.311 2.311 0 00-.895.558l-2.032 2.033a.671.671 0 000 .95m9.864 1.706l-9.864-1.707m0 0a.671.671 0 00.95 0l2.031-2.033a.973.973 0 01.694-.287c.262 0 .508.102.694.287l4.034 4.036m-8.403-2.003l8.403 2.003m0 0l-1.61 1.062-2.063-1.444a.671.671 0 00-.79.014l.06.08-.06-.08-1.883 1.419-1.803-1.204a.671.671 0 00-.618-.067l-.772.302.274-.274a.671.671 0 000-.949.672.672 0 00-.95 0l-2.53 2.531a.114.114 0 00-.008.009L.097 28.313a.671.671 0 00.95.95l-.071-.07.07.07 11.355-11.358 3.3-1.29 1.908 1.274a.67.67 0 00.777-.022l5.919-2.41zm1.524-.374zM24.272 4.311l.9.792h-5V2.165h5l-.9.793.066.075-.066-.075a.902.902 0 000 1.353z"/></g><defs><clipPath id="hclip0"><path d="M0 0h39v39H0z"/></clipPath></defs></symbol><symbol viewBox="0 0 58 58" id="adv-icon5" xmlns="http://www.w3.org/2000/svg"><path d="M28.874 37.82h.002a1.15 1.15 0 01.941.331l9.063 9.062-.177.178a.904.904 0 010 1.281L28.874 37.82zm0 0c-.348.038-.66.232-.849.528l-5.57 8.753L10.9 35.545l8.752-5.57c.296-.189.49-.5.529-.85l-.249-.027 8.942 8.721zm-2.492 7.417l6.42 6.418a11.887 11.887 0 01-8.333 3.376 11.887 11.887 0 01-8.465-3.506l-9.53-9.529a11.893 11.893 0 01-3.505-8.465 11.89 11.89 0 013.375-8.333l6.42 6.42-4.322 2.75a1.156 1.156 0 00-.197 1.794L21.84 49.757c.247.246.588.371.943.332m3.6-4.851l-2.75 4.322c-.19.296-.502.49-.85.529m3.6-4.851l-.181-.181-2.78 4.37a.906.906 0 01-.666.413m3.627-4.602l-4.367 4.342a.9.9 0 00.74.26m.027.249l-.027-.249m.027.249l-.027-.249m-7.993-19.493L7.98 23.562l1.99-1.99 7.225 7.227-2.432 1.547zm19.675 19.675l-6.782-6.782 1.547-2.433 7.226 7.225-1.99 1.99zm22.592-49h.002c.3.322.391.785.238 1.196L54.78 8.86c.499 1.225.751 2.51.751 3.828 0 5.634-4.584 10.218-10.219 10.218a10.221 10.221 0 01-9.367-6.13l-.1-.23.229-.1 1.66-.725.229-.1.1.229a7.912 7.912 0 007.25 4.744c4.359 0 7.906-3.548 7.906-7.907a7.817 7.817 0 00-.736-3.31 1.158 1.158 0 01-.033-.892l4.58-7.463zm0 0c-.3-.32-.752-.443-1.175-.317l-7.477 2.243a10.108 10.108 0 00-3.066-.48c-4.84 0-9.051 3.438-10.014 8.177l-.05.245.245.05 1.777.36.245.05.05-.245c.743-3.663 4.002-6.324 7.747-6.324a7.85 7.85 0 012.657.469c.231.082.484.087.718.02h.003l5.595-1.68m2.746-2.568l-2.746 2.569m0 0L52.45 8.485l1.835-4.894z"/><path d="M31.966 30.075l-5.596 1.678 1.836-4.894a1.16 1.16 0 00-.033-.892 7.818 7.818 0 01-.736-3.31c0-4.36 3.547-7.907 7.906-7.907a7.912 7.912 0 017.25 4.744l.1.229.229-.1 1.66-.726.23-.1-.1-.23a10.222 10.222 0 00-9.369-6.13c-5.634 0-10.218 4.585-10.218 10.22 0 1.316.252 2.602.751 3.827l-2.49 6.641c-.154.412-.063.874.238 1.196a1.158 1.158 0 001.175.318h.001l7.477-2.243c1.003.318 2.032.479 3.066.479 4.841 0 9.052-3.438 10.015-8.176l.05-.245-.245-.05-1.778-.36-.245-.05-.05.245c-.742 3.663-4.001 6.323-7.747 6.323a7.856 7.856 0 01-2.655-.468 1.152 1.152 0 00-.722-.02z"/><path d="M30.813 21.5h-.25v2.313h2.311V21.5h-2.062zm3.625 0h-.25v2.313H36.5V21.5h-2.063zm3.625 0h-.25v2.313h2.311V21.5h-2.062zm2.718-9.969h-.25v2.313h2.313V11.53H40.78zm3.625 0h-.25v2.313h2.314V11.53h-2.064zm3.625 0h-.25v2.313h2.313V11.53H48.03z"/></symbol><symbol viewBox="0 0 52 52" id="adv-icon6" xmlns="http://www.w3.org/2000/svg"><path d="M32.094 33.617H19.906a1.523 1.523 0 000 3.047h12.188a1.523 1.523 0 000-3.047zm.456-13.665l-3.582-.52-1.602-3.247a1.524 1.524 0 00-2.732 0l-1.602 3.247-3.583.52a1.523 1.523 0 00-.844 2.599l2.592 2.527-.612 3.568a1.523 1.523 0 002.21 1.606L26 28.567l3.204 1.685a1.524 1.524 0 002.21-1.606l-.611-3.569 2.592-2.527a1.524 1.524 0 00-.844-2.598zm-4.448 3.503c-.359.35-.523.854-.438 1.348l.226 1.315-1.181-.62a1.523 1.523 0 00-1.418 0l-1.181.62.226-1.315a1.524 1.524 0 00-.439-1.348l-.955-.932 1.32-.191a1.523 1.523 0 001.147-.834l.59-1.196.591 1.196c.222.45.651.761 1.147.834l1.32.191-.955.932z"/><path d="M51.342 21.865L30.135.658a1.54 1.54 0 00-.888-.434A25.692 25.692 0 0026 0C11.684 0 0 11.685 0 26c0 14.316 11.685 26 26 26 14.316 0 26-11.685 26-26 0-.997-.071-2.029-.224-3.247a1.54 1.54 0 00-.434-.888zM42.859 26c0 9.296-7.563 16.86-16.859 16.86-9.296 0-16.86-7.564-16.86-16.86S16.705 9.14 26 9.14c.985 0 1.967.087 2.93.257 2.314 6.297 7.374 11.358 13.673 13.673.17.963.256 1.945.256 2.93zM31.075 5.908l15.017 15.017c-7.42-1.697-13.32-7.597-15.017-15.017zM26 48.953C13.344 48.953 3.047 38.656 3.047 26 3.047 13.344 13.344 3.047 26 3.047c.505 0 1.026.022 1.588.067.072 1.042.214 2.072.425 3.083A20.037 20.037 0 0026 6.094C15.052 6.094 6.094 15.053 6.094 26c0 5.29 2.078 10.282 5.851 14.055C15.72 43.828 20.71 45.906 26 45.906c10.948 0 19.906-8.959 19.906-19.906 0-.673-.036-1.345-.103-2.013 1.011.21 2.04.353 3.083.425.045.562.067 1.083.067 1.588 0 12.656-10.297 22.953-22.953 22.953z"/></symbol><symbol viewBox="0 0 65 53" id="adv-icon7" xmlns="http://www.w3.org/2000/svg"><path d="M64.65 20.945L53.236 4.702a1.913 1.913 0 00-3.128 0l-4.345 6.182A25.501 25.501 0 0025.548.952C11.46.952 0 12.412 0 26.5c0 14.087 11.46 25.548 25.548 25.548a25.487 25.487 0 0017.442-6.88l-.119 1.913a1.912 1.912 0 001.908 2.03h13.785a1.913 1.913 0 001.908-2.03l-1.428-23.125h4.042c1.547 0 2.452-1.747 1.564-3.01zm-39.102 27.28c-11.98 0-21.725-9.746-21.725-21.725 0-11.979 9.746-21.725 21.725-21.725 7.233 0 13.834 3.496 17.896 9.41l-4.75 6.76c-.89 1.266.019 3.011 1.563 3.011H44.3l-.924 14.955a21.685 21.685 0 01-17.828 9.313zM57.01 20.133c-1.102 0-1.976.93-1.908 2.03l1.429 23.124h-9.718l1.429-23.125a1.912 1.912 0 00-1.908-2.03h-2.397l7.735-11.006 7.734 11.007H57.01z"/><path d="M27.96 24.588h-4.826a2.425 2.425 0 01-2.422-2.422 2.42 2.42 0 012.422-2.422h4.655c1.137.01 2.236.632 2.868 1.62l.025.038a1.912 1.912 0 103.224-2.055l-.026-.04c-1.333-2.084-3.508-3.386-6.421-3.386v-2.293a1.912 1.912 0 00-3.823 0v2.293c-1.827 0-3.41.331-4.902 1.813a6.202 6.202 0 00-1.845 4.432 6.253 6.253 0 006.245 6.246h4.826a2.425 2.425 0 012.422 2.422 2.42 2.42 0 01-2.454 2.422h-5.044c-.994-.01-1.946-.475-2.615-1.277a1.912 1.912 0 00-2.937 2.447c1.789 2.148 3.87 2.653 6.303 2.653v2.293a1.912 1.912 0 103.824 0v-2.293c4.452 0 6.747-3.136 6.747-6.245a6.252 6.252 0 00-6.246-6.246z"/></symbol><symbol viewBox="0 0 97 97" id="adv-icon8" xmlns="http://www.w3.org/2000/svg"><path d="M48.5 0C21.714 0 0 21.714 0 48.5S21.714 97 48.5 97 97 75.286 97 48.5C96.97 21.726 75.274.029 48.5 0zm0 90.071C25.54 90.071 6.928 71.46 6.928 48.5c0-22.96 18.613-41.572 41.572-41.572 22.96 0 41.571 18.613 41.571 41.572C90.046 71.449 71.45 90.046 48.5 90.07z"/><path d="M68.925 46.955a3.464 3.464 0 00-1.555-1.556L39.655 31.542a3.464 3.464 0 00-5.012 3.1v27.715a3.465 3.465 0 005.013 3.1L67.37 51.602a3.464 3.464 0 001.555-4.646zm-27.354 9.797V40.248L58.075 48.5l-16.504 8.252z"/></symbol><symbol viewBox="0 0 124 86" id="adv-icon9" xmlns="http://www.w3.org/2000/svg"><path d="M104.803 31.585H99.87c.504-1.287.783-2.686.783-4.15 0-6.294-5.12-11.415-11.415-11.415-3.005 0-5.741 1.17-7.782 3.075a11.37 11.37 0 00-7.782-3.075c-6.294 0-11.416 5.121-11.416 11.415 0 1.464.28 2.863.785 4.15h-4.934a3.633 3.633 0 00-3.632 3.633v15.564a3.633 3.633 0 003.632 3.633h.259v11.932A3.633 3.633 0 0062 69.98h38.911a3.633 3.633 0 003.633-3.633V54.415h.258a3.633 3.633 0 003.633-3.633V35.217a3.633 3.633 0 00-3.633-3.632zm-26.98 31.129h-12.19v-8.299h12.19v8.299zm0-15.564h-16.08v-8.3h16.08v8.3zm0-15.565h-4.149a4.154 4.154 0 01-4.15-4.15 4.154 4.154 0 014.15-4.15 4.154 4.154 0 014.15 4.15v4.15zm7.266-4.15a4.155 4.155 0 014.15-4.15 4.154 4.154 0 014.15 4.15 4.154 4.154 0 01-4.15 4.15h-4.15v-4.15zm12.19 35.279H85.09v-8.299h12.19v8.299zm3.891-15.564H85.09v-8.3h16.08v8.3z"/><path d="M108.694.456H15.306C6.866.456 0 7.322 0 15.762v54.476c0 8.44 6.867 15.306 15.306 15.306h93.388c8.44 0 15.306-6.866 15.306-15.306V15.762c0-8.44-6.867-15.306-15.306-15.306zm8.04 69.782c0 4.434-3.607 8.04-8.04 8.04H15.306c-4.433 0-8.04-3.607-8.04-8.04V15.762c0-4.434 3.607-8.04 8.04-8.04h93.388c4.433 0 8.04 3.606 8.04 8.04v54.476z"/><path d="M30.87 62.714H19.198a3.633 3.633 0 000 7.266h11.674a3.633 3.633 0 000-7.266zM19.197 23.286h11.674a3.633 3.633 0 000-7.266H19.197a3.633 3.633 0 000 7.266zM42.544 47.15H19.197a3.633 3.633 0 000 7.265h23.347a3.633 3.633 0 000-7.266z"/></symbol><symbol viewBox="0 0 28 8" id="arrow" xmlns="http://www.w3.org/2000/svg"><path d="M27.354 4.354a.5.5 0 000-.708L24.172.464a.5.5 0 10-.707.708L26.293 4l-2.828 2.828a.5.5 0 10.707.708l3.182-3.182zM0 4.5h27v-1H0v1z"/></symbol><symbol viewBox="0 0 34 34" id="close" xmlns="http://www.w3.org/2000/svg"><path d="M34 2.003L31.997 0 17 14.997 2.003 0 0 2.003 14.997 17 0 31.997 2.003 34 17 19.003 31.997 34 34 31.997 19.003 17 34 2.003z"/></symbol><symbol viewBox="0 0 26 26" id="facebook" xmlns="http://www.w3.org/2000/svg"><path d="M23.666.2H2.334A2.14 2.14 0 00.2 2.333v21.334A2.14 2.14 0 002.333 25.8h21.333a2.14 2.14 0 002.134-2.133V2.333A2.14 2.14 0 0023.666.2zm0 23.467h-8.533v-8.534h5.334V13h-5.334v-2.133a3.2 3.2 0 013.2-3.2h2.134V5.533h-2.134A5.334 5.334 0 0013 10.866V13h-2.133v2.133H13v8.534H2.333V2.333h21.333v21.334z"/></symbol><symbol viewBox="0 0 26 26" id="instagram" xmlns="http://www.w3.org/2000/svg"><path d="M19.4.2H6.6C3.08.2.2 3.08.2 6.6v12.8c0 3.52 2.88 6.4 6.4 6.4h12.8c3.52 0 6.4-2.88 6.4-6.4V6.6c0-3.52-2.88-6.4-6.4-6.4zm4.267 19.2a4.271 4.271 0 01-4.267 4.267H6.6A4.272 4.272 0 012.333 19.4V6.6A4.272 4.272 0 016.6 2.333h12.8A4.27 4.27 0 0123.667 6.6v12.8z"/><path d="M19.933 7.666a1.6 1.6 0 100-3.2 1.6 1.6 0 000 3.2zM13 6.6a6.4 6.4 0 10.001 12.8A6.4 6.4 0 0013 6.6zm0 10.667a4.267 4.267 0 110-8.534 4.267 4.267 0 010 8.534z"/></symbol><symbol viewBox="0 0 155 43" id="logo" xmlns="http://www.w3.org/2000/svg"><path d="M4.596 17.32l-.086.45-.458.022a3.27 3.27 0 00-3.118 3.272 3.27 3.27 0 003.118 3.273l.458.022.086.45c1.78 9.311 9.962 16.07 19.456 16.07h3.716V1.25h-3.716c-9.493 0-17.676 6.759-19.456 16.07z"/><path d="M18.806 22.522c.531-11.252 5.892-20.14 11.973-19.853l-4.294-.203C16.551 1.998 7.943 8.72 5.7 18.046a3.859 3.859 0 00-.364 7.699c1.355 9.496 8.726 14.961 18.66 15.43l4.295.204c-6.082-.287-10.017-7.603-9.485-18.856z"/><path d="M29.163 41.277a.68.68 0 01-.68.68h-4.201c-9.905 0-18.463-6.95-20.513-16.589A4.433 4.433 0 010 20.978a4.434 4.434 0 013.769-4.39C5.819 6.95 14.377 0 24.282 0h4.564c.175 0 .317.142.317.317v40.96zM24.282 1.164c-9.493 0-17.675 6.759-19.456 16.07l-.086.45-.458.022a3.27 3.27 0 00-3.118 3.272 3.27 3.27 0 003.118 3.273l.458.022.086.45c1.78 9.311 9.963 16.07 19.456 16.07h3.717V1.163h-3.717z"/><path d="M39.605 20.978c0 11.265-4.936 20.396-11.024 20.396-6.088 0-11.024-9.131-11.024-20.396C17.557 9.714 22.493.582 28.581.582c6.088 0 11.024 9.132 11.024 20.396z"/><path d="M28.58 41.957c-3.167 0-6.118-2.23-8.306-6.28-2.127-3.935-3.299-9.156-3.299-14.699 0-5.543 1.172-10.763 3.299-14.699C22.462 2.23 25.413 0 28.58 0s6.118 2.23 8.307 6.279c2.127 3.936 3.299 9.156 3.299 14.7 0 5.542-1.172 10.762-3.3 14.699-2.188 4.049-5.138 6.279-8.306 6.279zm0-40.793c-2.72 0-5.306 2.014-7.282 5.669-2.037 3.769-3.159 8.793-3.159 14.145 0 5.353 1.122 10.377 3.159 14.146 1.976 3.655 4.562 5.668 7.283 5.668 2.72 0 5.307-2.013 7.283-5.668 2.037-3.77 3.159-8.793 3.159-14.146 0-5.352-1.122-10.376-3.16-14.145-1.975-3.656-4.561-5.669-7.282-5.669z"/><path d="M34.86 22.361c0 8.018-3.079 14.517-6.876 14.517-3.798 0-6.877-6.5-6.877-14.517s3.079-14.516 6.877-14.516c3.797 0 6.876 6.5 6.876 14.516z"/><path d="M29.163 4.892h-1.164v31.656h1.164V4.892z"/><path d="M35.018 20.209H21.049v1.164h13.969V20.21z"/><path d="M34.935 28.898l-12.11-17.36-.955.666 12.11 17.36.955-.666z"/><path d="M34.956 11.142l-1-.598L22.15 30.29l.999.598 11.808-19.745z"/><path d="M28.58 37.273c-4.549 0-8.113-7.24-8.113-16.482 0-9.242 3.564-16.481 8.114-16.481 4.55 0 8.113 7.24 8.113 16.481 0 9.242-3.563 16.482-8.113 16.482zm0-31.8c-3.766 0-6.949 7.015-6.949 15.318s3.183 15.317 6.95 15.317c3.767 0 6.95-7.014 6.95-15.317S32.347 5.474 28.58 5.474z"/><path d="M50.627 5.18l.303-.636-1.873-.862a6.08 6.08 0 00-.752-.432C42.82.606 34.41 6.688 29.519 16.835c-4.89 10.146-4.41 20.516 1.074 23.16.166.08.334.152.504.215l2.316 1.066.32-.672c5.202-.237 11.617-5.836 15.646-14.194 4.075-8.456 4.42-17.065 1.248-21.23z"/><path d="M33.289 18.406C37.639 9.38 44.776 3.57 50.159 4.26l-1.05-.484a6.088 6.088 0 00-.752-.432C42.873.7 34.462 6.781 29.571 16.928c-4.89 10.147-4.41 20.517 1.075 23.16.165.08.333.152.503.215l2.316 1.067.12-.253c-4.74-3.222-4.945-13.067-.296-22.71z"/><path d="M33.69 42.045l-2.818-1.298a6.702 6.702 0 01-.532-.228c-2.854-1.376-4.543-4.666-4.756-9.264-.207-4.47 1.004-9.68 3.41-14.674C33.12 8.025 39.91 2.05 45.508 2.05c1.093 0 2.119.228 3.05.676.268.13.531.28.784.447l2.368 1.09-.408.855c1.512 2.172 2.202 5.308 2 9.1-.212 3.968-1.387 8.272-3.399 12.446-1.987 4.123-4.587 7.692-7.518 10.322-2.799 2.511-5.65 3.95-8.273 4.177l-.422.883zM45.508 3.213c-5.168 0-11.528 5.706-15.465 13.874-2.324 4.823-3.495 9.835-3.296 14.114.192 4.15 1.648 7.088 4.099 8.27.146.07.3.135.455.194l.04.016 1.793.826.224-.469.348-.016c5.097-.233 11.326-5.935 15.148-13.865 3.884-8.057 4.422-16.538 1.31-20.625l-.215-.283.202-.423-1.38-.636-.039-.026a5.52 5.52 0 00-.68-.39 5.81 5.81 0 00-2.544-.56z"/><path d="M53.096 27.888c-4.89 10.147-13.301 16.23-18.785 13.585-5.484-2.644-5.965-13.014-1.074-23.16 4.89-10.147 13.301-16.23 18.785-13.585 5.485 2.644 5.965 13.013 1.075 23.16z"/><path d="M53.096 28.356c-4.89 10.147-13.301 16.229-18.785 13.585-5.484-2.644-5.965-13.014-1.074-23.16C38.127 8.632 46.538 2.55 52.022 5.194c5.485 2.645 5.965 13.014 1.075 23.16z"/><path d="M51.356 26.906l-1.049-.506c1.714-3.556 2.577-7.25 2.431-10.4-.14-3.023-1.19-5.156-2.957-6.008l.506-1.048c2.17 1.046 3.453 3.532 3.614 7.002.155 3.34-.75 7.233-2.545 10.96zM36.64 37.257c-2.17-1.046-3.453-3.533-3.614-7.002-.155-3.34.749-7.233 2.545-10.96l1.049.506c-1.714 3.556-2.578 7.25-2.431 10.4.14 3.022 1.19 5.155 2.956 6.007l-.505 1.049z"/><path d="M36.962 42.819a6.955 6.955 0 01-3.05-.677c-2.853-1.375-4.542-4.665-4.756-9.263-.207-4.47 1.004-9.68 3.41-14.674C36.692 9.65 43.483 3.673 49.08 3.673a6.96 6.96 0 013.05.676c2.853 1.376 4.543 4.666 4.756 9.264.207 4.47-1.004 9.68-3.41 14.674-4.125 8.556-10.915 14.532-16.514 14.532zM49.08 4.837c-5.168 0-11.527 5.705-15.465 13.874-2.324 4.822-3.495 9.834-3.296 14.114.192 4.151 1.648 7.088 4.099 8.27.771.371 1.627.56 2.544.56 5.168 0 11.527-5.705 15.464-13.874 2.325-4.822 3.495-9.834 3.297-14.114-.193-4.15-1.648-7.088-4.1-8.27a5.801 5.801 0 00-2.543-.56z"/><path d="M43.456 5.659l-3.562-1.893-.58 1.09 3.563 1.893.579-1.09zM41.675 7.3l-3.562-1.893-.58 1.09 3.563 1.893.58-1.09zm-1.779 1.476l-3.562-1.893-.58 1.09 3.563 1.893.579-1.09zm-1.428 1.515l-3.562-1.893-.58 1.09 3.563 1.894.579-1.09zm-1.319 1.893l-3.563-1.893-.579 1.09 3.563 1.893.579-1.09zM17.913 35.722H16.75v1.273h1.163v-1.273zm-2.801-1.273h-1.164v1.273h1.164V34.45zm1.746-1.71h-1.164v1.274h1.164v-1.274z"/><path d="M87.535 23.754H69.754V9.147h2.88v11.897h4.569V9.147h2.88v11.897h4.568V9.147h2.88v14.607h.004zm14.589 0l-3.005-4.693c-.335-.516-.626-.863-.878-1.044-.249-.181-.618-.272-1.105-.272h-1.334v6.013h-2.88V9.147h2.88v5.824h1.251c.472 0 .837-.09 1.097-.271.257-.181.555-.528.886-1.045l2.88-4.508h3.257l-3.445 5.387c-.683.93-1.244 1.515-1.693 1.753.528.237 1.12.87 1.776 1.9l3.57 5.571h-3.257v-.004zm7.953-12.571C111.521 9.728 113.278 9 115.336 9c2.058 0 3.815.728 5.27 2.183 1.455 1.455 2.183 3.211 2.183 5.27 0 2.062-.728 3.814-2.183 5.27-1.455 1.454-3.212 2.182-5.27 2.182-2.058 0-3.811-.728-5.259-2.183-1.447-1.455-2.171-3.211-2.171-5.27 0-2.058.724-3.814 2.171-5.27zm8.512 1.866c-.874-.89-1.96-1.335-3.257-1.335-1.293 0-2.375.445-3.245 1.335-.871.893-1.305 2.024-1.305 3.4 0 1.39.434 2.53 1.305 3.411.87.886 1.952 1.327 3.245 1.327 1.308 0 2.398-.44 3.269-1.327.867-.882 1.304-2.02 1.304-3.411 0-1.376-.437-2.507-1.316-3.4zm13.088 1.379l-3.63 9.33h-3.193l6.013-14.611h1.689l5.926 14.611h-3.193l-3.612-9.33zm13.88 6.657l-1.044 2.673h-3.193l6.013-14.611h1.688l5.926 14.607h-3.193l-1.044-2.673h-5.153v.004zm2.586-6.72l-1.587 3.984h3.151l-1.564-3.985z" fill-opacity=".87"/><path d="M72.78 29.772l-2.736 6.736H69L72.525 28h.535l3.513 8.508H75.53l-2.748-6.736zm10.94 6.736h-.874v-4.595l-4.049 4.595h-.535v-6.077h.886v4.596l4.048-4.596h.524v6.077zm8.508 0h-.885v-4.595l-2.236 2.54-2.235-2.54v4.595h-.886v-6.077h.535l2.59 2.94 2.59-2.94h.535v6.077h-.008zm4.999-6.163c.867 0 1.606.305 2.213.916.607.61.912 1.35.912 2.205 0 .86-.305 1.59-.912 2.201a3.016 3.016 0 01-2.213.913 2.993 2.993 0 01-2.205-.913 3.01 3.01 0 01-.905-2.201c0-.867.305-1.606.912-2.213a3 3 0 012.198-.908zm-.015.852a2.15 2.15 0 00-1.568.652c-.438.433-.656.972-.656 1.624 0 .649.215 1.188.652 1.618.433.43.957.644 1.576.644a2.18 2.18 0 001.58-.644c.436-.43.655-.97.655-1.618 0-.648-.219-1.187-.656-1.624a2.16 2.16 0 00-1.583-.652zm10.528 5.311h-.886v-2.639h-3.732v2.639h-.885v-6.077h.885v2.59h3.732v-2.59h.886v6.077zm11.633 0h-.886v-2.639h-3.731v2.639h-.886v-6.077h.886v2.59h3.731v-2.59h.886v6.077zm8.071 0h-.633l-.038-1.372a2.71 2.71 0 01-1.01 1.052 2.77 2.77 0 01-1.459.395c-.86 0-1.58-.301-2.164-.904-.584-.604-.874-1.339-.874-2.206s.29-1.605.874-2.212c.584-.607 1.304-.913 2.164-.913.528 0 1.01.132 1.451.396.441.264.781.615 1.014 1.052l.038-1.36h.633v6.072h.004zm-4.648-1.421c.434.43.958.644 1.576.644.614 0 1.142-.214 1.579-.644.438-.43.656-.969.656-1.617 0-.649-.218-1.188-.656-1.625a2.166 2.166 0 00-1.579-.652 2.15 2.15 0 00-1.568.652c-.438.434-.656.973-.656 1.625-.004.648.215 1.187.648 1.617zm16.413 1.421h-.875v-2.394c-.414.698-1.104 1.044-2.077 1.044-1.832 0-2.748-1.017-2.748-3.05v-1.677h.886v1.629c0 .769.147 1.338.445 1.707.294.37.807.555 1.538.555.697 0 1.199-.189 1.5-.573.306-.381.456-.871.456-1.47V30.43h.875v6.077zm8.071 0h-.633l-.038-1.372a2.71 2.71 0 01-1.01 1.052 2.772 2.772 0 01-1.459.395c-.86 0-1.58-.301-2.164-.904-.584-.604-.875-1.339-.875-2.206s.291-1.605.875-2.212c.584-.607 1.304-.913 2.164-.913.528 0 1.01.132 1.451.396.441.264.78.615 1.014 1.052l.038-1.36h.633v6.072h.004zm-4.648-1.421c.433.43.957.644 1.576.644.618 0 1.142-.214 1.579-.644.437-.43.656-.969.656-1.617 0-.649-.219-1.188-.656-1.625a2.166 2.166 0 00-1.579-.652c-.607 0-1.131.218-1.569.652-.437.434-.655.973-.655 1.625 0 .648.214 1.187.648 1.617zM155 36.508h-.875v-4.595l-4.048 4.595h-.535v-6.077h.885v4.596l4.049-4.596H155v6.077zm-1.5-7.238c-.336.306-.747.457-1.233.457-.486 0-.897-.151-1.233-.457a1.462 1.462 0 01-.505-1.123h.645c0 .268.105.49.316.667.212.177.472.268.777.268.309 0 .569-.09.784-.268.215-.177.32-.4.32-.667h.634c0 .445-.17.818-.505 1.123z" fill-opacity=".67"/></symbol><symbol viewBox="0 0 19 17" id="telegram" xmlns="http://www.w3.org/2000/svg"><path d="M18.707.887c-.232-.283-.58-.44-.98-.44a1.92 1.92 0 00-.683.136L.962 6.723c-.853.325-.968.814-.96 1.077.007.262.15.743 1.02 1.02l.015.005 3.337.955 1.804 5.159c.246.703.798 1.14 1.44 1.14.406 0 .805-.17 1.154-.491l2.064-1.9 2.993 2.41.029.024a.559.559 0 01.008.006c.333.258.696.394 1.05.394.694 0 1.246-.513 1.406-1.306l2.635-13.013c.106-.522.018-.99-.25-1.316zM5.489 9.6l6.436-3.289-4.008 4.259a.556.556 0 00-.135.248l-.773 3.13L5.49 9.6zm2.528 5.17a1.066 1.066 0 01-.08.067l.717-2.904 1.304 1.05-1.941 1.787zm9.848-12.787L15.23 14.995c-.025.124-.106.414-.315.414-.102 0-.232-.056-.364-.158l-3.392-2.73-.001-.002-2.018-1.625 5.795-6.158a.557.557 0 00-.658-.877l-9.532 4.87-3.382-.968 16.079-6.138a.816.816 0 01.286-.062c.034 0 .094.004.117.031.03.036.067.16.02.39z"/></symbol><symbol viewBox="0 0 31 21" id="youtube" xmlns="http://www.w3.org/2000/svg"><path d="M29.887 3.449C29.732 2.152 28.51.909 27.232.743a95.143 95.143 0 00-23.463 0c-1.28.166-2.5 1.41-2.656 2.706a60.462 60.462 0 000 14.103c.155 1.296 1.377 2.54 2.656 2.706 7.79.967 15.67.967 23.463 0 1.278-.165 2.5-1.41 2.655-2.706.55-4.749.55-9.354 0-14.103zm-2.45 13.82c-.027.171-.345.503-.527.543-3.76.466-7.604.705-11.41.705s-7.65-.239-11.428-.707c-.166-.038-.482-.37-.51-.553a57.958 57.958 0 01.002-13.524c.026-.173.344-.505.528-.545a92.941 92.941 0 0111.41-.704c3.804 0 7.649.238 11.427.707.162.037.48.369.51.553a58.04 58.04 0 01-.002 13.524z"/><path d="M13.033 5.567v9.867l7.4-4.933-7.4-4.934z"/></symbol></svg>