<svg width="115" height="115" viewBox="0 0 115 115" fill="none" xmlns="http://www.w3.org/2000/svg">
<g clip-path="url(#clip0)">
<path d="M112.46 108.252L112.313 108.215L109.283 96.1008C109.052 95.1732 108.436 94.3877 107.591 93.9405C106.569 93.399 87.6121 83.53 70.0845 85.3969C83.4933 78.4195 103.301 82.2024 103.558 82.2533C105.382 82.6172 107.157 81.4349 107.522 79.6102C107.887 77.7857 106.703 76.0109 104.879 75.6459C104.492 75.5686 95.2995 73.7643 84.61 74.6949C72.3815 75.7582 63.1309 80.0104 57.5 87.0882C51.8691 80.0104 42.6185 75.7584 30.39 74.6949C19.6997 73.765 10.5074 75.5688 10.1213 75.6459C8.29776 76.0106 7.11588 77.7837 7.47907 79.6075C7.84226 81.4313 9.61552 82.6156 11.4402 82.2538C11.6978 82.2026 31.5066 78.4195 44.9155 85.3972C27.3882 83.5305 8.4314 93.3992 7.40877 93.9407C6.5638 94.3879 5.9486 95.1734 5.71681 96.101L2.68732 108.215L2.53998 108.252C0.736612 108.711 -0.353627 110.544 0.10457 112.348C0.562767 114.151 2.39533 115.241 4.19982 114.783L41.8092 105.223C44.8363 110.975 50.8043 114.662 57.4998 114.662C64.1953 114.662 70.1635 110.975 73.1903 105.223L110.8 114.783C111.078 114.854 111.357 114.888 111.632 114.888C113.136 114.888 114.508 113.872 114.895 112.348C115.354 110.544 114.264 108.711 112.46 108.252ZM72.0424 97.9785C70.3093 97.5383 68.5358 98.527 67.999 100.231C66.5494 104.832 62.3304 107.924 57.5002 107.924C52.6701 107.924 48.4511 104.832 47.0015 100.231C46.4647 98.527 44.6916 97.5376 42.9581 97.9785L10.1045 106.329L11.876 99.2462C17.6966 96.4703 41.4514 86.2031 55.5682 96.0844C56.728 96.8963 58.2722 96.8963 59.4321 96.0844C73.5165 86.2255 97.3025 96.4797 103.125 99.2484L104.896 106.329L72.0424 97.9785Z" fill="#5D3DE3"/>
<path d="M96.1328 14.9368H99.0526V17.8567C99.0526 19.7174 100.561 21.2258 102.422 21.2258C104.282 21.2258 105.791 19.7174 105.791 17.8567V14.9368H108.711C110.571 14.9368 112.08 13.4284 112.08 11.5677C112.08 9.7071 110.571 8.19865 108.711 8.19865H105.791V5.27876C105.791 3.41812 104.282 1.90967 102.422 1.90967C100.561 1.90967 99.0526 3.41812 99.0526 5.27876V8.19865H96.1328C94.2721 8.19865 92.7637 9.7071 92.7637 11.5677C92.7637 13.4284 94.2721 14.9368 96.1328 14.9368Z" fill="#5D3DE3"/>
<path d="M95.7359 50.6839L74.1736 59.6681C72.4563 60.3837 71.6439 62.3562 72.3597 64.0738C72.8988 65.3677 74.1514 66.1478 75.471 66.1478C75.9029 66.1478 76.342 66.0642 76.7656 65.8877L98.3278 56.9035C100.045 56.1879 100.858 54.2154 100.142 52.4978C99.4259 50.7805 97.4534 49.9676 95.7359 50.6839Z" fill="#5D3DE3"/>
<path d="M63.9077 62.4617C64.1703 62.5241 64.4326 62.5542 64.6909 62.5542C66.2151 62.5542 67.5969 61.5123 67.9655 59.9647L76.9497 22.2309C77.3807 20.4205 76.2626 18.6042 74.4528 18.1731C72.6415 17.7423 70.826 18.8602 70.395 20.6701L61.4108 58.4039C60.9797 60.2141 62.0976 62.0307 63.9077 62.4617Z" fill="#5D3DE3"/>
<path d="M46.9775 59.6607C47.2176 61.3412 48.6589 62.5539 50.3087 62.5539C50.4672 62.5539 50.6278 62.5427 50.7893 62.5198C52.6313 62.2565 53.9111 60.55 53.6483 58.708L50.0546 33.5521C49.7914 31.7101 48.0826 30.4296 46.2428 30.693C44.4008 30.9563 43.121 32.6628 43.3838 34.5048L46.9775 59.6607Z" fill="#5D3DE3"/>
<path d="M11.9927 38.8333C10.6769 40.1488 10.6769 42.2821 11.9927 43.5979L33.5549 65.1601C34.2127 65.818 35.075 66.147 35.937 66.147C36.7991 66.147 37.6616 65.818 38.3192 65.1601C39.635 63.8446 39.635 61.7113 38.3192 60.3955L16.757 38.8333C15.4417 37.5178 13.3084 37.5178 11.9927 38.8333Z" fill="#5D3DE3"/>
<path d="M10.7831 21.2258C16.604 21.2258 21.3396 16.4902 21.3396 10.6693C21.3396 4.84839 16.604 0.112793 10.7831 0.112793C4.96216 0.112793 0.226562 4.84839 0.226562 10.6693C0.226562 16.4902 4.96216 21.2258 10.7831 21.2258ZM10.7831 6.85098C12.8885 6.85098 14.6014 8.56383 14.6014 10.6693C14.6014 12.7747 12.8885 14.4876 10.7831 14.4876C8.6776 14.4876 6.96475 12.7747 6.96475 10.6693C6.96475 8.56383 8.6776 6.85098 10.7831 6.85098Z" fill="#5D3DE3"/>
<path d="M5.39258 64.3506C7.2533 64.3506 8.76172 62.8422 8.76172 60.9814C8.76172 59.1207 7.2533 57.6123 5.39258 57.6123C3.53185 57.6123 2.02344 59.1207 2.02344 60.9814C2.02344 62.8422 3.53185 64.3506 5.39258 64.3506Z" fill="#5D3DE3"/>
<path d="M88.0469 37.3972C89.9076 37.3972 91.416 35.8888 91.416 34.0281C91.416 32.1674 89.9076 30.6589 88.0469 30.6589C86.1862 30.6589 84.6777 32.1674 84.6777 34.0281C84.6777 35.8888 86.1862 37.3972 88.0469 37.3972Z" fill="#5D3DE3"/>
<path d="M57.5 17.6321C59.3607 17.6321 60.8691 16.1237 60.8691 14.2629C60.8691 12.4022 59.3607 10.8938 57.5 10.8938C55.6393 10.8938 54.1309 12.4022 54.1309 14.2629C54.1309 16.1237 55.6393 17.6321 57.5 17.6321Z" fill="#5D3DE3"/>
</g>
<defs>
<clipPath id="clip0">
<rect width="115" height="115" fill="white"/>
</clipPath>
</defs>
</svg>
