<svg width="52" height="52" viewBox="0 0 52 52" fill="none" xmlns="http://www.w3.org/2000/svg">
<path d="M32.0938 33.6172H19.9062C19.0649 33.6172 18.3828 34.2993 18.3828 35.1406C18.3828 35.982 19.0649 36.6641 19.9062 36.6641H32.0938C32.9351 36.6641 33.6172 35.982 33.6172 35.1406C33.6172 34.2993 32.9351 33.6172 32.0938 33.6172Z" fill="#5D3DE3"/>
<path d="M32.5507 19.9521L28.968 19.4314L27.3659 16.1851C27.1092 15.6651 26.5796 15.3359 25.9998 15.3359C25.42 15.3359 24.8903 15.6651 24.6337 16.1852L23.0315 19.4315L19.4489 19.9522C18.8751 20.0355 18.3983 20.4375 18.2192 20.989C18.0399 21.5405 18.1894 22.1459 18.6046 22.5506L21.197 25.0776L20.585 28.6457C20.487 29.2172 20.7219 29.7949 21.191 30.1357C21.6602 30.4766 22.2821 30.5216 22.7954 30.2517L25.9998 28.567L29.2042 30.2516C29.7194 30.5226 30.3414 30.475 30.8086 30.1356C31.2777 29.7948 31.5127 29.2172 31.4146 28.6456L30.8026 25.0775L33.395 22.5505C33.8101 22.1458 33.9596 21.5404 33.7804 20.9889C33.6012 20.4374 33.1245 20.0354 32.5507 19.9521ZM28.1023 23.4547C27.7433 23.8047 27.5795 24.309 27.6642 24.8032L27.8898 26.1182L26.7088 25.4974C26.4869 25.3807 26.2433 25.3224 25.9999 25.3224C25.7564 25.3224 25.5129 25.3807 25.291 25.4974L24.11 26.1182L24.3356 24.8032C24.4203 24.309 24.2565 23.8047 23.8974 23.4547L22.9419 22.5234L24.2623 22.3316C24.7586 22.2595 25.1875 21.9479 25.4094 21.4981L25.9998 20.3016L26.5903 21.4981C26.8122 21.9478 27.2412 22.2595 27.7373 22.3316L29.0577 22.5234L28.1023 23.4547Z" fill="#5D3DE3"/>
<path d="M51.3416 21.8651L30.1349 0.65843C29.8906 0.413766 29.5678 0.264266 29.2473 0.224047C28.0286 0.0711953 26.9967 0 26 0C11.6839 0 0 11.6847 0 26C0 40.3161 11.6847 52 26 52C40.3161 52 52 40.3153 52 26C52 25.0033 51.9288 23.9714 51.776 22.7527C51.7357 22.4322 51.5867 22.11 51.3416 21.8651ZM42.8594 26C42.8594 35.2963 35.2963 42.8594 26 42.8594C16.7037 42.8594 9.14062 35.2963 9.14062 26C9.14062 16.7037 16.7037 9.14062 26 9.14062C26.9849 9.14062 27.9667 9.22746 28.9295 9.39687C31.2437 15.6936 36.3036 20.7552 42.603 23.0704C42.7725 24.0333 42.8594 25.0151 42.8594 26ZM31.0752 5.90759L46.0924 20.9248C38.672 19.2278 32.7722 13.328 31.0752 5.90759ZM26 48.9531C13.3436 48.9531 3.04688 38.6564 3.04688 26C3.04688 13.3436 13.3436 3.04688 26 3.04688C26.5054 3.04688 27.0258 3.06851 27.5879 3.1136C27.6598 4.15624 27.8025 5.18588 28.013 6.19704C27.3453 6.1296 26.6732 6.09375 26 6.09375C15.0517 6.09375 6.09375 15.053 6.09375 26C6.09375 31.29 8.17182 36.2815 11.9452 40.0548C15.7185 43.8282 20.71 45.9062 26 45.9062C36.9483 45.9062 45.9062 36.947 45.9062 26C45.9062 25.3268 45.8704 24.6548 45.803 23.987C46.8141 24.1975 47.8438 24.3402 48.8864 24.4121C48.9315 24.9742 48.9531 25.4946 48.9531 26C48.9531 38.6564 38.6564 48.9531 26 48.9531Z" fill="#5D3DE3"/>
</svg>
