<svg width="129" height="129" viewBox="0 0 129 129" fill="none" xmlns="http://www.w3.org/2000/svg">
<g clip-path="url(#clip0)">
<path d="M64.5 -0.5H36.55C35.0865 -0.5 33.9 0.686528 33.9 2.15V16.7H2.15C0.686528 16.7 -0.5 17.8865 -0.5 19.35V126.85C-0.5 128.313 0.686531 129.5 2.15 129.5H64.5C65.9635 129.5 67.15 128.313 67.15 126.85V2.15C67.15 0.686528 65.9635 -0.5 64.5 -0.5ZM61.85 111.3H39.2V108H61.85V111.3ZM4.8 32.75H33.9V96.25H4.8V32.75ZM61.85 23.15H39.2V17.7H61.85V23.15ZM4.8 101.55H33.9V107H4.8V101.55ZM39.2 102.7V28.45H61.85V102.7H39.2ZM61.85 4.8V12.4H39.2V4.8H61.85ZM33.9 22V27.45H4.8V22H33.9ZM4.8 112.3H33.9V124.2H4.8V112.3ZM39.2 124.2V116.6H61.85V124.2H39.2Z" fill="#5D3DE3" stroke="#5D3DE3"/>
<path d="M129.414 117.582L129.414 117.583C129.778 118.991 128.938 120.43 127.532 120.805L127.532 120.805L95.2837 129.405C94.6028 129.589 93.8767 129.493 93.2671 129.14L93.2668 129.14C92.6563 128.785 92.2122 128.202 92.0346 127.518L129.414 117.582ZM129.414 117.582L103.614 18.6828L129.414 117.582ZM66.2346 28.618L92.0344 127.517L103.614 18.6821C103.436 17.9989 102.993 17.4155 102.383 17.0599L102.383 17.0597C101.773 16.7051 101.047 16.6081 100.366 16.7905L68.116 25.3904C66.7083 25.7656 65.867 27.2072 66.2345 28.6178L66.2346 28.618ZM75.4543 42.9635L102.584 35.7307L103.342 38.6329L76.2148 45.8768L75.4543 42.9635ZM77.5611 51.005L104.68 43.7723L116.898 90.6369L89.7784 97.8726L77.5611 51.005ZM91.1233 103.003L118.245 95.7671L120.194 103.237L93.0647 110.469L91.1233 103.003ZM72.0297 29.8315L99.1574 22.5967L101.246 30.6048L74.1164 37.8355L72.0297 29.8315ZM96.4908 123.603L94.4022 115.595L121.532 108.36L123.618 116.365L96.4908 123.603Z" fill="#5D3DE3" stroke="#5D3DE3"/>
<path d="M27.9496 38.2H10.7496C9.28614 38.2 8.09961 39.3865 8.09961 40.85V58.05C8.09961 59.5134 9.28614 60.7 10.7496 60.7H27.9496C29.4131 60.7 30.5996 59.5134 30.5996 58.05V40.85C30.5996 39.3865 29.4131 38.2 27.9496 38.2ZM25.2996 55.4H13.3996V43.5H25.2996V55.4Z" fill="#5D3DE3" stroke="#5D3DE3"/>
</g>
<defs>
<clipPath id="clip0">
<rect width="129" height="129" fill="white"/>
</clipPath>
</defs>
</svg>
