<svg width="58" height="58" viewBox="0 0 58 58" fill="none" xmlns="http://www.w3.org/2000/svg">
<path d="M28.874 37.8195L28.8755 37.8193C29.2299 37.7826 29.57 37.9038 29.8175 38.1513L38.8795 47.2133C38.8797 47.2134 38.8798 47.2136 38.8799 47.2137L38.88 47.2138L38.7032 47.3906C38.8736 47.56 38.9688 47.7911 38.9688 48.0313C38.9688 48.2714 38.8736 48.5025 38.7032 48.672L28.874 37.8195ZM28.874 37.8195C28.5257 37.8576 28.2135 38.052 28.0251 38.3479L28.0251 38.3479L22.455 47.1012L10.8997 35.5451L19.6521 29.9749L19.6522 29.9749C19.9481 29.7864 20.1424 29.4742 20.1806 29.1252C20.1806 29.1251 20.1806 29.1251 20.1806 29.1251L19.9321 29.0979L28.874 37.8195ZM26.3819 45.2366L32.8015 51.6553C30.5567 53.8337 27.606 55.0313 24.4688 55.0313C21.2698 55.0313 18.2649 53.7862 16.0045 51.5248L16.0044 51.5248L6.47434 41.9965C6.47433 41.9965 6.47431 41.9965 6.47429 41.9965C4.21297 39.7342 2.96875 36.7293 2.96875 33.5313C2.96875 30.3951 4.16533 27.4446 6.34431 25.1981L12.7643 31.6181L8.44163 34.3689L8.44157 34.3689C8.1456 34.5574 7.95131 34.8696 7.91317 35.2187C7.87509 35.5663 7.99618 35.9144 8.2452 36.1624C8.24527 36.1625 8.24535 36.1625 8.24542 36.1626L21.8388 49.7559L21.8392 49.7563C22.0864 50.0024 22.4272 50.127 22.7823 50.0878M26.3819 45.2366L23.6311 49.5593L23.6311 49.5594C23.4427 49.8552 23.1305 50.0496 22.7823 50.0878M26.3819 45.2366L26.2009 45.0555L23.4202 49.4251C23.2725 49.6571 23.0278 49.8093 22.755 49.8392M26.3819 45.2366L22.0155 49.5792C22.2104 49.7731 22.4768 49.8701 22.755 49.8392M22.7823 50.0878L22.755 49.8392M22.7823 50.0878C22.7824 50.0877 22.7825 50.0877 22.7825 50.0877L22.755 49.8392M14.7624 30.3462L7.97874 23.5625L9.96874 21.5725L17.1941 28.7987L14.7624 30.3462ZM34.4375 50.0213L27.6547 43.2385L29.2022 40.806L36.4275 48.0313L34.4375 50.0213Z" fill="#5838E1" stroke="#5838E1" stroke-width="0.5"/>
<path d="M57.0308 1.02211L57.0315 1.02279C57.3322 1.34433 57.4234 1.80695 57.2698 2.21811L57.2697 2.21839L54.7794 8.85961C55.279 10.085 55.5311 11.3705 55.5311 12.6875C55.5311 18.322 50.9468 22.9063 45.3123 22.9063C41.249 22.9063 37.5712 20.5002 35.9446 16.7751L35.8446 16.546L36.0737 16.4459L37.7339 15.7209L37.9629 15.6209L38.063 15.8499C39.3228 18.7314 42.1683 20.5938 45.3123 20.5938C49.672 20.5938 53.2186 17.0463 53.2186 12.6875C53.2186 11.5452 52.972 10.4311 52.4832 9.37704L52.483 9.37651C52.3539 9.09631 52.3408 8.7751 52.4497 8.48536L57.0308 1.02211ZM57.0308 1.02211C56.73 0.702873 56.2779 0.578778 55.855 0.704733L55.8545 0.704881L48.378 2.94817C47.3757 2.62989 46.3465 2.46877 45.3123 2.46877C40.4712 2.46877 36.2606 5.90631 35.298 10.6449L35.2482 10.8899L35.4932 10.9397L37.2704 11.3004L37.5154 11.3501L37.5651 11.1051C38.3081 7.44194 41.5667 4.78127 45.3123 4.78127C46.2063 4.78127 47.0994 4.93826 47.9685 5.24965L47.9688 5.24976C48.2002 5.3323 48.4532 5.3374 48.6875 5.26996L48.6875 5.26997L48.6902 5.26917L54.2854 3.59068M57.0308 1.02211L54.2854 3.59068M54.2854 3.59068L52.4498 8.48516L54.2854 3.59068Z" fill="#5838E1" stroke="#5838E1" stroke-width="0.5"/>
<path d="M31.9657 30.0745L31.9655 30.0746L26.3703 31.7531L28.2059 26.8586C28.3149 26.5688 28.3019 26.2475 28.1727 25.9673L28.1724 25.9667C27.6837 24.9127 27.4371 23.7985 27.4371 22.6562C27.4371 18.2975 30.9837 14.75 35.3434 14.75C38.4874 14.75 41.3329 16.6124 42.5927 19.4939L42.6928 19.723L42.9219 19.6228L44.5821 18.8969L44.8111 18.7968L44.7111 18.5678C43.0844 14.8435 39.4066 12.4375 35.3434 12.4375C29.7089 12.4375 25.1246 17.0218 25.1246 22.6562C25.1246 23.9733 25.3767 25.2588 25.8763 26.4842L23.386 33.1254L23.3859 33.1257C23.2323 33.5368 23.3235 33.9994 23.6242 34.321L23.6243 34.3211C23.8462 34.558 24.1536 34.6875 24.4684 34.6875C24.5799 34.6875 24.6907 34.6712 24.7991 34.6392L24.8003 34.6389L32.2768 32.3956C33.2799 32.7139 34.3091 32.875 35.3434 32.875C40.1845 32.875 44.3951 29.4375 45.3577 24.6989L45.4075 24.4538L45.1625 24.4041L43.3853 24.0434L43.1403 23.9937L43.0906 24.2387C42.3476 27.9018 39.089 30.5625 35.3434 30.5625C34.4497 30.5625 33.5567 30.4056 32.6879 30.0944C32.4551 30.0096 32.2007 30.0043 31.9657 30.0745Z" fill="#5838E1" stroke="#5838E1" stroke-width="0.5"/>
<path d="M30.8125 21.5H30.5625V21.75V23.5625V23.8125H30.8125H32.625H32.875V23.5625V21.75V21.5H32.625H30.8125Z" fill="#5838E1" stroke="#5838E1" stroke-width="0.5"/>
<path d="M34.4375 21.5H34.1875V21.75V23.5625V23.8125H34.4375H36.25H36.5V23.5625V21.75V21.5H36.25H34.4375Z" fill="#5838E1" stroke="#5838E1" stroke-width="0.5"/>
<path d="M38.0625 21.5H37.8125V21.75V23.5625V23.8125H38.0625H39.875H40.125V23.5625V21.75V21.5H39.875H38.0625Z" fill="#5838E1" stroke="#5838E1" stroke-width="0.5"/>
<path d="M40.7812 11.5312H40.5312V11.7812V13.5938V13.8438H40.7812H42.5938H42.8438V13.5938V11.7812V11.5312H42.5938H40.7812Z" fill="#5838E1" stroke="#5838E1" stroke-width="0.5"/>
<path d="M44.4062 11.5312H44.1562V11.7812V13.5938V13.8438H44.4062H46.2188H46.4688V13.5938V11.7812V11.5312H46.2188H44.4062Z" fill="#5838E1" stroke="#5838E1" stroke-width="0.5"/>
<path d="M48.0312 11.5312H47.7812V11.7812V13.5938V13.8438H48.0312H49.8438H50.0938V13.5938V11.7812V11.5312H49.8438H48.0312Z" fill="#5838E1" stroke="#5838E1" stroke-width="0.5"/>
</svg>
