<svg width="112" height="112" viewBox="0 0 112 112" fill="none" xmlns="http://www.w3.org/2000/svg">
<path d="M56.0006 69.3438C54.1914 69.3438 52.7194 67.8718 52.7194 66.0625C52.7194 64.7408 53.5058 63.5539 54.7229 63.0383C56.1923 62.4162 57.9506 62.9471 59.5483 64.4949C60.8499 65.7558 62.9271 65.723 64.188 64.4217C65.4491 63.1201 65.4161 61.0428 64.1147 59.782C62.6334 58.3468 60.9866 57.3324 59.2819 56.7599V52.9375C59.2819 51.1254 57.8128 49.6562 56.0006 49.6562C54.1885 49.6562 52.7194 51.1254 52.7194 52.9375V56.7812C52.5332 56.8474 52.3477 56.9174 52.1638 56.9953C48.5148 58.5408 46.1569 62.0998 46.1569 66.0625C46.1569 71.4903 50.5728 75.9062 56.0006 75.9062C57.8099 75.9062 59.2819 77.3782 59.2819 79.1875C59.2819 80.5626 58.4146 81.8024 57.1237 82.2725C55.4382 82.8861 53.4763 82.0538 51.7411 79.9877C50.5756 78.5999 48.5061 78.4199 47.1183 79.5854C45.7306 80.7509 45.5505 82.8207 46.716 84.2082C48.4899 86.3203 50.5546 87.7686 52.7196 88.4975V92.3125C52.7196 94.1246 54.1887 95.5938 56.0009 95.5938C57.813 95.5938 59.2821 94.1246 59.2821 92.3125V88.4684C59.3114 88.4581 59.3407 88.4492 59.3698 88.4387C63.2424 87.0282 65.8444 83.3103 65.8444 79.1875C65.8444 73.7597 61.4285 69.3438 56.0006 69.3438Z" fill="#5D3DE3"/>
<path d="M86.3885 49.2754C82.4887 44.4776 78.0305 40.6551 73.1367 37.9063C73.9382 36.958 74.5706 35.8461 74.979 34.6069C76.5815 29.7268 74.2407 23.9299 68.266 22.0415L76.6417 7.43662C77.6985 5.59344 76.7491 3.24581 74.7114 2.65344C68.6556 0.892719 62.3604 0 56 0C49.6396 0 43.3444 0.892719 37.2886 2.65344C35.2485 3.24647 34.3028 5.59562 35.3583 7.43662L43.734 22.0417C37.7829 23.9205 35.4126 29.7089 37.0219 34.6095C37.429 35.8455 38.0612 36.9567 38.8651 37.9054C33.9706 40.6543 29.512 44.4771 25.6117 49.2754C17.8152 58.8669 13.3438 70.9653 13.3438 82.4688C13.3438 106.332 32.3853 112 56 112C79.6313 112 98.6562 106.323 98.6562 82.4688C98.6562 70.9653 94.1848 58.8669 86.3885 49.2754ZM43.2023 7.92269C47.3885 7.01903 51.6771 6.5625 56 6.5625C60.3229 6.5625 64.6115 7.01903 68.7977 7.92269L61.5718 20.5231C57.8708 20.0064 54.1303 20.0067 50.4284 20.5233L43.2023 7.92269ZM45.346 28.4147C50.993 26.5624 56.901 26.2113 62.6448 27.3595C62.6515 27.3608 62.6585 27.3621 62.6653 27.3634C64.0041 27.6321 65.3338 27.9816 66.6494 28.4132C68.369 28.98 69.3088 30.84 68.745 32.5566C68.3353 33.7997 67.2536 34.6559 65.9811 34.7946C62.7095 33.7702 59.3725 33.25 56 33.25C52.6343 33.25 49.3038 33.768 46.0386 34.7882C44.7464 34.6553 43.6621 33.7929 43.2558 32.5596C42.6912 30.84 43.631 28.9798 45.346 28.4147ZM56 105.481C30.3634 105.481 19.9062 98.7831 19.9062 82.4688C19.9062 72.5939 23.9428 61.7328 30.7038 53.4148C37.8339 44.6432 46.8175 39.8125 56 39.8125C66.1076 39.8125 74.9483 45.6054 81.2962 53.4148C88.0572 61.7328 92.0938 72.5939 92.0938 82.4688C92.0938 98.7831 81.6366 105.481 56 105.481Z" fill="#5D3DE3"/>
</svg>
