<svg width="124" height="86" viewBox="0 0 124 86" fill="none" xmlns="http://www.w3.org/2000/svg">
<path d="M104.803 31.5847H99.8695C100.374 30.2977 100.653 28.8991 100.653 27.4353C100.653 21.1411 95.5327 16.02 89.2385 16.02C86.2329 16.02 83.4967 17.1895 81.456 19.0948C79.4153 17.1893 76.6793 16.02 73.6738 16.02C67.3796 16.02 62.2585 21.1411 62.2585 27.4353C62.2585 28.8988 62.5385 30.2975 63.0427 31.5847H58.1094C56.1031 31.5847 54.4766 33.2112 54.4766 35.2175V50.7824C54.4766 52.7887 56.1031 54.4152 58.1094 54.4152H58.3678V66.3468C58.3678 68.3531 59.9943 69.9796 62.0006 69.9796H100.912C102.918 69.9796 104.545 68.3531 104.545 66.3468V54.415H104.803C106.809 54.415 108.436 52.7884 108.436 50.7822V35.2173C108.436 33.2112 106.81 31.5847 104.803 31.5847ZM77.8234 62.714H65.6334V54.415H77.8234V62.714ZM77.8234 47.1496H61.7424V38.8503H77.8234V47.1496ZM77.8234 31.5847H73.674C71.3861 31.5847 69.5244 29.7232 69.5244 27.4353C69.5244 25.1473 71.3861 23.2859 73.674 23.2859C75.962 23.2859 77.8234 25.1476 77.8234 27.4355V31.5847ZM85.0891 27.4353C85.0891 25.1473 86.9508 23.2856 89.2387 23.2856C91.5266 23.2856 93.3881 25.1473 93.3881 27.4353C93.3881 29.7232 91.5266 31.5847 89.2387 31.5847H85.0891V27.4353ZM97.2793 62.714H85.0891V54.415H97.2793V62.714ZM101.17 47.1496H85.0891V38.8503H101.17V47.1496Z" fill="#5D3DE3"/>
<path d="M108.694 0.455566H15.3063C6.86626 0.455566 0 7.32207 0 15.7618V70.238C0 78.678 6.8665 85.5443 15.3063 85.5443H108.694C117.134 85.5443 124 78.6778 124 70.238V15.7618C124 7.32207 117.133 0.455566 108.694 0.455566ZM116.734 70.238C116.734 74.6717 113.127 78.2786 108.694 78.2786H15.3063C10.8725 78.2786 7.26562 74.6715 7.26562 70.238V15.7618C7.26562 11.3281 10.8728 7.72119 15.3063 7.72119H108.694C113.127 7.72119 116.734 11.3283 116.734 15.7618V70.238Z" fill="#5D3DE3"/>
<path d="M30.8707 62.7139H19.1973C17.191 62.7139 15.5645 64.3404 15.5645 66.3467C15.5645 68.353 17.191 69.9795 19.1973 69.9795H30.8707C32.877 69.9795 34.5035 68.353 34.5035 66.3467C34.5035 64.3404 32.877 62.7139 30.8707 62.7139Z" fill="#5D3DE3"/>
<path d="M19.1973 23.2859H30.8707C32.877 23.2859 34.5035 21.6594 34.5035 19.6531C34.5035 17.6468 32.877 16.0203 30.8707 16.0203H19.1973C17.191 16.0203 15.5645 17.6468 15.5645 19.6531C15.5645 21.6594 17.1907 23.2859 19.1973 23.2859Z" fill="#5D3DE3"/>
<path d="M42.5441 47.1494H19.1973C17.191 47.1494 15.5645 48.7759 15.5645 50.7822C15.5645 52.7885 17.191 54.415 19.1973 54.415H42.5441C44.5504 54.415 46.177 52.7885 46.177 50.7822C46.177 48.7759 44.5504 47.1494 42.5441 47.1494Z" fill="#5D3DE3"/>
</svg>
