<svg width="92" height="92" viewBox="0 0 92 92" fill="none" xmlns="http://www.w3.org/2000/svg">
<path d="M69.3594 41.3281C71.3441 41.3281 72.9531 39.7191 72.9531 37.7344C72.9531 35.7496 71.3441 34.1406 69.3594 34.1406C67.3746 34.1406 65.7656 35.7496 65.7656 37.7344C65.7656 39.7191 67.3746 41.3281 69.3594 41.3281Z" fill="#5D3DE3"/>
<path d="M77.625 7.1875H72.9531V3.59375C72.9531 1.60892 71.3442 0 69.3594 0C67.3745 0 65.7656 1.60892 65.7656 3.59375V7.1875H49.4141V3.59375C49.4141 1.60892 47.8051 0 45.8203 0C43.8355 0 42.2266 1.60892 42.2266 3.59375V7.1875H26.0547V3.59375C26.0547 1.60892 24.4458 0 22.4609 0C20.4761 0 18.8672 1.60892 18.8672 3.59375V7.1875H14.375C6.44863 7.1875 0 13.6361 0 21.5625V77.625C0 85.5514 6.44863 92 14.375 92H41.8672C43.852 92 45.4609 90.3911 45.4609 88.4062C45.4609 86.4214 43.852 84.8125 41.8672 84.8125H14.375C10.4118 84.8125 7.1875 81.5882 7.1875 77.625V21.5625C7.1875 17.5993 10.4118 14.375 14.375 14.375H18.8672V17.9688C18.8672 19.9536 20.4761 21.5625 22.4609 21.5625C24.4458 21.5625 26.0547 19.9536 26.0547 17.9688V14.375H42.2266V17.9688C42.2266 19.9536 43.8355 21.5625 45.8203 21.5625C47.8051 21.5625 49.4141 19.9536 49.4141 17.9688V14.375H65.7656V17.9688C65.7656 19.9536 67.3745 21.5625 69.3594 21.5625C71.3442 21.5625 72.9531 19.9536 72.9531 17.9688V14.375H77.625C81.5882 14.375 84.8125 17.5993 84.8125 21.5625V42.0469C84.8125 44.0317 86.4214 45.6406 88.4062 45.6406C90.3911 45.6406 92 44.0317 92 42.0469V21.5625C92 13.6361 85.5514 7.1875 77.625 7.1875Z" fill="#5D3DE3"/>
<path d="M70.2578 48.5156C58.2691 48.5156 48.5156 58.2691 48.5156 70.2578C48.5156 82.2466 58.2691 92 70.2578 92C82.2466 92 92 82.2466 92 70.2578C92 58.2691 82.2466 48.5156 70.2578 48.5156ZM70.2578 84.8125C62.2324 84.8125 55.7031 78.2834 55.7031 70.2578C55.7031 62.2323 62.2324 55.7031 70.2578 55.7031C78.2832 55.7031 84.8125 62.2323 84.8125 70.2578C84.8125 78.2834 78.2832 84.8125 70.2578 84.8125Z" fill="#5D3DE3"/>
<path d="M75.4688 66.6641H73.8516V62.8906C73.8516 60.9058 72.2426 59.2969 70.2578 59.2969C68.273 59.2969 66.6641 60.9058 66.6641 62.8906V70.2578C66.6641 72.2426 68.273 73.8516 70.2578 73.8516H75.4688C77.4536 73.8516 79.0625 72.2426 79.0625 70.2578C79.0625 68.273 77.4536 66.6641 75.4688 66.6641Z" fill="#5D3DE3"/>
<path d="M53.7266 41.3281C55.7113 41.3281 57.3203 39.7191 57.3203 37.7344C57.3203 35.7496 55.7113 34.1406 53.7266 34.1406C51.7418 34.1406 50.1328 35.7496 50.1328 37.7344C50.1328 39.7191 51.7418 41.3281 53.7266 41.3281Z" fill="#5D3DE3"/>
<path d="M38.0938 56.9609C40.0785 56.9609 41.6875 55.352 41.6875 53.3672C41.6875 51.3824 40.0785 49.7734 38.0938 49.7734C36.109 49.7734 34.5 51.3824 34.5 53.3672C34.5 55.352 36.109 56.9609 38.0938 56.9609Z" fill="#5D3DE3"/>
<path d="M22.4609 41.3281C24.4457 41.3281 26.0547 39.7191 26.0547 37.7344C26.0547 35.7496 24.4457 34.1406 22.4609 34.1406C20.4762 34.1406 18.8672 35.7496 18.8672 37.7344C18.8672 39.7191 20.4762 41.3281 22.4609 41.3281Z" fill="#5D3DE3"/>
<path d="M22.4609 56.9609C24.4457 56.9609 26.0547 55.352 26.0547 53.3672C26.0547 51.3824 24.4457 49.7734 22.4609 49.7734C20.4762 49.7734 18.8672 51.3824 18.8672 53.3672C18.8672 55.352 20.4762 56.9609 22.4609 56.9609Z" fill="#5D3DE3"/>
<path d="M22.4609 72.5938C24.4457 72.5938 26.0547 70.9848 26.0547 69C26.0547 67.0152 24.4457 65.4062 22.4609 65.4062C20.4762 65.4062 18.8672 67.0152 18.8672 69C18.8672 70.9848 20.4762 72.5938 22.4609 72.5938Z" fill="#5D3DE3"/>
<path d="M38.0938 72.5938C40.0785 72.5938 41.6875 70.9848 41.6875 69C41.6875 67.0152 40.0785 65.4062 38.0938 65.4062C36.109 65.4062 34.5 67.0152 34.5 69C34.5 70.9848 36.109 72.5938 38.0938 72.5938Z" fill="#5D3DE3"/>
<path d="M38.0938 41.3281C40.0785 41.3281 41.6875 39.7191 41.6875 37.7344C41.6875 35.7496 40.0785 34.1406 38.0938 34.1406C36.109 34.1406 34.5 35.7496 34.5 37.7344C34.5 39.7191 36.109 41.3281 38.0938 41.3281Z" fill="#5D3DE3"/>
</svg>
