<svg width="65" height="53" viewBox="0 0 65 53" fill="none" xmlns="http://www.w3.org/2000/svg">
<path d="M64.6502 20.9453L53.2356 4.70227C52.4743 3.61881 50.8672 3.6211 50.1075 4.70227L45.7633 10.8842C40.8451 4.52932 33.3838 0.952026 25.5478 0.952026C11.4608 0.952026 0 12.4128 0 26.5C0 40.5871 11.4608 52.0479 25.5479 52.0479C32.1123 52.0479 38.3106 49.5458 42.9895 45.1676L42.8713 47.0806C42.8034 48.1808 43.6784 49.1101 44.7794 49.1101H58.5639C59.6662 49.1101 60.5397 48.1795 60.4719 47.0806L59.0435 23.956H63.0862C64.6333 23.956 65.5381 22.2088 64.6502 20.9453ZM25.5479 48.2245C13.5689 48.2245 3.8234 38.4788 3.8234 26.5C3.8234 14.5211 13.5689 4.77543 25.5479 4.77543C32.781 4.77543 39.3819 8.27077 43.4444 14.1841L38.6931 20.9453C37.8035 22.2112 38.7129 23.9562 40.2572 23.9562H44.2999L43.376 38.9114C39.3069 44.7516 32.6807 48.2245 25.5479 48.2245ZM57.01 20.1326C55.9077 20.1326 55.0341 21.0633 55.1019 22.1622L56.5305 45.2867H46.813L48.2416 22.1622C48.3095 21.062 47.4346 20.1326 46.3335 20.1326H43.9373C45.0291 18.579 50.5777 10.6833 51.6718 9.12635L59.4063 20.1326H57.01Z" fill="#5D3DE3"/>
<path d="M27.9601 24.5884H23.1343C21.7988 24.5884 20.7121 23.5018 20.7121 22.1663C20.7121 20.8261 21.797 19.7441 23.1338 19.7441C23.1448 19.7441 23.1555 19.7442 23.1663 19.7442H27.7892C28.9263 19.7549 30.0255 20.3761 30.6574 21.364L30.6817 21.4022C31.2494 22.2926 32.4311 22.5544 33.3214 21.9867C34.2116 21.4193 34.4734 20.2374 33.906 19.3471L33.8798 19.3061C32.547 17.2227 30.3725 15.9207 27.4589 15.9207V13.6278C27.4589 12.572 26.6029 11.7162 25.5472 11.7162C24.4916 11.7162 23.6356 12.5721 23.6356 13.6278V15.9207C21.8087 15.9207 20.2269 16.252 18.7343 17.7337C17.5441 18.9151 16.8887 20.4893 16.8887 22.1662C16.8887 25.61 19.6906 28.4116 23.1343 28.4116H27.9601C29.2957 28.4116 30.3822 29.4982 30.3822 30.8337C30.3822 32.122 29.3617 33.2558 27.9281 33.2558H22.884C21.8905 33.2465 20.9377 32.7813 20.2691 31.9787C19.5932 31.1674 18.3878 31.0579 17.5767 31.7335C16.7656 32.4094 16.6559 33.6148 17.3316 34.4259C19.1206 36.5735 21.2027 37.0792 23.6355 37.0792V39.372C23.6355 40.4278 24.4914 41.2837 25.5471 41.2837C26.6028 41.2837 27.4587 40.4277 27.4587 39.372V37.0792C31.9114 37.0792 34.2055 33.9425 34.2055 30.8337C34.2057 27.39 31.404 24.5884 27.9601 24.5884Z" fill="#5D3DE3"/>
</svg>
