<svg width="97" height="97" viewBox="0 0 97 97" fill="none" xmlns="http://www.w3.org/2000/svg">
<path d="M48.4999 0C21.7142 0 0 21.7142 0 48.4999C0 75.2856 21.7142 96.9998 48.4999 96.9998C75.2856 96.9998 96.9998 75.2856 96.9998 48.4999C96.9714 21.7261 75.2739 0.0286209 48.4999 0ZM48.4999 90.0713C25.5406 90.0713 6.9285 71.4592 6.9285 48.4999C6.9285 25.5406 25.5406 6.9285 48.4999 6.9285C71.4592 6.9285 90.0713 25.5406 90.0713 48.4999C90.0465 71.449 71.449 90.0465 48.4999 90.0713Z" fill="white"/>
<path d="M68.925 46.9546C68.5892 46.281 68.0434 45.735 67.3697 45.3993L39.6555 31.5421C37.9439 30.6869 35.8633 31.3809 35.008 33.0925C34.7674 33.5738 34.6424 34.1046 34.6426 34.6427V62.3571C34.6418 64.2704 36.192 65.822 38.1053 65.8231C38.6434 65.8233 39.1742 65.6982 39.6555 65.4577L67.3697 51.6005C69.0821 50.7471 69.7785 48.6669 68.925 46.9546ZM41.5713 56.7518V40.2479L58.0752 48.4999L41.5713 56.7518Z" fill="white"/>
</svg>
