<svg width="39" height="39" viewBox="0 0 39 39" fill="none" xmlns="http://www.w3.org/2000/svg">
<g clip-path="url(#clip0)">
<mask id="path-1-outside-1" maskUnits="userSpaceOnUse" x="23.5841" y="23.3485" width="12" height="16" fill="black">
<rect fill="white" x="23.5841" y="23.3485" width="12" height="16"/>
<path d="M32.3081 32.8583L31.4488 32.5691C31.322 32.5269 31.2069 32.4537 31.1132 32.3549C30.9641 32.1996 30.882 31.994 30.882 31.7759V30.8919L31.1382 30.7356C31.6717 30.4104 32.0028 29.8198 32.0028 29.1946V27.6742C32.0028 27.6721 32.0028 27.6703 32.0028 27.6685V26.3409C32.0028 25.2423 31.1102 24.3485 30.0128 24.3485H28.257C27.1597 24.3485 26.267 25.2423 26.267 26.3409V27.4841V27.4858V29.1946C26.267 29.8198 26.5985 30.4104 27.132 30.7356L27.3888 30.8922V31.7759C27.3888 32.0077 27.2909 32.232 27.1216 32.3903C27.0347 32.4712 26.9329 32.5316 26.8196 32.5697L25.9614 32.8583C25.5148 33.0086 25.1167 33.249 24.7769 33.5722C24.7736 33.5751 24.7707 33.5781 24.7674 33.5811C24.7641 33.5841 24.7608 33.587 24.7576 33.59C24.7543 33.5933 24.7516 33.5965 24.7484 33.5998C24.7403 33.6082 24.7323 33.6165 24.7245 33.6254C24.7192 33.6314 24.7141 33.6376 24.7091 33.6439C24.7028 33.6519 24.6966 33.6599 24.6906 33.6683C24.6853 33.676 24.6799 33.6837 24.6749 33.6918C24.6704 33.6989 24.6656 33.706 24.6615 33.7135C24.6561 33.7227 24.6511 33.7319 24.6463 33.7412C24.643 33.748 24.6395 33.7548 24.6365 33.7617C24.632 33.7718 24.6275 33.7816 24.6237 33.7917C24.6207 33.7989 24.6183 33.806 24.6156 33.8132C24.6124 33.823 24.6091 33.8328 24.6061 33.8432C24.604 33.851 24.602 33.859 24.5999 33.867C24.5978 33.8765 24.5957 33.8858 24.5939 33.895C24.5921 33.9042 24.5907 33.9137 24.5895 33.923C24.5883 33.9313 24.5874 33.9396 24.5865 33.948C24.5856 33.9584 24.585 33.9688 24.5844 33.9792C24.5841 33.9866 24.5841 33.9944 24.5841 34.0018C24.5841 34.0128 24.5844 34.0235 24.585 34.0345C24.5853 34.042 24.5859 34.0497 24.5868 34.0574C24.5877 34.0676 24.5892 34.078 24.5907 34.0884C24.5921 34.097 24.5936 34.1054 24.5954 34.114C24.5972 34.1229 24.5993 34.1321 24.6014 34.1414C24.604 34.1512 24.607 34.161 24.61 34.1708C24.6124 34.1783 24.6148 34.186 24.6174 34.1934C24.6213 34.2044 24.6258 34.2154 24.6305 34.2268C24.6323 34.2306 24.6335 34.2348 24.6353 34.2387C24.7971 34.5915 24.879 34.9682 24.879 35.3586V38.2999C24.879 38.6156 25.1349 38.8712 25.4503 38.8712C25.7657 38.8712 26.0216 38.6156 26.0216 38.2999V35.3586C26.0216 34.9546 25.9591 34.5606 25.8365 34.1821C25.9873 34.0813 26.1507 34.0003 26.3262 33.9411L27.1838 33.6528C27.3382 33.6007 27.4834 33.5308 27.6188 33.4442C27.8559 33.5135 28.0963 33.5659 28.3397 33.5998L27.4795 36.641C27.4263 36.8297 27.4733 37.032 27.6039 37.1778L28.6542 38.3493C28.7593 38.4665 28.9081 38.5352 29.0655 38.5391H29.0797C29.2318 38.5391 29.3779 38.4784 29.4853 38.3701L30.6469 37.1989C30.796 37.0484 30.8495 36.8279 30.7865 36.6259L29.8346 33.5826C30.0884 33.5412 30.3387 33.4796 30.5847 33.3996C30.7389 33.507 30.9079 33.5933 31.0861 33.6528L31.9433 33.9411C32.7884 34.2259 33.3561 35.0176 33.3561 35.9109V38.2999C33.3561 38.6156 33.6117 38.8712 33.9274 38.8712C34.2428 38.8712 34.4987 38.6156 34.4987 38.2999V35.9109C34.4987 34.5267 33.6185 33.2999 32.3081 32.8583ZM29.1137 32.5046C28.8768 32.5093 28.6417 32.4927 28.4103 32.4552C28.4894 32.2391 28.5314 32.0094 28.5314 31.7759V31.545C28.7268 31.6149 28.931 31.65 29.1351 31.65C29.3395 31.65 29.5439 31.6146 29.7394 31.5447V31.7759C29.7394 31.9975 29.7757 32.2139 29.8453 32.418C29.6049 32.4697 29.3603 32.4989 29.1137 32.5046ZM27.4099 27.8396L28.4382 27.3028L30.8603 28.0827V29.1944C30.8603 29.4241 30.7389 29.641 30.5431 29.7603L29.4779 30.4098C29.2663 30.5387 29.0039 30.5387 28.7923 30.4098L27.7271 29.7603C27.5313 29.641 27.4099 29.4241 27.4099 29.1944V27.8396ZM28.257 25.4911H30.0131C30.4803 25.4911 30.8603 25.8722 30.8603 26.3409V26.8821L28.5608 26.1418C28.415 26.0948 28.2567 26.1085 28.121 26.1793L27.4099 26.5507V26.3409C27.4099 25.8722 27.7899 25.4911 28.257 25.4911ZM29.1006 37.1356L28.6647 36.6494L29.1071 35.0849L29.5933 36.6387L29.1006 37.1356Z"/>
</mask>
<path d="M32.3081 32.8583L31.4488 32.5691C31.322 32.5269 31.2069 32.4537 31.1132 32.3549C30.9641 32.1996 30.882 31.994 30.882 31.7759V30.8919L31.1382 30.7356C31.6717 30.4104 32.0028 29.8198 32.0028 29.1946V27.6742C32.0028 27.6721 32.0028 27.6703 32.0028 27.6685V26.3409C32.0028 25.2423 31.1102 24.3485 30.0128 24.3485H28.257C27.1597 24.3485 26.267 25.2423 26.267 26.3409V27.4841V27.4858V29.1946C26.267 29.8198 26.5985 30.4104 27.132 30.7356L27.3888 30.8922V31.7759C27.3888 32.0077 27.2909 32.232 27.1216 32.3903C27.0347 32.4712 26.9329 32.5316 26.8196 32.5697L25.9614 32.8583C25.5148 33.0086 25.1167 33.249 24.7769 33.5722C24.7736 33.5751 24.7707 33.5781 24.7674 33.5811C24.7641 33.5841 24.7608 33.587 24.7576 33.59C24.7543 33.5933 24.7516 33.5965 24.7484 33.5998C24.7403 33.6082 24.7323 33.6165 24.7245 33.6254C24.7192 33.6314 24.7141 33.6376 24.7091 33.6439C24.7028 33.6519 24.6966 33.6599 24.6906 33.6683C24.6853 33.676 24.6799 33.6837 24.6749 33.6918C24.6704 33.6989 24.6656 33.706 24.6615 33.7135C24.6561 33.7227 24.6511 33.7319 24.6463 33.7412C24.643 33.748 24.6395 33.7548 24.6365 33.7617C24.632 33.7718 24.6275 33.7816 24.6237 33.7917C24.6207 33.7989 24.6183 33.806 24.6156 33.8132C24.6124 33.823 24.6091 33.8328 24.6061 33.8432C24.604 33.851 24.602 33.859 24.5999 33.867C24.5978 33.8765 24.5957 33.8858 24.5939 33.895C24.5921 33.9042 24.5907 33.9137 24.5895 33.923C24.5883 33.9313 24.5874 33.9396 24.5865 33.948C24.5856 33.9584 24.585 33.9688 24.5844 33.9792C24.5841 33.9866 24.5841 33.9944 24.5841 34.0018C24.5841 34.0128 24.5844 34.0235 24.585 34.0345C24.5853 34.042 24.5859 34.0497 24.5868 34.0574C24.5877 34.0676 24.5892 34.078 24.5907 34.0884C24.5921 34.097 24.5936 34.1054 24.5954 34.114C24.5972 34.1229 24.5993 34.1321 24.6014 34.1414C24.604 34.1512 24.607 34.161 24.61 34.1708C24.6124 34.1783 24.6148 34.186 24.6174 34.1934C24.6213 34.2044 24.6258 34.2154 24.6305 34.2268C24.6323 34.2306 24.6335 34.2348 24.6353 34.2387C24.7971 34.5915 24.879 34.9682 24.879 35.3586V38.2999C24.879 38.6156 25.1349 38.8712 25.4503 38.8712C25.7657 38.8712 26.0216 38.6156 26.0216 38.2999V35.3586C26.0216 34.9546 25.9591 34.5606 25.8365 34.1821C25.9873 34.0813 26.1507 34.0003 26.3262 33.9411L27.1838 33.6528C27.3382 33.6007 27.4834 33.5308 27.6188 33.4442C27.8559 33.5135 28.0963 33.5659 28.3397 33.5998L27.4795 36.641C27.4263 36.8297 27.4733 37.032 27.6039 37.1778L28.6542 38.3493C28.7593 38.4665 28.9081 38.5352 29.0655 38.5391H29.0797C29.2318 38.5391 29.3779 38.4784 29.4853 38.3701L30.6469 37.1989C30.796 37.0484 30.8495 36.8279 30.7865 36.6259L29.8346 33.5826C30.0884 33.5412 30.3387 33.4796 30.5847 33.3996C30.7389 33.507 30.9079 33.5933 31.0861 33.6528L31.9433 33.9411C32.7884 34.2259 33.3561 35.0176 33.3561 35.9109V38.2999C33.3561 38.6156 33.6117 38.8712 33.9274 38.8712C34.2428 38.8712 34.4987 38.6156 34.4987 38.2999V35.9109C34.4987 34.5267 33.6185 33.2999 32.3081 32.8583ZM29.1137 32.5046C28.8768 32.5093 28.6417 32.4927 28.4103 32.4552C28.4894 32.2391 28.5314 32.0094 28.5314 31.7759V31.545C28.7268 31.6149 28.931 31.65 29.1351 31.65C29.3395 31.65 29.5439 31.6146 29.7394 31.5447V31.7759C29.7394 31.9975 29.7757 32.2139 29.8453 32.418C29.6049 32.4697 29.3603 32.4989 29.1137 32.5046ZM27.4099 27.8396L28.4382 27.3028L30.8603 28.0827V29.1944C30.8603 29.4241 30.7389 29.641 30.5431 29.7603L29.4779 30.4098C29.2663 30.5387 29.0039 30.5387 28.7923 30.4098L27.7271 29.7603C27.5313 29.641 27.4099 29.4241 27.4099 29.1944V27.8396ZM28.257 25.4911H30.0131C30.4803 25.4911 30.8603 25.8722 30.8603 26.3409V26.8821L28.5608 26.1418C28.415 26.0948 28.2567 26.1085 28.121 26.1793L27.4099 26.5507V26.3409C27.4099 25.8722 27.7899 25.4911 28.257 25.4911ZM29.1006 37.1356L28.6647 36.6494L29.1071 35.0849L29.5933 36.6387L29.1006 37.1356Z" fill="#5D3DE3"/>
<path d="M32.3081 32.8583L31.4488 32.5691C31.322 32.5269 31.2069 32.4537 31.1132 32.3549C30.9641 32.1996 30.882 31.994 30.882 31.7759V30.8919L31.1382 30.7356C31.6717 30.4104 32.0028 29.8198 32.0028 29.1946V27.6742C32.0028 27.6721 32.0028 27.6703 32.0028 27.6685V26.3409C32.0028 25.2423 31.1102 24.3485 30.0128 24.3485H28.257C27.1597 24.3485 26.267 25.2423 26.267 26.3409V27.4841V27.4858V29.1946C26.267 29.8198 26.5985 30.4104 27.132 30.7356L27.3888 30.8922V31.7759C27.3888 32.0077 27.2909 32.232 27.1216 32.3903C27.0347 32.4712 26.9329 32.5316 26.8196 32.5697L25.9614 32.8583C25.5148 33.0086 25.1167 33.249 24.7769 33.5722C24.7736 33.5751 24.7707 33.5781 24.7674 33.5811C24.7641 33.5841 24.7608 33.587 24.7576 33.59C24.7543 33.5933 24.7516 33.5965 24.7484 33.5998C24.7403 33.6082 24.7323 33.6165 24.7245 33.6254C24.7192 33.6314 24.7141 33.6376 24.7091 33.6439C24.7028 33.6519 24.6966 33.6599 24.6906 33.6683C24.6853 33.676 24.6799 33.6837 24.6749 33.6918C24.6704 33.6989 24.6656 33.706 24.6615 33.7135C24.6561 33.7227 24.6511 33.7319 24.6463 33.7412C24.643 33.748 24.6395 33.7548 24.6365 33.7617C24.632 33.7718 24.6275 33.7816 24.6237 33.7917C24.6207 33.7989 24.6183 33.806 24.6156 33.8132C24.6124 33.823 24.6091 33.8328 24.6061 33.8432C24.604 33.851 24.602 33.859 24.5999 33.867C24.5978 33.8765 24.5957 33.8858 24.5939 33.895C24.5921 33.9042 24.5907 33.9137 24.5895 33.923C24.5883 33.9313 24.5874 33.9396 24.5865 33.948C24.5856 33.9584 24.585 33.9688 24.5844 33.9792C24.5841 33.9866 24.5841 33.9944 24.5841 34.0018C24.5841 34.0128 24.5844 34.0235 24.585 34.0345C24.5853 34.042 24.5859 34.0497 24.5868 34.0574C24.5877 34.0676 24.5892 34.078 24.5907 34.0884C24.5921 34.097 24.5936 34.1054 24.5954 34.114C24.5972 34.1229 24.5993 34.1321 24.6014 34.1414C24.604 34.1512 24.607 34.161 24.61 34.1708C24.6124 34.1783 24.6148 34.186 24.6174 34.1934C24.6213 34.2044 24.6258 34.2154 24.6305 34.2268C24.6323 34.2306 24.6335 34.2348 24.6353 34.2387C24.7971 34.5915 24.879 34.9682 24.879 35.3586V38.2999C24.879 38.6156 25.1349 38.8712 25.4503 38.8712C25.7657 38.8712 26.0216 38.6156 26.0216 38.2999V35.3586C26.0216 34.9546 25.9591 34.5606 25.8365 34.1821C25.9873 34.0813 26.1507 34.0003 26.3262 33.9411L27.1838 33.6528C27.3382 33.6007 27.4834 33.5308 27.6188 33.4442C27.8559 33.5135 28.0963 33.5659 28.3397 33.5998L27.4795 36.641C27.4263 36.8297 27.4733 37.032 27.6039 37.1778L28.6542 38.3493C28.7593 38.4665 28.9081 38.5352 29.0655 38.5391H29.0797C29.2318 38.5391 29.3779 38.4784 29.4853 38.3701L30.6469 37.1989C30.796 37.0484 30.8495 36.8279 30.7865 36.6259L29.8346 33.5826C30.0884 33.5412 30.3387 33.4796 30.5847 33.3996C30.7389 33.507 30.9079 33.5933 31.0861 33.6528L31.9433 33.9411C32.7884 34.2259 33.3561 35.0176 33.3561 35.9109V38.2999C33.3561 38.6156 33.6117 38.8712 33.9274 38.8712C34.2428 38.8712 34.4987 38.6156 34.4987 38.2999V35.9109C34.4987 34.5267 33.6185 33.2999 32.3081 32.8583ZM29.1137 32.5046C28.8768 32.5093 28.6417 32.4927 28.4103 32.4552C28.4894 32.2391 28.5314 32.0094 28.5314 31.7759V31.545C28.7268 31.6149 28.931 31.65 29.1351 31.65C29.3395 31.65 29.5439 31.6146 29.7394 31.5447V31.7759C29.7394 31.9975 29.7757 32.2139 29.8453 32.418C29.6049 32.4697 29.3603 32.4989 29.1137 32.5046ZM27.4099 27.8396L28.4382 27.3028L30.8603 28.0827V29.1944C30.8603 29.4241 30.7389 29.641 30.5431 29.7603L29.4779 30.4098C29.2663 30.5387 29.0039 30.5387 28.7923 30.4098L27.7271 29.7603C27.5313 29.641 27.4099 29.4241 27.4099 29.1944V27.8396ZM28.257 25.4911H30.0131C30.4803 25.4911 30.8603 25.8722 30.8603 26.3409V26.8821L28.5608 26.1418C28.415 26.0948 28.2567 26.1085 28.121 26.1793L27.4099 26.5507V26.3409C27.4099 25.8722 27.7899 25.4911 28.257 25.4911ZM29.1006 37.1356L28.6647 36.6494L29.1071 35.0849L29.5933 36.6387L29.1006 37.1356Z" stroke="#5D3DE3" stroke-width="0.4" mask="url(#path-1-outside-1)"/>
<mask id="path-2-outside-2" maskUnits="userSpaceOnUse" x="3.60217" y="20.2561" width="21" height="19" fill="black">
<rect fill="white" x="3.60217" y="20.2561" width="21" height="19"/>
<path d="M23.4154 31.7265L22.3586 31.3703C22.1812 31.3108 22.0197 31.2084 21.8914 31.0748C21.8914 31.0745 21.8911 31.0742 21.8908 31.0739C21.6825 30.8552 21.568 30.569 21.568 30.2673V29.106L21.9473 28.8748C22.5651 28.4981 22.9489 27.8143 22.9489 27.0901V25.2164C22.9489 25.2144 22.9489 25.2126 22.9489 25.2108V23.577C22.9489 22.2972 21.909 21.2561 20.631 21.2561H18.4693C17.1914 21.2561 16.1517 22.2972 16.1517 23.577V24.9864V24.9882V27.0901C16.1517 27.8143 16.5353 28.4981 17.153 28.8748L17.5327 29.1063V30.2673C17.5327 30.5898 17.397 30.9017 17.1622 31.1207C17.0396 31.2343 16.8983 31.3182 16.7412 31.3706L15.6855 31.7268C14.9113 31.9877 14.243 32.4938 13.7776 33.1544C13.578 33.0336 13.3646 32.9345 13.1388 32.8583L12.2792 32.5691C12.1509 32.5266 12.0385 32.4552 11.9438 32.3558C11.7945 32.1993 11.712 31.9937 11.712 31.7759V30.8921L11.9685 30.7356C12.502 30.4104 12.8332 29.8198 12.8332 29.1946V27.6742C12.8332 27.6721 12.8332 27.6703 12.8332 27.6685V26.3409C12.8332 25.2423 11.9406 24.3485 10.8432 24.3485H9.08739C7.99004 24.3485 7.0974 25.2423 7.0974 26.3409V27.484V27.4858V29.1946C7.0974 29.8198 7.42886 30.4104 7.96237 30.7356L8.21885 30.8921V31.7759C8.21885 32.0082 8.12126 32.2323 7.95165 32.3903C7.86447 32.4715 7.76301 32.5319 7.65024 32.5697L6.79241 32.8583C5.48232 33.2999 4.60217 34.5264 4.60217 35.9109V38.2999C4.60217 38.6153 4.85777 38.8711 5.17346 38.8711C5.48886 38.8711 5.74475 38.6153 5.74475 38.2999V35.9109C5.74475 35.0173 6.31247 34.2259 7.15691 33.9411L8.01444 33.6528C8.16886 33.6007 8.31377 33.5305 8.44915 33.4439C8.6863 33.5135 8.92671 33.5659 9.17011 33.5995L8.3099 36.641C8.25664 36.8294 8.30365 37.032 8.43427 37.1778L9.48461 38.3493C9.58965 38.4665 9.73842 38.5349 9.89552 38.5391H9.90981C10.0622 38.5391 10.2082 38.4784 10.3157 38.3701L11.477 37.1986C11.6261 37.0484 11.6799 36.8279 11.6165 36.6259L10.6647 33.5826C10.9185 33.5412 11.169 33.4796 11.4151 33.3993C11.5698 33.5073 11.7388 33.5936 11.9168 33.6525L12.774 33.9411C12.9498 34.0003 13.1135 34.0812 13.264 34.1821C13.1418 34.5606 13.0793 34.9545 13.0793 35.3583V38.2999C13.0793 38.6153 13.3349 38.8711 13.6506 38.8711C13.966 38.8711 14.2219 38.6153 14.2219 38.2999V35.3583C14.2219 34.9682 14.3037 34.5915 14.4655 34.2381C14.7726 33.5662 15.3501 33.0452 16.0506 32.8092L17.1048 32.4537C17.3035 32.3873 17.4898 32.2948 17.6624 32.1778C18.0153 32.2853 18.3753 32.3593 18.7401 32.4007L17.6392 36.2935C17.5859 36.4818 17.6326 36.6845 17.7635 36.8303L19.0564 38.2725C19.1614 38.3894 19.3102 38.4582 19.4676 38.462C19.4724 38.4623 19.4771 38.4623 19.4819 38.4623C19.6339 38.4623 19.78 38.4016 19.8874 38.2933L21.3174 36.8511C21.4665 36.7008 21.5201 36.4804 21.457 36.2783L20.2388 32.3831C20.6182 32.3314 20.9922 32.2439 21.3576 32.1204C21.551 32.2635 21.7661 32.3769 21.9944 32.4534L23.0501 32.8092C23.1108 32.8295 23.1723 32.8393 23.2327 32.8393C23.4711 32.8393 23.6936 32.6887 23.774 32.4504C23.8752 32.1514 23.7145 31.8273 23.4154 31.7265ZM9.94403 32.5045C9.70718 32.5093 9.47212 32.4926 9.24063 32.4552C9.31948 32.2391 9.36143 32.0094 9.36143 31.7759V31.5447C9.55692 31.6149 9.76133 31.65 9.96545 31.65C10.1699 31.65 10.374 31.6149 10.5695 31.5447V31.7759C10.5695 31.9972 10.6061 32.2138 10.6754 32.418C10.4353 32.4697 10.1907 32.4989 9.94403 32.5045ZM8.24027 27.8396L9.26859 27.3028L11.6909 28.0827V29.1943C11.6909 29.424 11.5692 29.641 11.3737 29.7603L10.3082 30.4098C10.097 30.5387 9.83423 30.5387 9.62297 30.4098L8.55746 29.7603C8.36197 29.641 8.24027 29.424 8.24027 29.1943V27.8396ZM9.08769 25.4911H10.8435C11.3107 25.4911 11.6909 25.8722 11.6909 26.3409V26.8821L9.39118 26.1418C9.24568 26.0948 9.08709 26.1085 8.95171 26.1793L8.24027 26.5506V26.3409C8.24027 25.8722 8.62054 25.4911 9.08769 25.4911ZM9.93093 37.1356L9.49503 36.6494L9.93778 35.0849L10.4237 36.6387L9.93093 37.1356ZM19.5265 31.2968C19.1724 31.3042 18.8207 31.2727 18.4753 31.2046C18.6056 30.9118 18.6755 30.5925 18.6755 30.2673V29.7859C18.9534 29.915 19.2519 29.9805 19.5503 29.9805C19.8491 29.9805 20.1472 29.9147 20.4254 29.7856V30.2673C20.4254 30.5753 20.4864 30.8752 20.6018 31.1528C20.2495 31.2406 19.8901 31.2891 19.5265 31.2968ZM18.4693 22.3987H20.6313C21.2791 22.3987 21.8063 22.9271 21.8063 23.577V24.4247L18.8026 23.4574C18.6571 23.4106 18.4988 23.424 18.3631 23.4948L17.2943 24.053V23.577C17.2943 22.9271 17.8216 22.3987 18.4693 22.3987ZM17.2943 25.342L18.68 24.6184L21.8063 25.625V27.0901C21.8063 27.4186 21.6325 27.7286 21.3526 27.8991L20.041 28.6989C19.7384 28.8834 19.3623 28.8834 19.0597 28.6989L17.7481 27.8991C17.4684 27.7286 17.2943 27.4183 17.2943 27.0901V25.342ZM19.503 37.0588L18.8243 36.3018L19.5096 33.8792L20.2641 36.2911L19.503 37.0588Z"/>
</mask>
<path d="M23.4154 31.7265L22.3586 31.3703C22.1812 31.3108 22.0197 31.2084 21.8914 31.0748C21.8914 31.0745 21.8911 31.0742 21.8908 31.0739C21.6825 30.8552 21.568 30.569 21.568 30.2673V29.106L21.9473 28.8748C22.5651 28.4981 22.9489 27.8143 22.9489 27.0901V25.2164C22.9489 25.2144 22.9489 25.2126 22.9489 25.2108V23.577C22.9489 22.2972 21.909 21.2561 20.631 21.2561H18.4693C17.1914 21.2561 16.1517 22.2972 16.1517 23.577V24.9864V24.9882V27.0901C16.1517 27.8143 16.5353 28.4981 17.153 28.8748L17.5327 29.1063V30.2673C17.5327 30.5898 17.397 30.9017 17.1622 31.1207C17.0396 31.2343 16.8983 31.3182 16.7412 31.3706L15.6855 31.7268C14.9113 31.9877 14.243 32.4938 13.7776 33.1544C13.578 33.0336 13.3646 32.9345 13.1388 32.8583L12.2792 32.5691C12.1509 32.5266 12.0385 32.4552 11.9438 32.3558C11.7945 32.1993 11.712 31.9937 11.712 31.7759V30.8921L11.9685 30.7356C12.502 30.4104 12.8332 29.8198 12.8332 29.1946V27.6742C12.8332 27.6721 12.8332 27.6703 12.8332 27.6685V26.3409C12.8332 25.2423 11.9406 24.3485 10.8432 24.3485H9.08739C7.99004 24.3485 7.0974 25.2423 7.0974 26.3409V27.484V27.4858V29.1946C7.0974 29.8198 7.42886 30.4104 7.96237 30.7356L8.21885 30.8921V31.7759C8.21885 32.0082 8.12126 32.2323 7.95165 32.3903C7.86447 32.4715 7.76301 32.5319 7.65024 32.5697L6.79241 32.8583C5.48232 33.2999 4.60217 34.5264 4.60217 35.9109V38.2999C4.60217 38.6153 4.85777 38.8711 5.17346 38.8711C5.48886 38.8711 5.74475 38.6153 5.74475 38.2999V35.9109C5.74475 35.0173 6.31247 34.2259 7.15691 33.9411L8.01444 33.6528C8.16886 33.6007 8.31377 33.5305 8.44915 33.4439C8.6863 33.5135 8.92671 33.5659 9.17011 33.5995L8.3099 36.641C8.25664 36.8294 8.30365 37.032 8.43427 37.1778L9.48461 38.3493C9.58965 38.4665 9.73842 38.5349 9.89552 38.5391H9.90981C10.0622 38.5391 10.2082 38.4784 10.3157 38.3701L11.477 37.1986C11.6261 37.0484 11.6799 36.8279 11.6165 36.6259L10.6647 33.5826C10.9185 33.5412 11.169 33.4796 11.4151 33.3993C11.5698 33.5073 11.7388 33.5936 11.9168 33.6525L12.774 33.9411C12.9498 34.0003 13.1135 34.0812 13.264 34.1821C13.1418 34.5606 13.0793 34.9545 13.0793 35.3583V38.2999C13.0793 38.6153 13.3349 38.8711 13.6506 38.8711C13.966 38.8711 14.2219 38.6153 14.2219 38.2999V35.3583C14.2219 34.9682 14.3037 34.5915 14.4655 34.2381C14.7726 33.5662 15.3501 33.0452 16.0506 32.8092L17.1048 32.4537C17.3035 32.3873 17.4898 32.2948 17.6624 32.1778C18.0153 32.2853 18.3753 32.3593 18.7401 32.4007L17.6392 36.2935C17.5859 36.4818 17.6326 36.6845 17.7635 36.8303L19.0564 38.2725C19.1614 38.3894 19.3102 38.4582 19.4676 38.462C19.4724 38.4623 19.4771 38.4623 19.4819 38.4623C19.6339 38.4623 19.78 38.4016 19.8874 38.2933L21.3174 36.8511C21.4665 36.7008 21.5201 36.4804 21.457 36.2783L20.2388 32.3831C20.6182 32.3314 20.9922 32.2439 21.3576 32.1204C21.551 32.2635 21.7661 32.3769 21.9944 32.4534L23.0501 32.8092C23.1108 32.8295 23.1723 32.8393 23.2327 32.8393C23.4711 32.8393 23.6936 32.6887 23.774 32.4504C23.8752 32.1514 23.7145 31.8273 23.4154 31.7265ZM9.94403 32.5045C9.70718 32.5093 9.47212 32.4926 9.24063 32.4552C9.31948 32.2391 9.36143 32.0094 9.36143 31.7759V31.5447C9.55692 31.6149 9.76133 31.65 9.96545 31.65C10.1699 31.65 10.374 31.6149 10.5695 31.5447V31.7759C10.5695 31.9972 10.6061 32.2138 10.6754 32.418C10.4353 32.4697 10.1907 32.4989 9.94403 32.5045ZM8.24027 27.8396L9.26859 27.3028L11.6909 28.0827V29.1943C11.6909 29.424 11.5692 29.641 11.3737 29.7603L10.3082 30.4098C10.097 30.5387 9.83423 30.5387 9.62297 30.4098L8.55746 29.7603C8.36197 29.641 8.24027 29.424 8.24027 29.1943V27.8396ZM9.08769 25.4911H10.8435C11.3107 25.4911 11.6909 25.8722 11.6909 26.3409V26.8821L9.39118 26.1418C9.24568 26.0948 9.08709 26.1085 8.95171 26.1793L8.24027 26.5506V26.3409C8.24027 25.8722 8.62054 25.4911 9.08769 25.4911ZM9.93093 37.1356L9.49503 36.6494L9.93778 35.0849L10.4237 36.6387L9.93093 37.1356ZM19.5265 31.2968C19.1724 31.3042 18.8207 31.2727 18.4753 31.2046C18.6056 30.9118 18.6755 30.5925 18.6755 30.2673V29.7859C18.9534 29.915 19.2519 29.9805 19.5503 29.9805C19.8491 29.9805 20.1472 29.9147 20.4254 29.7856V30.2673C20.4254 30.5753 20.4864 30.8752 20.6018 31.1528C20.2495 31.2406 19.8901 31.2891 19.5265 31.2968ZM18.4693 22.3987H20.6313C21.2791 22.3987 21.8063 22.9271 21.8063 23.577V24.4247L18.8026 23.4574C18.6571 23.4106 18.4988 23.424 18.3631 23.4948L17.2943 24.053V23.577C17.2943 22.9271 17.8216 22.3987 18.4693 22.3987ZM17.2943 25.342L18.68 24.6184L21.8063 25.625V27.0901C21.8063 27.4186 21.6325 27.7286 21.3526 27.8991L20.041 28.6989C19.7384 28.8834 19.3623 28.8834 19.0597 28.6989L17.7481 27.8991C17.4684 27.7286 17.2943 27.4183 17.2943 27.0901V25.342ZM19.503 37.0588L18.8243 36.3018L19.5096 33.8792L20.2641 36.2911L19.503 37.0588Z" fill="#5D3DE3"/>
<path d="M23.4154 31.7265L22.3586 31.3703C22.1812 31.3108 22.0197 31.2084 21.8914 31.0748C21.8914 31.0745 21.8911 31.0742 21.8908 31.0739C21.6825 30.8552 21.568 30.569 21.568 30.2673V29.106L21.9473 28.8748C22.5651 28.4981 22.9489 27.8143 22.9489 27.0901V25.2164C22.9489 25.2144 22.9489 25.2126 22.9489 25.2108V23.577C22.9489 22.2972 21.909 21.2561 20.631 21.2561H18.4693C17.1914 21.2561 16.1517 22.2972 16.1517 23.577V24.9864V24.9882V27.0901C16.1517 27.8143 16.5353 28.4981 17.153 28.8748L17.5327 29.1063V30.2673C17.5327 30.5898 17.397 30.9017 17.1622 31.1207C17.0396 31.2343 16.8983 31.3182 16.7412 31.3706L15.6855 31.7268C14.9113 31.9877 14.243 32.4938 13.7776 33.1544C13.578 33.0336 13.3646 32.9345 13.1388 32.8583L12.2792 32.5691C12.1509 32.5266 12.0385 32.4552 11.9438 32.3558C11.7945 32.1993 11.712 31.9937 11.712 31.7759V30.8921L11.9685 30.7356C12.502 30.4104 12.8332 29.8198 12.8332 29.1946V27.6742C12.8332 27.6721 12.8332 27.6703 12.8332 27.6685V26.3409C12.8332 25.2423 11.9406 24.3485 10.8432 24.3485H9.08739C7.99004 24.3485 7.0974 25.2423 7.0974 26.3409V27.484V27.4858V29.1946C7.0974 29.8198 7.42886 30.4104 7.96237 30.7356L8.21885 30.8921V31.7759C8.21885 32.0082 8.12126 32.2323 7.95165 32.3903C7.86447 32.4715 7.76301 32.5319 7.65024 32.5697L6.79241 32.8583C5.48232 33.2999 4.60217 34.5264 4.60217 35.9109V38.2999C4.60217 38.6153 4.85777 38.8711 5.17346 38.8711C5.48886 38.8711 5.74475 38.6153 5.74475 38.2999V35.9109C5.74475 35.0173 6.31247 34.2259 7.15691 33.9411L8.01444 33.6528C8.16886 33.6007 8.31377 33.5305 8.44915 33.4439C8.6863 33.5135 8.92671 33.5659 9.17011 33.5995L8.3099 36.641C8.25664 36.8294 8.30365 37.032 8.43427 37.1778L9.48461 38.3493C9.58965 38.4665 9.73842 38.5349 9.89552 38.5391H9.90981C10.0622 38.5391 10.2082 38.4784 10.3157 38.3701L11.477 37.1986C11.6261 37.0484 11.6799 36.8279 11.6165 36.6259L10.6647 33.5826C10.9185 33.5412 11.169 33.4796 11.4151 33.3993C11.5698 33.5073 11.7388 33.5936 11.9168 33.6525L12.774 33.9411C12.9498 34.0003 13.1135 34.0812 13.264 34.1821C13.1418 34.5606 13.0793 34.9545 13.0793 35.3583V38.2999C13.0793 38.6153 13.3349 38.8711 13.6506 38.8711C13.966 38.8711 14.2219 38.6153 14.2219 38.2999V35.3583C14.2219 34.9682 14.3037 34.5915 14.4655 34.2381C14.7726 33.5662 15.3501 33.0452 16.0506 32.8092L17.1048 32.4537C17.3035 32.3873 17.4898 32.2948 17.6624 32.1778C18.0153 32.2853 18.3753 32.3593 18.7401 32.4007L17.6392 36.2935C17.5859 36.4818 17.6326 36.6845 17.7635 36.8303L19.0564 38.2725C19.1614 38.3894 19.3102 38.4582 19.4676 38.462C19.4724 38.4623 19.4771 38.4623 19.4819 38.4623C19.6339 38.4623 19.78 38.4016 19.8874 38.2933L21.3174 36.8511C21.4665 36.7008 21.5201 36.4804 21.457 36.2783L20.2388 32.3831C20.6182 32.3314 20.9922 32.2439 21.3576 32.1204C21.551 32.2635 21.7661 32.3769 21.9944 32.4534L23.0501 32.8092C23.1108 32.8295 23.1723 32.8393 23.2327 32.8393C23.4711 32.8393 23.6936 32.6887 23.774 32.4504C23.8752 32.1514 23.7145 31.8273 23.4154 31.7265ZM9.94403 32.5045C9.70718 32.5093 9.47212 32.4926 9.24063 32.4552C9.31948 32.2391 9.36143 32.0094 9.36143 31.7759V31.5447C9.55692 31.6149 9.76133 31.65 9.96545 31.65C10.1699 31.65 10.374 31.6149 10.5695 31.5447V31.7759C10.5695 31.9972 10.6061 32.2138 10.6754 32.418C10.4353 32.4697 10.1907 32.4989 9.94403 32.5045ZM8.24027 27.8396L9.26859 27.3028L11.6909 28.0827V29.1943C11.6909 29.424 11.5692 29.641 11.3737 29.7603L10.3082 30.4098C10.097 30.5387 9.83423 30.5387 9.62297 30.4098L8.55746 29.7603C8.36197 29.641 8.24027 29.424 8.24027 29.1943V27.8396ZM9.08769 25.4911H10.8435C11.3107 25.4911 11.6909 25.8722 11.6909 26.3409V26.8821L9.39118 26.1418C9.24568 26.0948 9.08709 26.1085 8.95171 26.1793L8.24027 26.5506V26.3409C8.24027 25.8722 8.62054 25.4911 9.08769 25.4911ZM9.93093 37.1356L9.49503 36.6494L9.93778 35.0849L10.4237 36.6387L9.93093 37.1356ZM19.5265 31.2968C19.1724 31.3042 18.8207 31.2727 18.4753 31.2046C18.6056 30.9118 18.6755 30.5925 18.6755 30.2673V29.7859C18.9534 29.915 19.2519 29.9805 19.5503 29.9805C19.8491 29.9805 20.1472 29.9147 20.4254 29.7856V30.2673C20.4254 30.5753 20.4864 30.8752 20.6018 31.1528C20.2495 31.2406 19.8901 31.2891 19.5265 31.2968ZM18.4693 22.3987H20.6313C21.2791 22.3987 21.8063 22.9271 21.8063 23.577V24.4247L18.8026 23.4574C18.6571 23.4106 18.4988 23.424 18.3631 23.4948L17.2943 24.053V23.577C17.2943 22.9271 17.8216 22.3987 18.4693 22.3987ZM17.2943 25.342L18.68 24.6184L21.8063 25.625V27.0901C21.8063 27.4186 21.6325 27.7286 21.3526 27.8991L20.041 28.6989C19.7384 28.8834 19.3623 28.8834 19.0597 28.6989L17.7481 27.8991C17.4684 27.7286 17.2943 27.4183 17.2943 27.0901V25.342ZM19.503 37.0588L18.8243 36.3018L19.5096 33.8792L20.2641 36.2911L19.503 37.0588Z" stroke="#5D3DE3" stroke-width="0.4" mask="url(#path-2-outside-2)"/>
<path d="M38.9035 28.1596L38.9036 28.1596C39.1654 28.4219 39.1654 28.847 38.9032 29.1092L38.9031 29.1092C38.7722 29.2399 38.6004 29.3057 38.4288 29.3057C38.2568 29.3057 38.085 29.2399 37.954 29.1089L38.0247 29.0381L37.954 29.1089L25.2737 16.4259L23.0528 17.8913L23.0528 17.8913C22.8227 18.043 22.5235 18.0389 22.2979 17.8808L20.2609 16.455L18.3858 17.8672L38.9035 28.1596ZM38.9035 28.1596L25.8371 15.0902L25.7664 15.1609M38.9035 28.1596L25.7664 15.1609M25.7664 15.1609L25.8371 15.0902C25.8353 15.0884 25.8335 15.0867 25.8321 15.0855L21.2201 10.4723C21.2201 10.4723 21.2201 10.4723 21.2201 10.4723C20.9253 10.1772 20.5645 9.97159 20.1713 9.86845V6.44577H26.3409C26.719 6.44577 27.0505 6.21687 27.184 5.86311C27.3177 5.50939 27.2205 5.11815 26.9366 4.86836L25.5356 3.63423L26.9366 2.4001C27.2205 2.15031 27.3177 1.75907 27.184 1.40536C27.0506 1.05165 26.719 0.822394 26.3409 0.822394H20.1713V0.723633C20.1713 0.352674 19.8706 0.0523437 19.5 0.0523437C19.1294 0.0523437 18.8287 0.352674 18.8287 0.723633V9.91393C18.4951 10.027 18.1898 10.216 17.9338 10.4723L15.9019 12.5048C15.6397 12.767 15.6397 13.1918 15.9019 13.4541L15.902 13.4541M25.7664 15.1609L15.902 13.4541M15.902 13.4541C16.1641 13.7159 16.5893 13.7164 16.8513 13.4537L18.8831 11.4215L18.8832 11.4215C19.0685 11.2358 19.3147 11.1339 19.5768 11.1339C19.8392 11.1339 20.0851 11.2358 20.2708 11.4215L24.3048 15.4567M15.902 13.4541L24.3048 15.4567M24.3048 15.4567L22.6944 16.5191L20.6316 15.0754C20.3934 14.9086 20.0749 14.9142 19.8428 15.089L19.9029 15.1689L19.8428 15.089L17.9588 16.5079L16.1558 15.3041L16.1557 15.3041C15.9733 15.1825 15.7429 15.1573 15.5384 15.2374L14.7663 15.5391L15.04 15.2652C15.04 15.2652 15.04 15.2652 15.04 15.2652C15.3022 15.003 15.3022 14.5782 15.04 14.316L15.04 14.3159C14.7778 14.0541 14.3527 14.054 14.0908 14.316L14.0907 14.316L11.5605 16.8471C11.5575 16.8498 11.5547 16.8526 11.552 16.8556L0.0965476 28.3134C-0.165699 28.5757 -0.165333 29.0008 0.0965476 29.2627C0.22769 29.3938 0.399876 29.4592 0.571326 29.4592C0.743102 29.4592 0.914981 29.3938 1.04611 29.2627L0.975631 29.1922L1.04611 29.2627L12.4011 17.905L15.7013 16.6152L17.6092 17.8892L17.6093 17.8893C17.8466 18.0476 18.1581 18.0389 18.3858 17.8672L24.3048 15.4567ZM25.8292 15.083C25.8291 15.0829 25.8291 15.0829 25.8291 15.0829L25.829 15.0829C25.8288 15.0827 25.8289 15.0827 25.8292 15.083ZM24.272 4.31061L24.2721 4.31062L25.1721 5.10319H20.1713V2.16497H25.1722L24.272 2.95785L24.3381 3.03289L24.272 2.95786C24.0779 3.12894 23.9668 3.37559 23.9668 3.63423C23.9668 3.89287 24.0779 4.13952 24.272 4.31061Z" fill="#5D3DE3" stroke="#5D3DE3" stroke-width="0.2"/>
</g>
<defs>
<clipPath id="clip0">
<rect width="39" height="39" fill="white"/>
</clipPath>
</defs>
</svg>
