<svg width="26" height="26" viewBox="0 0 26 26" fill="none" xmlns="http://www.w3.org/2000/svg">
<path d="M23.6665 0.199951H2.33339C1.16027 0.199951 0.199951 1.16027 0.199951 2.33339V23.6668C0.199951 24.8393 1.16027 25.7999 2.33339 25.7999H23.6665C24.8396 25.7999 25.7999 24.8393 25.7999 23.6668V2.33339C25.7999 1.16027 24.8396 0.199951 23.6665 0.199951ZM23.6665 23.6668H15.1334V15.1331H20.4665V13H15.1334V10.8665C15.1334 9.09883 16.5667 7.66651 18.3334 7.66651H20.4665V5.53307H18.3334C15.3884 5.53339 13 7.92027 13 10.8665V13H10.8665V15.1331H13V23.6668H2.33339V2.33339H23.6665V23.6668Z" fill="white"/>
</svg>
