<svg width="26" height="26" viewBox="0 0 26 26" fill="none" xmlns="http://www.w3.org/2000/svg">
<path d="M19.4 0.199707H6.59995C3.08027 0.199707 0.199951 3.08003 0.199951 6.59971V19.4003C0.199951 22.9191 3.08027 25.8003 6.59995 25.8003H19.4C22.9196 25.8003 25.7999 22.9191 25.7999 19.4003V6.59971C25.7999 3.08003 22.9196 0.199707 19.4 0.199707ZM23.6665 19.4003C23.6665 21.7523 21.7532 23.6669 19.4 23.6669H6.59995C4.24763 23.6669 2.33339 21.7523 2.33339 19.4003V6.59971C2.33339 4.24707 4.24763 2.33315 6.59995 2.33315H19.4C21.7532 2.33315 23.6665 4.24707 23.6665 6.59971V19.4003Z" fill="white"/>
<path d="M19.9335 7.66631C20.8172 7.66631 21.5335 6.94996 21.5335 6.06631C21.5335 5.18265 20.8172 4.46631 19.9335 4.46631C19.0498 4.46631 18.3335 5.18265 18.3335 6.06631C18.3335 6.94996 19.0498 7.66631 19.9335 7.66631Z" fill="white"/>
<path d="M13 6.59961C9.46462 6.59961 6.59998 9.46457 6.59998 12.9996C6.59998 16.5334 9.46462 19.4002 13 19.4002C16.5344 19.4002 19.4 16.5334 19.4 12.9996C19.4 9.46457 16.5344 6.59961 13 6.59961ZM13 17.2668C10.6438 17.2668 8.73342 15.3564 8.73342 12.9996C8.73342 10.6428 10.6438 8.73305 13 8.73305C15.3561 8.73305 17.2665 10.6428 17.2665 12.9996C17.2665 15.3564 15.3561 17.2668 13 17.2668Z" fill="white"/>
</svg>
