<svg width="31" height="21" viewBox="0 0 31 21" fill="none" xmlns="http://www.w3.org/2000/svg">
<path d="M29.8871 3.44855C29.7317 2.15244 28.5103 0.90887 27.2324 0.74274C19.4394 -0.22518 11.5592 -0.225181 3.76882 0.743109C2.48973 0.90887 1.26836 2.15244 1.11296 3.44855C0.56277 8.1975 0.56277 12.8033 1.11296 17.5522C1.26836 18.8483 2.48973 20.0923 3.76882 20.2577C11.5592 21.2252 19.4398 21.2252 27.2324 20.2577C28.5103 20.0926 29.7317 18.8483 29.8871 17.5522C30.4373 12.8033 30.4373 8.1975 29.8871 3.44855ZM27.4373 17.2681C27.4096 17.4401 27.0925 17.7724 26.9097 17.8123C23.1505 18.2785 19.3059 18.5168 15.5 18.5168C11.6942 18.5168 7.84955 18.2782 4.07222 17.8101C3.90609 17.7724 3.59048 17.4401 3.56162 17.2573C3.03511 12.7141 3.03511 8.28667 3.56421 3.73271C3.59048 3.55992 3.90757 3.22803 4.09183 3.18844C7.84955 2.7215 11.6942 2.48396 15.5011 2.48396C19.3059 2.48396 23.1505 2.72187 26.929 3.19103C27.0914 3.22766 27.4096 3.55955 27.4385 3.74381C27.9646 8.28667 27.9646 12.7137 27.4373 17.2681Z" fill="white"/>
<path d="M13.0332 5.56689V15.4337L20.4332 10.5005L13.0332 5.56689Z" fill="white"/>
</svg>
