<svg width="26" height="18" viewBox="0 0 26 18" fill="none" xmlns="http://www.w3.org/2000/svg">
<path d="M25.5517 0.48291H0.448296C0.200738 0.48291 0 0.683597 0 0.931155V17.0691C0 17.3166 0.200738 17.5173 0.448296 17.5173H25.5517C25.7993 17.5173 26 17.3166 26 17.0691V0.931155C25.9999 0.683597 25.7992 0.48291 25.5517 0.48291Z" fill="#82C3D2"/>
<path d="M3.02228 2.52277C2.98171 2.35098 2.9716 2.28766 3.04869 2.21062C3.08627 2.17304 3.08627 2.11216 3.04869 2.07458C3.01111 2.037 2.95022 2.037 2.91265 2.07458C2.75665 2.23063 2.79387 2.39257 2.83424 2.56406C2.71125 2.52389 2.58368 2.5537 2.51533 2.63993C2.48141 2.68294 2.4158 2.80359 2.53874 2.99626C2.56733 3.04099 2.62644 3.05415 2.67159 3.02581C2.71643 2.99722 2.72948 2.93765 2.70089 2.89297C2.65478 2.8204 2.65341 2.77566 2.66631 2.75931C2.68154 2.73996 2.72877 2.72976 2.77823 2.74728C2.81017 2.75835 2.88441 2.79669 2.88441 2.91247C2.88441 3.00494 2.84165 3.08969 2.76711 3.14474C2.69241 3.19999 2.59572 3.21558 2.50254 3.18664C2.38747 3.15149 2.30708 3.03028 2.30708 2.8918C2.30708 2.79273 2.32831 2.69259 2.36731 2.60484C2.3735 2.59189 2.52056 2.28725 2.55845 2.1737C2.63335 1.9491 2.55723 1.83616 2.50528 1.78899C2.43576 1.72566 2.33415 1.70987 2.2467 1.74821C2.2334 1.7541 2.22243 1.76263 2.2109 1.77055C2.19937 1.76258 2.18835 1.7541 2.1751 1.74821C2.08771 1.70987 1.98614 1.72566 1.91652 1.78899C1.86457 1.83616 1.78845 1.94915 1.86335 2.1737C1.90124 2.28725 2.04825 2.59189 2.05312 2.60204C2.09339 2.69264 2.11467 2.79278 2.11467 2.89185C2.11467 3.03038 2.03433 3.15155 1.91921 3.18669C1.82567 3.21558 1.72929 3.20019 1.65464 3.14479C1.5801 3.08969 1.53734 3.00499 1.53734 2.91252C1.53734 2.79674 1.61158 2.75845 1.64352 2.74733C1.69314 2.72986 1.74011 2.73996 1.75544 2.75936C1.76834 2.77571 1.76697 2.82045 1.72086 2.89302C1.69227 2.93776 1.70532 2.99732 1.75016 3.02586C1.79536 3.05445 1.85467 3.0411 1.88301 2.99631C2.0059 2.80364 1.94034 2.68304 1.90642 2.63998C1.83801 2.55375 1.7105 2.52394 1.58751 2.56411C1.62793 2.39272 1.6651 2.23068 1.50911 2.07463C1.47153 2.03705 1.41064 2.03705 1.37306 2.07463C1.33548 2.11221 1.33548 2.17309 1.37306 2.21067C1.4501 2.28771 1.44009 2.35103 1.39947 2.52282C1.37509 2.62576 1.34483 2.75413 1.34483 2.91237C1.34483 3.01764 1.38185 3.11833 1.44411 3.20106H1.44101C1.38784 3.20106 1.34478 3.24407 1.34478 3.29729C1.34478 3.35046 1.38779 3.39352 1.44101 3.39352H1.44411C1.38185 3.47624 1.34483 3.57689 1.34483 3.68216C1.34483 3.84039 1.37509 3.96877 1.39942 4.07175C1.43999 4.24354 1.4501 4.30687 1.37301 4.3839C1.33543 4.42148 1.33543 4.48237 1.37301 4.51995C1.3918 4.53873 1.41643 4.54813 1.44106 4.54813C1.46564 4.54813 1.49032 4.53873 1.50911 4.51995C1.6651 4.36389 1.62788 4.2019 1.58751 4.03047C1.7105 4.07048 1.83807 4.04083 1.90642 3.9546C1.94034 3.91159 2.00595 3.79093 1.88301 3.59827C1.85452 3.55353 1.79505 3.54022 1.75016 3.56871C1.70532 3.5973 1.69227 3.65687 1.72086 3.70156C1.76697 3.77412 1.76834 3.81886 1.75544 3.83521C1.74016 3.85436 1.69314 3.86451 1.64352 3.84725C1.61158 3.83618 1.53734 3.79784 1.53734 3.68206C1.53734 3.58958 1.5801 3.50483 1.65464 3.44978C1.72934 3.39453 1.82593 3.37874 1.91921 3.40789C2.03428 3.44303 2.11467 3.56424 2.11467 3.70272C2.11467 3.8018 2.09344 3.90194 2.05312 3.99253L1.42288 5.41039C1.37108 5.52689 1.34478 5.65079 1.34478 5.77835C1.34478 5.94253 1.41943 6.09243 1.53693 6.18394C1.41948 6.27545 1.34478 6.42536 1.34478 6.58953C1.34478 6.71714 1.37113 6.841 1.42288 6.95749L2.05302 8.37525C2.09329 8.46584 2.11457 8.56598 2.11457 8.66506C2.11457 8.80359 2.03423 8.92475 1.91911 8.95989C1.82557 8.98904 1.72919 8.9734 1.65454 8.918C1.58 8.8629 1.53724 8.7782 1.53724 8.68573C1.53724 8.56995 1.61148 8.53166 1.64342 8.52054C1.69303 8.50322 1.74001 8.51317 1.75534 8.53257C1.76824 8.54892 1.76687 8.59366 1.72076 8.66623C1.69217 8.71096 1.70522 8.77053 1.75006 8.79907C1.79526 8.82766 1.85457 8.81446 1.88291 8.76952C2.0058 8.57685 1.94024 8.45625 1.90632 8.41318C1.83791 8.32696 1.7104 8.29725 1.58741 8.33732C1.62783 8.16593 1.665 8.00389 1.509 7.84784C1.47143 7.81026 1.41054 7.81026 1.37296 7.84784C1.33538 7.88542 1.33538 7.9463 1.37296 7.98388C1.45 8.06092 1.43999 8.12424 1.39937 8.29603C1.37504 8.39902 1.34478 8.52739 1.34478 8.68563C1.34478 8.79089 1.3818 8.89159 1.44405 8.97432H1.44096C1.38779 8.97432 1.34473 9.01733 1.34473 9.07055C1.34473 9.12376 1.38774 9.16678 1.44096 9.16678H1.44405C1.38175 9.2495 1.34478 9.35015 1.34478 9.45547C1.34478 9.6137 1.37504 9.74208 1.39937 9.84506C1.43994 10.0169 1.45005 10.0802 1.37296 10.1572C1.33538 10.1948 1.33538 10.2557 1.37296 10.2933C1.39175 10.312 1.41638 10.3214 1.44101 10.3214C1.46559 10.3214 1.49027 10.312 1.50905 10.2933C1.66505 10.1372 1.62783 9.97521 1.58746 9.80377C1.71045 9.84379 1.83801 9.81414 1.90637 9.72791C1.94029 9.6849 2.0059 9.56424 1.88296 9.37158C1.85447 9.32684 1.795 9.31353 1.75011 9.34202C1.70527 9.37061 1.69222 9.43018 1.72081 9.47487C1.76692 9.54743 1.76829 9.59217 1.75539 9.60852C1.74011 9.62787 1.69309 9.63808 1.64347 9.62056C1.61153 9.60949 1.53729 9.57115 1.53729 9.45537C1.53729 9.36289 1.58005 9.27814 1.65459 9.22309C1.72929 9.16784 1.82588 9.15205 1.91916 9.1812C2.03423 9.21634 2.11462 9.33755 2.11462 9.47603C2.11462 9.57511 2.09339 9.67525 2.05307 9.76584L1.42288 11.1839C1.37108 11.3003 1.34478 11.4243 1.34478 11.5518C1.34478 11.716 1.41943 11.8659 1.53693 11.9574C1.41948 12.0489 1.34478 12.1988 1.34478 12.363C1.34478 12.4906 1.37113 12.6145 1.42288 12.731L2.05302 14.1487C2.09329 14.2393 2.11457 14.3394 2.11457 14.4385C2.11457 14.5771 2.03423 14.6982 1.91911 14.7334C1.82557 14.7625 1.72919 14.7467 1.65454 14.6915C1.58 14.6364 1.53724 14.5517 1.53724 14.4592C1.53724 14.3434 1.61148 14.3051 1.64342 14.294C1.69303 14.2767 1.74001 14.2866 1.75534 14.306C1.76824 14.3224 1.76687 14.3671 1.72076 14.4397C1.69217 14.4844 1.70522 14.5439 1.75006 14.5725C1.79526 14.6011 1.85457 14.5879 1.88291 14.543C2.0058 14.3503 1.94024 14.2297 1.90632 14.1866C1.83791 14.1002 1.7104 14.0706 1.58741 14.1108C1.62783 13.9394 1.665 13.7774 1.509 13.6213C1.47143 13.5837 1.41054 13.5837 1.37296 13.6213C1.33538 13.6589 1.33538 13.7198 1.37296 13.7573C1.45 13.8344 1.43999 13.8977 1.39937 14.0695C1.37504 14.1725 1.34478 14.3008 1.34478 14.459C1.34478 14.6099 1.41704 14.7535 1.53785 14.844C1.41704 14.9344 1.34478 15.0781 1.34478 15.2289C1.34478 15.3871 1.37504 15.5155 1.39937 15.6185C1.43994 15.7902 1.45005 15.8536 1.37296 15.9306C1.33538 15.9682 1.33538 16.0291 1.37296 16.0667C1.39175 16.0855 1.41638 16.0949 1.44101 16.0949C1.46559 16.0949 1.49027 16.0855 1.50905 16.0667C1.66505 15.9106 1.62783 15.7486 1.58746 15.5772C1.71045 15.6172 1.83801 15.5875 1.90637 15.5013C1.94029 15.4583 2.0059 15.3377 1.88296 15.145C1.85447 15.1003 1.795 15.0871 1.75011 15.1154C1.70527 15.144 1.69222 15.2036 1.72081 15.2483C1.76692 15.3208 1.76829 15.3656 1.75539 15.3819C1.74011 15.4013 1.69309 15.4112 1.64347 15.394C1.61153 15.3829 1.53729 15.3446 1.53729 15.2288C1.53729 15.1363 1.58005 15.0516 1.65459 14.9965C1.72929 14.9413 1.82588 14.9257 1.91916 14.9546C2.03423 14.9898 2.11462 15.111 2.11462 15.2494C2.11462 15.3485 2.09339 15.4487 2.05439 15.5364C2.0482 15.5494 1.90114 15.854 1.86325 15.9675C1.78835 16.1921 1.86447 16.3051 1.91642 16.3523C1.96085 16.3927 2.01808 16.4139 2.07658 16.4139C2.10974 16.4139 2.14336 16.407 2.17505 16.3931C2.18835 16.3872 2.19932 16.3787 2.21085 16.3707C2.22238 16.3787 2.2334 16.3872 2.24665 16.3931C2.27829 16.407 2.31195 16.4139 2.34512 16.4139C2.40346 16.4139 2.46079 16.3927 2.50528 16.3523C2.55723 16.3051 2.63335 16.1921 2.55845 15.9675C2.52056 15.854 2.37355 15.5494 2.36868 15.5392C2.32841 15.4486 2.30713 15.3485 2.30713 15.2494C2.30713 15.1109 2.38747 14.9896 2.50259 14.9546C2.59618 14.9256 2.69251 14.9412 2.76716 14.9965C2.8417 15.0516 2.88446 15.1363 2.88446 15.2287C2.88446 15.3445 2.81022 15.3828 2.77828 15.3939C2.72887 15.4112 2.68154 15.4013 2.66636 15.3819C2.65346 15.3655 2.65483 15.3208 2.70094 15.2482C2.72953 15.2035 2.71648 15.144 2.67164 15.1154C2.6267 15.0872 2.56743 15.1004 2.53879 15.1449C2.4159 15.3376 2.48146 15.4582 2.51538 15.5013C2.58379 15.5875 2.7113 15.6172 2.83429 15.5771C2.79387 15.7485 2.7567 15.9106 2.9127 16.0666C2.93149 16.0854 2.95611 16.0948 2.98074 16.0948C3.00537 16.0948 3.03 16.0854 3.04879 16.0666C3.08637 16.029 3.08637 15.9682 3.04879 15.9306C2.97175 15.8535 2.98176 15.7902 3.02238 15.6184C3.04671 15.5154 3.07697 15.3871 3.07697 15.2288C3.07697 15.078 3.00471 14.9344 2.8839 14.8439C3.00471 14.7534 3.07697 14.6099 3.07697 14.459C3.07697 14.3008 3.04671 14.1724 3.02238 14.0694C2.98181 13.8977 2.9717 13.8343 3.04879 13.7572C3.08637 13.7197 3.08637 13.6588 3.04879 13.6212C3.01121 13.5836 2.95032 13.5836 2.91275 13.6212C2.75675 13.7772 2.79397 13.9392 2.83434 14.1107C2.71135 14.0705 2.58379 14.1001 2.51544 14.1865C2.48151 14.2296 2.4159 14.3502 2.53885 14.5429C2.56743 14.5876 2.62654 14.6008 2.67169 14.5724C2.71653 14.5438 2.72958 14.4843 2.70099 14.4396C2.65488 14.367 2.65351 14.3223 2.66641 14.3059C2.68164 14.2866 2.72887 14.2766 2.77833 14.2939C2.81027 14.305 2.88451 14.3433 2.88451 14.4591C2.88451 14.5516 2.84175 14.6363 2.76721 14.6914C2.69251 14.7466 2.59582 14.7624 2.50264 14.7333C2.38757 14.6981 2.30718 14.5769 2.30718 14.4384C2.30718 14.3393 2.32841 14.2392 2.36873 14.1486L2.99887 12.7309C3.05067 12.6144 3.07697 12.4905 3.07697 12.3629C3.07697 12.1987 3.00232 12.0488 2.88482 11.9573C3.00227 11.8658 3.07697 11.7159 3.07697 11.5517C3.07697 11.4241 3.05062 11.3002 2.99887 11.1838L2.36878 9.7661C2.32851 9.6755 2.30723 9.57536 2.30723 9.47629C2.30723 9.33776 2.38757 9.21659 2.50269 9.18145C2.59628 9.15251 2.69261 9.1681 2.76726 9.22335C2.84181 9.27844 2.88456 9.36315 2.88456 9.45562C2.88456 9.5714 2.81032 9.60969 2.77838 9.62081C2.72897 9.63828 2.68164 9.62817 2.66646 9.60878C2.65356 9.59242 2.65493 9.54769 2.70104 9.47512C2.72963 9.43038 2.71658 9.37087 2.67174 9.34228C2.6268 9.31409 2.56754 9.32725 2.5389 9.37183C2.41601 9.5645 2.48156 9.6851 2.51549 9.72816C2.58389 9.81439 2.7114 9.8441 2.83439 9.80403C2.79397 9.97542 2.7568 10.1375 2.9128 10.2935C2.93159 10.3123 2.95622 10.3217 2.98084 10.3217C3.00547 10.3217 3.0301 10.3123 3.04889 10.2935C3.08647 10.2559 3.08647 10.195 3.04889 10.1575C2.97186 10.0804 2.98186 10.0171 3.02248 9.84531C3.04681 9.74233 3.07707 9.61396 3.07707 9.45572C3.07707 9.35045 3.04005 9.24975 2.9778 9.16703H2.9809C3.03406 9.16703 3.07713 9.12402 3.07713 9.0708C3.07713 9.01763 3.03411 8.97457 2.9809 8.97457H2.9778C3.04011 8.89185 3.07707 8.79125 3.07707 8.68588C3.07707 8.52765 3.04681 8.39927 3.02248 8.29629C2.98191 8.12449 2.97181 8.06117 3.04889 7.98413C3.08647 7.94656 3.08647 7.88567 3.04889 7.84809C3.01131 7.81051 2.95043 7.81051 2.91285 7.84809C2.75685 8.00414 2.79407 8.16613 2.83444 8.33757C2.71145 8.29756 2.58389 8.32721 2.51554 8.41344C2.48161 8.45645 2.41601 8.57711 2.53895 8.76977C2.56754 8.81451 2.62665 8.82751 2.67179 8.79932C2.71663 8.77073 2.72968 8.71117 2.70109 8.66648C2.65498 8.59391 2.65361 8.54918 2.66651 8.53282C2.68174 8.51348 2.72897 8.50352 2.77843 8.52079C2.81037 8.53186 2.88461 8.5702 2.88461 8.68598C2.88461 8.77845 2.84186 8.86321 2.76731 8.91825C2.69261 8.9735 2.59592 8.98909 2.50274 8.96015C2.38767 8.92501 2.30728 8.80379 2.30728 8.66531C2.30728 8.56624 2.32851 8.4661 2.36883 8.3755L2.99897 6.95775C3.05077 6.84125 3.07707 6.71735 3.07707 6.58979C3.07707 6.42561 3.00243 6.2757 2.88492 6.1842C3.00238 6.09269 3.07707 5.94278 3.07707 5.77861C3.07707 5.65099 3.05072 5.52714 2.99897 5.41065L2.36883 3.99289C2.32856 3.90229 2.30728 3.80215 2.30728 3.70308C2.30728 3.56455 2.38762 3.44338 2.50274 3.40824C2.59633 3.3793 2.69266 3.39489 2.76731 3.45014C2.84186 3.50524 2.88461 3.58994 2.88461 3.68241C2.88461 3.79819 2.81037 3.83648 2.77843 3.8476C2.72902 3.86492 2.68169 3.85471 2.66651 3.83557C2.65361 3.81922 2.65498 3.77448 2.70109 3.70191C2.72968 3.65717 2.71663 3.59761 2.67179 3.56907C2.62685 3.54088 2.56759 3.55383 2.53895 3.59857C2.41606 3.79124 2.48161 3.91184 2.51554 3.9549C2.58394 4.04113 2.71145 4.07084 2.83444 4.03077C2.79402 4.20216 2.75685 4.3642 2.91285 4.52025C2.93164 4.53904 2.95627 4.54843 2.9809 4.54843C3.00552 4.54843 3.03015 4.53904 3.04894 4.52025C3.08652 4.48267 3.08652 4.42178 3.04894 4.38421C2.97191 4.30717 2.98191 4.24385 3.02254 4.07205C3.04686 3.96907 3.07713 3.8407 3.07713 3.68246C3.07713 3.57719 3.04011 3.47649 2.97785 3.39377H2.98095C3.03411 3.39377 3.07718 3.35076 3.07718 3.29754C3.07718 3.24437 3.03416 3.20131 2.98095 3.20131H2.97785C3.04016 3.11859 3.07713 3.01799 3.07713 2.91262C3.07682 2.75413 3.04655 2.62576 3.02228 2.52277ZM2.04576 2.11272C2.01158 2.01014 2.02352 1.95169 2.04606 1.93117C2.06079 1.91726 2.08314 1.91782 2.0973 1.92422C2.11467 1.93193 2.11467 1.94417 2.11467 1.95016C2.11467 2.00333 2.15768 2.04639 2.2109 2.04639C2.26407 2.04639 2.30713 2.00338 2.30713 1.95016C2.30713 1.94417 2.30713 1.93193 2.3245 1.92422C2.33841 1.91782 2.3606 1.91726 2.37574 1.93117C2.39828 1.95169 2.41022 2.01014 2.37604 2.11272C2.35116 2.18711 2.26112 2.38079 2.21095 2.48591C2.1618 2.38323 2.0708 2.18762 2.04576 2.11272ZM2.21085 6.08304C2.23847 6.12057 2.26971 6.15551 2.30769 6.18394C2.26971 6.21243 2.23847 6.24732 2.21085 6.28484C2.18322 6.24732 2.15199 6.21238 2.11401 6.18394C2.15199 6.15545 2.18322 6.12062 2.21085 6.08304ZM2.21085 11.8565C2.23847 11.894 2.26971 11.9289 2.30769 11.9574C2.26971 11.9858 2.23847 12.0207 2.21085 12.0583C2.18322 12.0207 2.15199 11.9858 2.11401 11.9574C2.15199 11.9289 2.18322 11.8941 2.21085 11.8565ZM2.37589 16.0286C2.41006 16.1312 2.39813 16.1897 2.37558 16.2102C2.36045 16.2239 2.33826 16.2233 2.32435 16.2171C2.30698 16.2094 2.30698 16.1972 2.30698 16.1912C2.30698 16.138 2.26397 16.095 2.21075 16.095C2.15753 16.095 2.11452 16.138 2.11452 16.1912C2.11452 16.1972 2.11452 16.2094 2.09715 16.2171C2.08303 16.2233 2.06069 16.2239 2.04591 16.2102C2.02337 16.1897 2.01143 16.1312 2.04561 16.0286C2.07049 15.9542 2.16053 15.7606 2.2107 15.6554C2.25985 15.7581 2.35085 15.9537 2.37589 16.0286ZM2.30678 14.8441C2.27037 14.8724 2.23807 14.9063 2.21085 14.9447C2.18368 14.9063 2.15133 14.8724 2.11492 14.8441C2.15133 14.8157 2.18363 14.7818 2.21085 14.7435C2.23802 14.7818 2.27031 14.8157 2.30678 14.8441ZM2.82281 12.6527L2.2108 14.0297L1.59878 12.6527C1.55852 12.5621 1.53724 12.462 1.53724 12.3629C1.53724 12.2244 1.61757 12.1031 1.73269 12.0681C1.82623 12.0391 1.92272 12.0547 1.99726 12.11C2.07181 12.165 2.11457 12.2498 2.11457 12.3422C2.11457 12.458 2.04033 12.4963 2.00839 12.5074C1.95877 12.5247 1.9116 12.5148 1.89646 12.4954C1.88357 12.479 1.88494 12.4343 1.93105 12.3617C1.95964 12.317 1.94658 12.2574 1.90174 12.2289C1.8568 12.2007 1.79754 12.2139 1.7689 12.2584C1.64601 12.4511 1.71157 12.5717 1.74549 12.6148C1.81516 12.7027 1.94623 12.733 2.07156 12.6892C2.08583 12.6842 2.1003 12.6781 2.11457 12.6708V12.9142C2.11457 12.9141 2.11442 12.914 2.11442 12.914C2.11152 12.8633 2.06958 12.8234 2.01839 12.8234C1.96522 12.8234 1.92216 12.8664 1.92216 12.9196C1.92216 12.9824 1.96603 13.0912 2.11457 13.125V13.3045C2.11457 13.3576 2.15758 13.4007 2.2108 13.4007C2.26402 13.4007 2.30703 13.3577 2.30703 13.3045V13.125C2.45556 13.0912 2.49944 12.9824 2.49944 12.9196C2.49944 12.8664 2.45653 12.8202 2.40341 12.8202C2.35024 12.8202 2.30738 12.8601 2.30738 12.9133C2.30733 12.9134 2.30703 12.9137 2.30698 12.9138V12.6709C2.32125 12.6782 2.33572 12.6843 2.34999 12.6893C2.47532 12.733 2.60633 12.7028 2.67606 12.6149C2.70998 12.5719 2.77559 12.4512 2.65265 12.2585C2.62406 12.2138 2.56469 12.2006 2.5198 12.229C2.47496 12.2576 2.46191 12.3171 2.4905 12.3618C2.53661 12.4344 2.53798 12.4791 2.52508 12.4955C2.50985 12.5148 2.46267 12.5248 2.41316 12.5075C2.38122 12.4964 2.30698 12.4581 2.30698 12.3423C2.30698 12.2499 2.34974 12.1651 2.42428 12.1101C2.49898 12.0548 2.59567 12.039 2.68885 12.0682C2.80392 12.1033 2.88431 12.2245 2.88431 12.363C2.88441 12.462 2.86318 12.5622 2.82281 12.6527ZM2.82281 11.262C2.86308 11.3526 2.88436 11.4527 2.88436 11.5518C2.88436 11.6903 2.80402 11.8115 2.6889 11.8467C2.59552 11.8758 2.49888 11.86 2.42433 11.8048C2.34979 11.7497 2.30703 11.665 2.30703 11.5725C2.30703 11.4567 2.38127 11.4184 2.41321 11.4073C2.46272 11.39 2.50995 11.3999 2.52513 11.4193C2.53803 11.4357 2.53666 11.4804 2.49055 11.553C2.46196 11.5977 2.47501 11.6572 2.51985 11.6858C2.56505 11.7144 2.62436 11.7012 2.6527 11.6563C2.77559 11.4636 2.71003 11.343 2.67611 11.2999C2.60638 11.212 2.47537 11.1821 2.35004 11.2255C2.33577 11.2305 2.3213 11.2367 2.30703 11.2439V11.0005L2.30718 11.0008C2.31008 11.0513 2.35202 11.0914 2.40321 11.0914C2.45638 11.0914 2.49944 11.0484 2.49944 10.9952C2.49944 10.9324 2.45556 10.8235 2.30703 10.7898V10.6103C2.30703 10.5571 2.26402 10.5141 2.2108 10.5141C2.15758 10.5141 2.11457 10.5571 2.11457 10.6103V10.7898C1.96603 10.8235 1.92216 10.9324 1.92216 10.9952C1.92216 11.0483 1.96507 11.0945 2.01819 11.0945C2.07135 11.0945 2.11421 11.0547 2.11421 11.0015C2.11426 11.0013 2.11457 11.0011 2.11457 11.0011L2.11462 11.2438C2.10035 11.2366 2.08588 11.2304 2.07161 11.2255C1.94628 11.1821 1.81521 11.212 1.74554 11.2999C1.71162 11.3429 1.64601 11.4636 1.76895 11.6562C1.79754 11.701 1.85691 11.714 1.9018 11.6858C1.94664 11.6572 1.95969 11.5976 1.9311 11.5529C1.88499 11.4804 1.88362 11.4356 1.89651 11.4193C1.91165 11.3999 1.95882 11.39 2.00844 11.4072C2.04038 11.4183 2.11462 11.4567 2.11462 11.5724C2.11462 11.6649 2.07186 11.7497 1.99732 11.8047C1.92262 11.86 1.82613 11.8757 1.73275 11.8466C1.61768 11.8115 1.53729 11.6902 1.53729 11.5518C1.53729 11.4527 1.55852 11.3525 1.59884 11.262L2.21085 9.88497L2.82281 11.262ZM2.30678 9.0707C2.27037 9.09903 2.23807 9.13296 2.21085 9.1713C2.18368 9.13296 2.15133 9.09908 2.11492 9.0707C2.15133 9.04236 2.18363 9.00844 2.21085 8.9701C2.23802 9.00839 2.27031 9.04231 2.30678 9.0707ZM2.82281 6.87934L2.2108 8.25632L1.59878 6.87934C1.55852 6.78875 1.53724 6.68861 1.53724 6.58953C1.53724 6.451 1.61757 6.32984 1.73269 6.2947C1.82623 6.26575 1.92272 6.28134 1.99726 6.33659C2.07181 6.39169 2.11457 6.47639 2.11457 6.56886C2.11457 6.68464 2.04033 6.72293 2.00839 6.73405C1.95877 6.75152 1.9116 6.74142 1.89646 6.72202C1.88357 6.70567 1.88494 6.66093 1.93105 6.58836C1.95964 6.54363 1.94658 6.48406 1.90174 6.45552C1.8568 6.42718 1.79754 6.44029 1.7689 6.48507C1.64601 6.67774 1.71157 6.79834 1.74549 6.84141C1.81516 6.92936 1.94623 6.95942 2.07156 6.9158C2.08583 6.91087 2.1003 6.90473 2.11457 6.89747V7.14081L2.11442 7.14051C2.11152 7.08998 2.06958 7.04991 2.01839 7.04991C1.96522 7.04991 1.92216 7.09293 1.92216 7.14614C1.92216 7.20891 1.96603 7.31778 2.11457 7.3515V7.53101C2.11457 7.58418 2.15758 7.62724 2.2108 7.62724C2.26402 7.62724 2.30703 7.58423 2.30703 7.53101V7.3515C2.45556 7.31778 2.49944 7.20891 2.49944 7.14614C2.49944 7.09298 2.45653 7.04671 2.40341 7.04671C2.35024 7.04671 2.30738 7.08658 2.30738 7.13975C2.30733 7.1399 2.30703 7.14015 2.30703 7.14015L2.30698 6.89742C2.32125 6.90468 2.33572 6.91082 2.34999 6.91575C2.47532 6.95932 2.60633 6.92926 2.67606 6.84136C2.70998 6.79834 2.77559 6.67769 2.65265 6.48502C2.62406 6.44008 2.56469 6.42698 2.5198 6.45547C2.47496 6.48406 2.46191 6.54363 2.4905 6.58831C2.53661 6.66088 2.53798 6.70562 2.52508 6.72197C2.50985 6.74132 2.46267 6.75152 2.41316 6.734C2.38122 6.72293 2.30698 6.68459 2.30698 6.56881C2.30698 6.47634 2.34974 6.39159 2.42428 6.33654C2.49898 6.28129 2.59567 6.2657 2.68885 6.29465C2.80392 6.32979 2.88431 6.451 2.88431 6.58948C2.88441 6.68861 2.86318 6.78875 2.82281 6.87934ZM2.82281 5.4886C2.86308 5.57919 2.88436 5.67933 2.88436 5.7784C2.88436 5.91693 2.80402 6.0381 2.6889 6.07324C2.59552 6.10239 2.49888 6.0866 2.42433 6.03134C2.34979 5.97625 2.30703 5.89154 2.30703 5.79907C2.30703 5.68329 2.38127 5.645 2.41321 5.63388C2.46272 5.61656 2.50995 5.62652 2.52513 5.64592C2.53803 5.66227 2.53666 5.70701 2.49055 5.77957C2.46196 5.82431 2.47501 5.88383 2.51985 5.91242C2.56505 5.94075 2.62436 5.9278 2.6527 5.88286C2.77559 5.6902 2.71003 5.56959 2.67611 5.52653C2.60638 5.43858 2.47537 5.40851 2.35004 5.45213C2.33577 5.45706 2.3213 5.46321 2.30703 5.47047V5.22712C2.30703 5.22717 2.30718 5.22728 2.30718 5.22728C2.31008 5.27796 2.35202 5.31792 2.40321 5.31792C2.45638 5.31792 2.49944 5.27491 2.49944 5.22169C2.49944 5.15892 2.45556 5.05005 2.30703 5.01633V4.83682C2.30703 4.78365 2.26402 4.74059 2.2108 4.74059C2.15758 4.74059 2.11457 4.7836 2.11457 4.83682V5.01633C1.96603 5.05005 1.92216 5.15892 1.92216 5.22169C1.92216 5.27486 1.96507 5.32112 2.01819 5.32112C2.07135 5.32112 2.11421 5.28126 2.11421 5.22809C2.11426 5.22794 2.11457 5.22768 2.11462 5.22753V5.47042C2.10035 5.46315 2.08588 5.45701 2.07161 5.45208C1.94628 5.40851 1.81521 5.43858 1.74554 5.52648C1.71162 5.56949 1.64601 5.69015 1.76895 5.88281C1.79754 5.92755 1.85691 5.94055 1.9018 5.91236C1.94664 5.88377 1.95969 5.82421 1.9311 5.77952C1.88499 5.70695 1.88362 5.66222 1.89651 5.64587C1.91165 5.62652 1.95882 5.61656 2.00844 5.63383C2.04038 5.6449 2.11462 5.68324 2.11462 5.79902C2.11462 5.89149 2.07186 5.97625 1.99732 6.03129C1.92262 6.08654 1.82613 6.10234 1.73275 6.07319C1.61768 6.03805 1.53729 5.91683 1.53729 5.77835C1.53729 5.67928 1.55852 5.57914 1.59884 5.48855L2.21085 4.11156L2.82281 5.4886ZM2.11487 3.29729C2.15128 3.26895 2.18358 3.23503 2.2108 3.19669C2.23797 3.23503 2.27031 3.2689 2.30672 3.29729C2.27031 3.32562 2.23802 3.35954 2.2108 3.39788C2.18363 3.35954 2.15133 3.32562 2.11487 3.29729Z" fill="#FFE15A"/>
<path d="M13.7485 10.2512C15.0276 10.2512 16.0645 9.21434 16.0645 7.9353C16.0645 6.65626 15.0276 5.61938 13.7485 5.61938C12.4695 5.61938 11.4326 6.65626 11.4326 7.9353C11.4326 9.21434 12.4695 10.2512 13.7485 10.2512Z" fill="#FFE15A"/>
<path d="M13.9225 4.98254C13.9225 5.07847 13.8447 5.15626 13.7488 5.15626C13.6529 5.15626 13.5751 5.07847 13.5751 4.98254C13.5751 4.88662 13.7488 4.46143 13.7488 4.46143C13.7488 4.46143 13.9225 4.88662 13.9225 4.98254Z" fill="#FFE15A"/>
<path d="M13.5751 10.8883C13.5751 10.7924 13.6529 10.7146 13.7488 10.7146C13.8447 10.7146 13.9225 10.7924 13.9225 10.8883C13.9225 10.9842 13.7488 11.4094 13.7488 11.4094C13.7488 11.4094 13.5751 10.9843 13.5751 10.8883Z" fill="#FFE15A"/>
<path d="M16.7018 8.10916C16.6059 8.10916 16.5281 8.03137 16.5281 7.93544C16.5281 7.83951 16.6059 7.76172 16.7018 7.76172C16.7977 7.76172 17.2229 7.93544 17.2229 7.93544C17.2229 7.93544 16.7977 8.10916 16.7018 8.10916Z" fill="#FFE15A"/>
<path d="M10.7958 7.76196C10.8917 7.76196 10.9695 7.83976 10.9695 7.93569C10.9695 8.03161 10.8917 8.10941 10.7958 8.10941C10.6998 8.10941 10.2747 7.93569 10.2747 7.93569C10.2747 7.93569 10.6998 7.76196 10.7958 7.76196Z" fill="#FFE15A"/>
<path d="M15.9598 5.97012C15.8919 6.03796 15.782 6.03796 15.7141 5.97012C15.6462 5.90228 15.6463 5.79233 15.7141 5.72444C15.782 5.65654 16.2054 5.47876 16.2054 5.47876C16.2054 5.47876 16.0277 5.90228 15.9598 5.97012Z" fill="#FFE15A"/>
<path d="M11.5379 9.90049C11.6057 9.83265 11.7157 9.83265 11.7836 9.90049C11.8515 9.96833 11.8514 10.0783 11.7836 10.1462C11.7157 10.2141 11.2922 10.3918 11.2922 10.3918C11.2922 10.3918 11.47 9.96838 11.5379 9.90049Z" fill="#FFE15A"/>
<path d="M15.7142 10.1464C15.6464 10.0786 15.6464 9.96865 15.7142 9.90075C15.7821 9.83286 15.892 9.83291 15.9599 9.90075C16.0278 9.9686 16.2056 10.3921 16.2056 10.3921C16.2056 10.3921 15.7821 10.2142 15.7142 10.1464Z" fill="#FFE15A"/>
<path d="M11.7835 5.72438C11.8513 5.79223 11.8513 5.90217 11.7835 5.97006C11.7156 6.03795 11.6057 6.0379 11.5378 5.97006C11.4699 5.90222 11.2921 5.47876 11.2921 5.47876C11.2921 5.47876 11.7156 5.65659 11.7835 5.72438Z" fill="#FFE15A"/>
<path d="M12.7793 5.14063C12.816 5.22929 12.7739 5.33086 12.6852 5.36757C12.5965 5.40429 12.495 5.36219 12.4583 5.27352C12.4215 5.18486 12.4193 4.72559 12.4193 4.72559C12.4193 4.72559 12.7425 5.05196 12.7793 5.14063Z" fill="#FFE15A"/>
<path d="M14.7185 10.7302C14.6818 10.6415 14.7238 10.54 14.8125 10.5033C14.9012 10.4665 15.0027 10.5086 15.0394 10.5973C15.0761 10.686 15.0784 11.1452 15.0784 11.1452C15.0784 11.1452 14.7551 10.8188 14.7185 10.7302Z" fill="#FFE15A"/>
<path d="M16.5434 6.96566C16.4548 7.00237 16.3532 6.96027 16.3165 6.87161C16.2798 6.78294 16.3219 6.68138 16.4105 6.64466C16.4992 6.60795 16.9584 6.60571 16.9584 6.60571C16.9584 6.60571 16.6321 6.92889 16.5434 6.96566Z" fill="#FFE15A"/>
<path d="M10.9542 8.90487C11.0429 8.86815 11.1444 8.91025 11.1811 8.99892C11.2179 9.08759 11.1758 9.18916 11.0871 9.22588C10.9984 9.2626 10.5392 9.26483 10.5392 9.26483C10.5392 9.26483 10.8655 8.94164 10.9542 8.90487Z" fill="#FFE15A"/>
<path d="M15.0394 5.27371C15.0027 5.36237 14.9011 5.40442 14.8125 5.36775C14.7238 5.33104 14.6818 5.22942 14.7184 5.14081C14.7552 5.0522 15.0783 4.72583 15.0783 4.72583C15.0783 4.72583 15.0761 5.18509 15.0394 5.27371Z" fill="#FFE15A"/>
<path d="M12.4583 10.5973C12.495 10.5086 12.5967 10.4666 12.6853 10.5032C12.774 10.5399 12.816 10.6416 12.7793 10.7302C12.7426 10.8188 12.4194 11.1451 12.4194 11.1451C12.4194 11.1451 12.4216 10.6859 12.4583 10.5973Z" fill="#FFE15A"/>
<path d="M16.4106 9.22608C16.322 9.18936 16.2799 9.08775 16.3166 8.99914C16.3533 8.91047 16.4549 8.86843 16.5435 8.90509C16.6321 8.94176 16.9585 9.26498 16.9585 9.26498C16.9585 9.26498 16.4992 9.26284 16.4106 9.22608Z" fill="#FFE15A"/>
<path d="M11.0869 6.64461C11.1756 6.68133 11.2176 6.78294 11.181 6.87155C11.1443 6.96017 11.0427 7.00226 10.954 6.9656C10.8654 6.92888 10.5391 6.60571 10.5391 6.60571C10.5391 6.60571 10.9984 6.60785 11.0869 6.64461Z" fill="#FFE15A"/>
<path d="M13.3432 5.00531C13.3619 5.0994 13.3008 5.19086 13.2066 5.20955C13.1125 5.22829 13.0211 5.1672 13.0024 5.07305C12.9836 4.97895 13.0711 4.52808 13.0711 4.52808C13.0711 4.52808 13.3244 4.91121 13.3432 5.00531Z" fill="#FFE15A"/>
<path d="M14.1546 10.8653C14.1359 10.7712 14.197 10.6798 14.2911 10.6611C14.3853 10.6424 14.4767 10.7034 14.4954 10.7976C14.5141 10.8917 14.4267 11.3426 14.4267 11.3426C14.4267 11.3426 14.1733 10.9594 14.1546 10.8653Z" fill="#FFE15A"/>
<path d="M16.6789 7.52966C16.5848 7.5484 16.4934 7.48731 16.4747 7.39316C16.456 7.29901 16.517 7.2076 16.6112 7.18891C16.7053 7.17017 17.1562 7.25762 17.1562 7.25762C17.1562 7.25762 16.773 7.51098 16.6789 7.52966Z" fill="#FFE15A"/>
<path d="M10.8187 8.34127C10.9128 8.32253 11.0042 8.38362 11.0229 8.47777C11.0417 8.57193 10.9806 8.66333 10.8864 8.68202C10.7923 8.70076 10.3414 8.61331 10.3414 8.61331C10.3414 8.61331 10.7246 8.35996 10.8187 8.34127Z" fill="#FFE15A"/>
<path d="M15.5339 5.57648C15.4806 5.65625 15.3727 5.67768 15.2929 5.62436C15.2131 5.57104 15.1917 5.46318 15.245 5.38341C15.2983 5.30363 15.6789 5.04663 15.6789 5.04663C15.6789 5.04663 15.5871 5.49665 15.5339 5.57648Z" fill="#FFE15A"/>
<path d="M11.9638 10.2942C12.0171 10.2145 12.125 10.193 12.2048 10.2464C12.2845 10.2996 12.306 10.4075 12.2527 10.4873C12.1994 10.5671 11.8187 10.8241 11.8187 10.8241C11.8187 10.8241 11.9105 10.3741 11.9638 10.2942Z" fill="#FFE15A"/>
<path d="M16.1077 9.72052C16.0279 9.66725 16.0065 9.55933 16.0598 9.47955C16.1132 9.39977 16.221 9.37834 16.3008 9.43166C16.3806 9.48493 16.6376 9.86561 16.6376 9.86561C16.6376 9.86561 16.1875 9.77379 16.1077 9.72052Z" fill="#FFE15A"/>
<path d="M11.3901 6.15045C11.4699 6.20372 11.4913 6.31163 11.438 6.3914C11.3847 6.47118 11.2768 6.49261 11.197 6.43929C11.1172 6.38597 10.8602 6.00537 10.8602 6.00537C10.8602 6.00537 11.3104 6.09718 11.3901 6.15045Z" fill="#FFE15A"/>
<path d="M12.2527 5.3836C12.3059 5.46338 12.2845 5.57123 12.2048 5.62455C12.125 5.67787 12.0171 5.65639 11.9638 5.57667C11.9105 5.49689 11.8187 5.04688 11.8187 5.04688C11.8187 5.04688 12.1994 5.30387 12.2527 5.3836Z" fill="#FFE15A"/>
<path d="M15.2451 10.4873C15.1918 10.4075 15.2133 10.2996 15.293 10.2463C15.3727 10.1931 15.4806 10.2145 15.534 10.2942C15.5872 10.374 15.6791 10.824 15.6791 10.824C15.6791 10.824 15.2984 10.567 15.2451 10.4873Z" fill="#FFE15A"/>
<path d="M16.3006 6.43929C16.2209 6.49256 16.113 6.47113 16.0597 6.39141C16.0064 6.31163 16.0278 6.20377 16.1076 6.15045C16.1873 6.09718 16.6374 6.00537 16.6374 6.00537C16.6374 6.00537 16.3804 6.38602 16.3006 6.43929Z" fill="#FFE15A"/>
<path d="M11.197 9.43163C11.2767 9.37835 11.3846 9.39979 11.4379 9.47952C11.4912 9.5593 11.4698 9.66716 11.39 9.72048C11.3103 9.77376 10.8602 9.86557 10.8602 9.86557C10.8602 9.86557 11.1172 9.4849 11.197 9.43163Z" fill="#FFE15A"/>
<path d="M14.4954 5.07306C14.4766 5.16715 14.3852 5.22829 14.2911 5.20955C14.197 5.19082 14.1359 5.09941 14.1546 5.00531C14.1734 4.91122 14.4266 4.52808 14.4266 4.52808C14.4266 4.52808 14.514 4.97896 14.4954 5.07306Z" fill="#FFE15A"/>
<path d="M13.0024 10.7976C13.0211 10.7035 13.1125 10.6424 13.2066 10.6611C13.3007 10.6798 13.3619 10.7712 13.3431 10.8653C13.3244 10.9594 13.0711 11.3426 13.0711 11.3426C13.0711 11.3426 12.9837 10.8917 13.0024 10.7976Z" fill="#FFE15A"/>
<path d="M16.6112 8.68177C16.5171 8.66303 16.456 8.57163 16.4747 8.47753C16.4934 8.38343 16.5848 8.32228 16.6789 8.34102C16.773 8.35976 17.1562 8.61306 17.1562 8.61306C17.1562 8.61306 16.7053 8.70046 16.6112 8.68177Z" fill="#FFE15A"/>
<path d="M10.8864 7.1889C10.9805 7.20764 11.0416 7.29905 11.0229 7.39315C11.0042 7.48725 10.9128 7.54839 10.8187 7.52965C10.7246 7.51091 10.3414 7.25761 10.3414 7.25761C10.3414 7.25761 10.7923 7.17021 10.8864 7.1889Z" fill="#FFE15A"/>
<path d="M19.1966 8.54478C19.1288 8.51624 19.0512 8.54895 19.0229 8.61638C19.0229 8.61669 19.0229 8.61669 19.0229 8.61669C19.0224 8.61796 19.0198 8.6242 19.0153 8.63487C18.9149 8.86937 18.7072 9.2121 18.4975 9.53451C18.6928 8.90568 18.8714 8.23405 18.8838 8.18683C18.9025 8.11629 18.8607 8.04388 18.7903 8.02473C18.7198 8.00579 18.6473 8.04682 18.6275 8.11705C18.5364 8.44368 18.3499 8.87354 18.1779 9.23744C18.2095 8.8317 18.2154 8.45581 18.2158 8.42859C18.2169 8.35674 18.1606 8.29732 18.0887 8.29392C18.0211 8.296 17.9559 8.34531 17.9506 8.41712C17.7805 10.7565 15.5295 11.803 15.3103 11.8993C15.1956 11.9107 14.6614 11.9709 14.1766 12.1392C14.1217 12.1583 14.0749 12.1775 14.0283 12.1965C14.0109 12.19 13.9924 12.1863 13.9728 12.1875C12.4848 12.2951 11.2984 11.6847 10.4457 10.377C9.8014 9.38892 9.59934 8.35176 9.59736 8.3414C9.58375 8.26929 9.51469 8.22283 9.44227 8.23558C9.37016 8.24929 9.32279 8.31855 9.33645 8.39066C9.34183 8.4193 9.43049 8.87202 9.67465 9.46783C9.34797 8.95215 9.12032 8.32744 9.04019 8.00208C9.03856 7.99558 9.0344 7.99066 9.03196 7.98467C9.0282 7.97547 9.02506 7.96623 9.01952 7.95826C9.01561 7.95262 9.01048 7.94851 9.00586 7.94358C8.9986 7.93592 8.99164 7.9284 8.98276 7.92266C8.97768 7.91936 8.97199 7.91774 8.96646 7.91515C8.95665 7.91058 8.94706 7.90606 8.93614 7.90397C8.92857 7.9025 8.92085 7.90347 8.91298 7.90331C8.90501 7.90321 8.89749 7.90118 8.88932 7.9026C8.88754 7.90291 8.88617 7.90413 8.88439 7.90453C8.88267 7.90489 8.88104 7.90433 8.87931 7.90469C8.87221 7.90641 8.86677 7.91088 8.86027 7.91367C8.85199 7.91728 8.84351 7.91997 8.83625 7.925C8.82909 7.92992 8.82376 7.93632 8.81782 7.94247C8.81188 7.94856 8.80568 7.95394 8.80101 7.961C8.79629 7.96816 8.79375 7.97624 8.7904 7.98421C8.7872 7.99198 8.78349 7.99929 8.78181 8.00767C8.78009 8.01625 8.78085 8.02509 8.7809 8.03408C8.7809 8.04124 8.77892 8.04809 8.78019 8.0554C8.7807 8.05855 8.78171 8.0617 8.78227 8.06475V8.06526C8.78242 8.06581 8.78263 8.06658 8.78278 8.06718C8.86494 8.55128 9.06076 9.0531 9.23783 9.43579C8.95665 9.11673 8.72169 8.74912 8.63841 8.53143C8.63602 8.52508 8.6312 8.52066 8.62795 8.51497C8.62302 8.50619 8.61871 8.4972 8.61205 8.48994C8.60733 8.48476 8.60159 8.48141 8.59621 8.47709C8.58814 8.47059 8.58047 8.46404 8.57112 8.45957C8.56513 8.45673 8.55863 8.45581 8.55228 8.45383C8.54248 8.45089 8.53299 8.44764 8.52258 8.44698C8.5144 8.44642 8.50628 8.4485 8.498 8.44957C8.49033 8.45053 8.48277 8.44957 8.47515 8.45195C8.47368 8.45241 8.47266 8.45358 8.47129 8.45409C8.46987 8.45454 8.46844 8.45424 8.46702 8.4548C8.45981 8.45754 8.45468 8.46287 8.44823 8.46668C8.44067 8.47115 8.43259 8.47486 8.42614 8.48064C8.41954 8.48659 8.41497 8.49395 8.40979 8.50101C8.40487 8.50766 8.39938 8.5136 8.39573 8.52102C8.39192 8.52879 8.3905 8.53722 8.38831 8.54559C8.38613 8.55377 8.38323 8.56139 8.38268 8.56997C8.38207 8.57855 8.3842 8.58713 8.38532 8.59582C8.38628 8.60333 8.38527 8.6108 8.3876 8.61821C8.53212 9.08438 8.87967 9.63901 9.15196 10.0297C8.92507 9.85488 8.7583 9.66577 8.70991 9.6087C8.70468 9.6025 8.69955 9.59626 8.69432 9.59006C8.6475 9.53374 8.56478 9.52572 8.50805 9.57163C8.45154 9.61779 8.44265 9.70086 8.48835 9.75759C8.49084 9.76074 8.50079 9.77318 8.51745 9.79263C8.71671 10.0297 8.9338 10.251 9.13048 10.4378L8.86144 10.3231C8.8001 10.2967 8.72799 10.3205 8.69442 10.3789C8.6608 10.4373 8.67599 10.5112 8.72982 10.5517C8.75602 10.5711 9.23245 10.927 9.64489 11.1374C9.60599 11.1397 9.56034 11.1369 9.50925 11.133C9.44689 11.127 9.38555 11.1716 9.37037 11.2349C9.35544 11.2984 9.38865 11.3633 9.44898 11.3882C9.45913 11.3924 9.58482 11.4442 9.74 11.4995C9.7038 11.5143 9.675 11.5446 9.66307 11.584C9.64519 11.6429 9.67033 11.7068 9.72375 11.7373C9.73767 11.7454 9.9254 11.8531 10.1577 11.9485C10.1515 11.9581 10.1465 11.9684 10.1426 11.9799C10.1245 12.0356 10.1452 12.0969 10.1936 12.1303C10.234 12.1581 11.1361 12.7703 12.1897 12.7703C12.2588 12.7703 12.3287 12.7677 12.399 12.762C12.472 12.7563 12.5267 12.6922 12.5208 12.6191C12.515 12.5459 12.4516 12.4906 12.3778 12.4974C11.7159 12.5514 11.0782 12.3028 10.699 12.1129C10.7491 12.1007 10.7779 12.0896 10.785 12.0867C10.8435 12.0628 10.8772 12.0014 10.8658 11.9393C10.8544 11.8774 10.801 11.8319 10.7378 11.8306C10.5838 11.8275 10.3706 11.7525 10.1869 11.6721C10.2563 11.6374 10.2968 11.6041 10.3004 11.6012C10.3403 11.5678 10.3572 11.5144 10.3436 11.464C10.3299 11.414 10.288 11.3763 10.2367 11.3681C10.1803 11.3587 10.11 11.3405 10.0364 11.3182C10.108 11.277 10.1384 11.2316 10.1501 11.2085C10.1685 11.1717 10.169 11.1286 10.1513 11.0915C10.1335 11.0544 10.0997 11.0277 10.0594 11.0191C10.0247 11.0116 9.98533 10.9989 9.94282 10.9823C9.95059 10.9745 9.95775 10.9657 9.96354 10.9556C9.99736 10.8982 9.9834 10.8246 9.93089 10.7833C9.92815 10.7812 9.82506 10.7003 9.66896 10.5657C9.69374 10.5566 9.71563 10.5397 9.73147 10.5169C9.76494 10.4687 9.76265 10.4041 9.72589 10.3584C9.72294 10.3547 9.6197 10.2249 9.47741 10.0278C9.52439 10.0643 9.57131 10.1015 9.61823 10.1317C9.64032 10.1457 9.6653 10.1527 9.69009 10.1527C9.7237 10.1527 9.75686 10.14 9.78241 10.1153C9.79292 10.1052 9.80114 10.0935 9.80764 10.0811C9.88823 10.1671 9.97289 10.2453 10.0618 10.312C10.0734 10.3206 10.0874 10.3205 10.1004 10.3249C10.1381 10.388 10.1773 10.4513 10.2185 10.5146C11.025 11.7556 12.1623 12.4203 13.5262 12.4602C13.4007 12.5365 13.2643 12.6153 13.0484 12.6994C13.0013 12.7178 12.9597 12.7362 12.9178 12.7546C12.8976 12.7586 12.8787 12.7659 12.8629 12.7784C12.4861 12.9528 12.3301 13.1252 12.2668 13.2457C12.2036 13.3656 12.2581 13.4885 12.3353 13.5524C12.3592 13.5721 12.3898 13.5822 12.4203 13.5822C12.4414 13.5822 12.4624 13.5775 12.4814 13.5679C12.5284 13.5445 12.5598 13.495 12.5577 13.4429C12.5631 13.4369 12.5862 13.4177 12.6586 13.4154C12.7114 13.4109 12.8224 13.4229 12.952 13.4332C13.0753 13.4434 13.2232 13.4549 13.3804 13.463C13.282 13.5777 13.1677 13.7105 13.1677 13.7105C13.1334 13.7505 13.1258 13.807 13.1487 13.8545C13.1716 13.9022 13.2211 13.9318 13.2729 13.93C13.3779 13.9263 13.4492 13.9242 13.496 13.9233C13.5369 13.9767 13.587 13.998 13.6193 14.0062C13.7106 14.0296 13.8017 13.993 13.8702 13.9497C13.9221 13.9871 13.974 14.0029 14.0152 14.0089C14.1079 14.0216 14.1938 13.9946 14.2559 13.964C14.3202 14.0055 14.3832 14.0161 14.4313 14.0161C14.4319 14.0161 14.4327 14.0161 14.4334 14.0161C14.5371 14.0156 14.6278 13.9656 14.6919 13.9165C14.7486 13.9502 14.8028 13.9611 14.8447 13.963C14.9398 13.9663 15.0186 13.9298 15.0711 13.8955C15.2582 13.9331 15.4196 13.8449 15.5262 13.7476C15.5748 13.7759 15.6211 13.7829 15.658 13.7811C15.7528 13.7777 15.825 13.7201 15.8714 13.6685C16.0836 13.6941 16.2359 13.655 16.3239 13.5505C16.3719 13.4937 16.3914 13.4296 16.3966 13.3712C16.9854 13.3679 17.0387 13.0464 17.043 13.0067C17.0468 12.9706 17.0359 12.9346 17.0124 12.9069C16.9891 12.8792 16.9552 12.862 16.919 12.8599L15.3755 12.7671C15.3109 12.7624 15.2533 12.8057 15.2383 12.8688C15.238 12.8698 15.2117 12.9679 15.1293 13.0463C15.0185 13.1521 14.8401 13.2079 14.6461 13.2375C14.6468 13.2197 14.6443 13.2017 14.6375 13.184C14.6111 13.1155 14.534 13.0823 14.4658 13.108C14.1471 13.2317 13.6312 13.2161 13.2276 13.1881C13.2895 13.1375 13.364 13.0874 13.4236 13.0547C13.4739 13.0269 13.501 12.9701 13.4903 12.9136C13.4826 12.8725 13.4529 12.8439 13.417 12.8255C13.5292 12.7689 13.6213 12.7141 13.7085 12.6609C13.8601 12.5681 14.0032 12.4806 14.2639 12.3901C14.7672 12.2152 15.3496 12.1621 15.3554 12.1615C15.3686 12.1605 15.3816 12.1571 15.3939 12.1522C15.4146 12.1436 17.0574 11.4554 17.8314 9.86748C17.8212 9.91547 17.8103 9.95934 17.7985 9.99768C17.7783 10.0631 17.8109 10.1329 17.874 10.1593C17.9227 10.1798 17.9781 10.1691 18.0156 10.1344C17.9667 10.2633 17.9225 10.3647 17.8864 10.4246C17.8496 10.4856 17.8674 10.5648 17.9266 10.6042C17.9405 10.6133 17.9554 10.6194 17.9707 10.6231C17.9108 10.7108 17.85 10.7938 17.7895 10.8698C17.7491 10.9204 17.7515 10.9925 17.7936 11.0403C17.6896 11.1492 17.5974 11.239 17.5273 11.2961C17.4816 11.3331 17.4666 11.3951 17.4877 11.4481C17.4201 11.4867 17.3646 11.514 17.3261 11.5256C17.2615 11.5451 17.2218 11.6102 17.234 11.6766C17.2404 11.7116 17.2601 11.7412 17.2873 11.7607C17.2061 11.7824 17.1172 11.8035 17.0207 11.8226C16.9664 11.8335 16.9245 11.8768 16.9156 11.9315C16.9068 11.9863 16.9327 12.0408 16.9808 12.0682C16.9849 12.0706 17.0303 12.0963 17.0998 12.1258C16.8428 12.2293 16.384 12.3645 15.6312 12.4387C15.5583 12.4459 15.5049 12.5111 15.5121 12.584C15.5192 12.6569 15.5823 12.7075 15.6574 12.7033C17.0865 12.5619 17.5278 12.2042 17.5458 12.1889C17.5871 12.1544 17.6034 12.0981 17.587 12.0468C17.5762 12.0128 17.5523 11.9853 17.5216 11.9694C17.9782 11.8257 18.1742 11.6667 18.1845 11.6581C18.2346 11.6166 18.2472 11.5448 18.2142 11.4885C18.181 11.4321 18.1119 11.4078 18.0515 11.4321C18.0346 11.4386 18.0075 11.4454 17.9732 11.4521C18.2796 11.2423 18.6049 10.9924 18.7479 10.8809C18.773 10.8622 18.7959 10.8443 18.816 10.8274C18.8716 10.7807 18.8793 10.6982 18.8335 10.6419C18.788 10.5859 18.705 10.5765 18.6482 10.6214C18.6275 10.6378 18.6059 10.6546 18.5836 10.672C18.5176 10.7211 18.4332 10.7766 18.341 10.8336C18.6888 10.4388 19.0389 10.0107 19.1389 9.88779C19.148 9.87662 19.1569 9.8655 19.166 9.85433C19.2119 9.79725 19.203 9.71371 19.1459 9.66781C19.0886 9.62114 19.005 9.63074 18.9592 9.68751L18.9589 9.68781L18.9588 9.68812C18.9563 9.69096 18.9451 9.70498 18.9261 9.72834C18.8214 9.8562 18.7111 9.98001 18.6023 10.0956C18.9565 9.45361 19.2247 8.82164 19.264 8.728C19.2655 8.72465 19.2668 8.7213 19.2682 8.71784C19.2963 8.65066 19.2643 8.57281 19.1966 8.54478ZM12.9714 13.022L13.0076 13.0267C12.9631 13.0683 12.9269 13.1149 12.8982 13.1631C12.8351 13.158 12.7779 13.1535 12.733 13.1515C12.7948 13.1112 12.8744 13.0674 12.9714 13.022Z" fill="#FFE15A"/>
</svg>
