<svg width="155" height="43" viewBox="0 0 155 43" fill="none" xmlns="http://www.w3.org/2000/svg">
<path d="M4.59584 17.32L4.50981 17.7704L4.0519 17.7921C2.30362 17.8752 0.93396 19.3127 0.93396 21.0644C0.93396 22.8162 2.30332 24.254 4.0516 24.3368L4.50952 24.3588L4.59555 24.8092C6.37631 34.12 14.5585 40.8784 24.0516 40.8784H27.7685V1.25049H24.0519C14.5585 1.25049 6.37631 8.00888 4.59584 17.32Z" fill="white"/>
<path d="M18.8056 22.5222C19.3373 11.2702 24.698 2.38163 30.7794 2.66901L26.4852 2.4665C16.5512 1.9971 7.94347 8.71861 5.69953 18.0447C3.6525 18.0453 1.94694 19.6549 1.84921 21.7212C1.75178 23.7876 3.29787 25.5508 5.33553 25.744C6.69056 35.2401 14.0623 40.7052 23.9963 41.1749L28.2905 41.378C22.2091 41.0907 18.274 33.7745 18.8056 22.5222Z" fill="#FFD700"/>
<path d="M29.1631 41.2767C29.1631 41.6521 28.8585 41.9565 28.4831 41.9565H24.2819C14.3766 41.9565 5.81892 35.007 3.76868 25.3681C1.62188 25.045 0 23.1975 0 20.9784C0 18.759 1.62188 16.9121 3.76868 16.5881C5.81892 6.94978 14.3766 0 24.2819 0H28.8462C29.0212 0 29.1631 0.141641 29.1631 0.316644V41.2767ZM24.2819 1.16444C14.7888 1.16444 6.6066 7.92254 4.82584 17.2337L4.73981 17.6841L4.2819 17.706C2.53362 17.7888 1.16425 19.2263 1.16425 20.9784C1.16425 22.7305 2.53362 24.1679 4.2819 24.2511L4.73981 24.2727L4.82584 24.7231C6.6066 34.034 14.7888 40.7923 24.2819 40.7923H27.9988V1.16444H24.2819Z" fill="#231F20"/>
<path d="M39.6045 20.9783C39.6045 32.2429 34.6689 41.3743 28.5808 41.3743C22.4927 41.3743 17.5571 32.2429 17.5571 20.9783C17.5571 9.71379 22.4927 0.582031 28.5808 0.582031C34.6689 0.582031 39.6045 9.71379 39.6045 20.9783Z" fill="white"/>
<path d="M28.5808 41.9568C25.4125 41.9568 22.4623 39.7268 20.2739 35.6777C18.1467 31.7416 16.9752 26.5214 16.9752 20.9784C16.9752 15.4354 18.1467 10.2151 20.2739 6.27932C22.4623 2.23026 25.4125 0 28.5808 0C31.7491 0 34.6991 2.22997 36.8877 6.27903C39.0149 10.2148 40.1865 15.4351 40.1865 20.9781C40.1865 26.5211 39.0149 31.7414 36.8877 35.6775C34.6991 39.7268 31.7491 41.9568 28.5808 41.9568ZM28.5808 1.16444C25.8599 1.16444 23.2736 3.17756 21.298 6.83301C19.2609 10.6017 18.1391 15.6256 18.1391 20.9784C18.1391 26.3315 19.2609 31.3551 21.298 35.1241C23.2736 38.7792 25.8599 40.7923 28.5808 40.7923C31.3017 40.7923 33.888 38.7792 35.8636 35.1241C37.9007 31.3548 39.0225 26.3312 39.0225 20.9784C39.0225 15.6256 37.9007 10.6017 35.8636 6.83301C33.888 3.17727 31.302 1.16444 28.5808 1.16444Z" fill="#231F20"/>
<path d="M34.86 22.3614C34.86 30.3788 31.7813 36.8779 27.9836 36.8779C24.186 36.8779 21.1072 30.3788 21.1072 22.3614C21.1072 14.3441 24.186 7.84497 27.9836 7.84497C31.7813 7.84497 34.86 14.3441 34.86 22.3614Z" fill="#FFD700"/>
<path d="M29.1627 4.8916H27.9988V36.5478H29.1627V4.8916Z" fill="#231F20"/>
<path d="M35.018 20.209H21.0493V21.3731H35.018V20.209Z" fill="#231F20"/>
<path d="M34.9353 28.8985L22.8246 11.5381L21.8698 12.2044L33.9805 29.5648L34.9353 28.8985Z" fill="#231F20"/>
<path d="M34.9557 11.1417L33.9568 10.5442L22.1489 30.2893L23.1478 30.8869L34.9557 11.1417Z" fill="#231F20"/>
<path d="M28.5808 37.273C24.0311 37.273 20.4673 30.0332 20.4673 20.7914C20.4673 11.5493 24.0311 4.30981 28.5808 4.30981C33.1304 4.30981 36.6943 11.5493 36.6943 20.7914C36.6943 30.0329 33.1307 37.273 28.5808 37.273ZM28.5808 5.47367C24.8138 5.47367 21.6312 12.4881 21.6312 20.7911C21.6312 29.0938 24.8138 36.1082 28.5808 36.1082C32.3477 36.1082 35.5303 29.0938 35.5303 20.7911C35.5303 12.4881 32.3477 5.47367 28.5808 5.47367Z" fill="#231F20"/>
<path d="M50.6273 5.17987L50.9304 4.54424L49.0569 3.68152C48.8175 3.52056 48.5668 3.37629 48.3046 3.24986C42.8204 0.605509 34.41 6.68759 29.5189 16.8346C24.6281 26.9815 25.1091 37.3509 30.5933 39.9952C30.7586 40.0748 30.9266 40.1465 31.0971 40.2103L33.4125 41.2764L33.7329 40.6042C38.935 40.3666 45.3505 34.768 49.379 26.4103C53.4544 17.9545 53.799 9.34541 50.6273 5.17987Z" fill="white"/>
<path d="M33.289 18.4061C37.6397 9.37997 44.7756 3.57035 50.1591 4.25865L49.1093 3.7752C48.8699 3.61424 48.6191 3.46967 48.357 3.34325C42.8728 0.699188 34.462 6.78127 29.5712 16.9283C24.6804 27.0749 25.1615 37.4446 30.6457 40.0886C30.811 40.1682 30.9789 40.2399 31.1495 40.3034L33.4649 41.3698L33.5854 41.117C28.845 37.8946 28.6405 28.05 33.289 18.4061Z" fill="#FFD700"/>
<path d="M33.6905 42.045L30.8724 40.7471C30.6904 40.6784 30.5117 40.6014 30.3405 40.5192C27.4865 39.1431 25.7973 35.8532 25.584 31.2551C25.3765 26.7858 26.5879 21.5747 28.9945 16.5815C33.1187 8.02517 39.9094 2.04932 45.5077 2.04932C46.6008 2.04932 47.627 2.2767 48.5571 2.72533C48.8257 2.85468 49.0894 3.00481 49.3416 3.17162L51.7096 4.26202L51.3017 5.11743C52.8136 7.28916 53.5044 10.4245 53.3019 14.217C53.0901 18.1852 51.9147 22.4892 49.9031 26.6629C47.9158 30.7857 45.3157 34.3552 42.3848 36.9852C39.586 39.4961 36.7341 40.9341 34.1115 41.1618L33.6905 42.045ZM45.5077 3.21347C40.3398 3.21347 33.9804 8.91862 30.0432 17.0869C27.7188 21.9095 26.5481 26.9216 26.7468 31.201C26.9393 35.3519 28.395 38.2889 30.8458 39.4706C30.9918 39.5406 31.1451 39.6061 31.3014 39.6649L31.3406 39.681L33.1342 40.5072L33.3578 40.0381L33.7063 40.0223C38.8028 39.789 45.0319 34.0874 48.8544 26.1569C52.7378 18.1004 53.2762 9.61921 50.1641 5.53211L49.9487 5.24941L50.1509 4.82566L48.7707 4.19032L48.7321 4.16428C48.5138 4.01737 48.2847 3.88597 48.0518 3.77359C47.2805 3.40193 46.4244 3.21347 45.5077 3.21347Z" fill="#231F20"/>
<path d="M53.0965 27.8882C48.2057 38.0351 39.795 44.1172 34.3108 41.4731C28.8266 38.8288 28.3456 28.4594 33.2366 18.3125C38.1274 8.16554 46.5382 2.08346 52.0224 4.72753C57.5066 7.37189 57.9873 17.7415 53.0965 27.8882Z" fill="white"/>
<path d="M53.0965 28.3559C48.2057 38.5032 39.795 44.585 34.3108 41.9412C28.8266 39.2968 28.3456 28.9272 33.2366 18.7802C38.1274 8.63332 46.5382 2.55124 52.0224 5.1953C57.5066 7.83995 57.9873 18.2093 53.0965 28.3559Z" fill="#FFD700"/>
<path d="M51.3556 26.9057L50.3072 26.4C52.0209 22.8443 52.8844 19.1508 52.7381 15.9996C52.5979 12.9774 51.5481 10.8441 49.7814 9.99216L50.287 8.9436C52.4566 9.98952 53.7399 12.4764 53.9009 15.9458C54.056 19.2866 53.1518 23.1788 51.3556 26.9057Z" fill="#231F20"/>
<path d="M36.6399 37.257C34.4703 36.2111 33.1866 33.7242 33.0257 30.2548C32.8709 26.9143 33.7748 23.0221 35.5713 19.2952L36.6197 19.8006C34.9059 23.3566 34.0425 27.0501 34.1888 30.201C34.3289 33.2231 35.3788 35.3565 37.1452 36.2084L36.6399 37.257Z" fill="#231F20"/>
<path d="M36.9623 42.8188C35.8691 42.8188 34.843 42.5914 33.9128 42.1425C31.0588 40.7667 29.3696 37.4768 29.1563 32.8787C28.9489 28.4094 30.1602 23.1983 32.5669 18.2051C36.691 9.6487 43.4817 3.67285 49.08 3.67285C50.1731 3.67285 51.1993 3.90024 52.1295 4.34887C54.9835 5.72489 56.6729 9.01483 56.8859 13.6129C57.0934 18.0822 55.882 23.2937 53.4754 28.2865C49.3512 36.8429 42.5606 42.8188 36.9623 42.8188ZM49.0797 4.837C43.9118 4.837 37.5525 10.5422 33.6152 18.7108C31.2908 23.5328 30.1204 28.5449 30.3188 32.8246C30.5113 36.9761 31.967 39.9128 34.4178 41.0942C35.1891 41.4662 36.0453 41.6546 36.962 41.6546C42.1299 41.6546 48.4892 35.9498 52.4264 27.7811C54.7509 22.9589 55.9215 17.9467 55.7229 13.6671C55.5303 9.51613 54.0747 6.57942 51.6238 5.39771C50.8526 5.02547 49.9967 4.837 49.0797 4.837Z" fill="#231F20"/>
<path d="M43.4559 5.65883L39.8937 3.76587L39.3143 4.85647L42.8766 6.74943L43.4559 5.65883Z" fill="#231F20"/>
<path d="M41.6754 7.29994L38.1132 5.40698L37.5339 6.49733L41.0962 8.39028L41.6754 7.29994Z" fill="#231F20"/>
<path d="M39.8958 8.77601L36.3336 6.88306L35.7543 7.9734L39.3166 9.86635L39.8958 8.77601Z" fill="#231F20"/>
<path d="M38.468 10.2914L34.9058 8.39844L34.3265 9.48878L37.8888 11.3817L38.468 10.2914Z" fill="#231F20"/>
<path d="M37.1487 12.184L33.5865 10.291L33.0073 11.3814L36.5695 13.2743L37.1487 12.184Z" fill="#231F20"/>
<path d="M17.9135 35.7222H16.7496V36.9955H17.9135V35.7222Z" fill="#231F20"/>
<path d="M15.1124 34.449H13.9485V35.7223H15.1124V34.449Z" fill="#231F20"/>
<path d="M16.8584 32.739H15.6944V34.0126H16.8584V32.739Z" fill="#231F20"/>
<path d="M87.5352 23.7542H69.7539V9.14697H72.6339V21.0438H77.2027V9.14697H80.0827V21.0438H84.6514V9.14697H87.5314V23.7542H87.5352Z" fill="white" fill-opacity="0.87"/>
<path d="M102.124 23.7542L99.1192 19.061C98.7837 18.5446 98.4935 18.1978 98.2409 18.0168C97.9921 17.8359 97.6227 17.7454 97.1364 17.7454H95.802V23.758H92.922V9.14697H95.802V14.971H97.0535C97.5247 14.971 97.8903 14.8805 98.1504 14.6996C98.4068 14.5186 98.7046 14.1718 99.0363 13.6554L101.916 9.14697H105.173L101.728 14.5337C101.045 15.4648 100.484 16.0491 100.035 16.2866C100.563 16.5241 101.155 17.1574 101.811 18.1865L105.381 23.758H102.124V23.7542Z" fill="white" fill-opacity="0.87"/>
<path d="M110.077 11.1826C111.521 9.72754 113.278 9 115.336 9C117.394 9 119.151 9.72754 120.606 11.1826C122.061 12.6377 122.789 14.3943 122.789 16.4525C122.789 18.5145 122.061 20.2674 120.606 21.7225C119.151 23.1775 117.394 23.9051 115.336 23.9051C113.278 23.9051 111.525 23.1775 110.077 21.7225C108.63 20.2674 107.906 18.5107 107.906 16.4525C107.906 14.3943 108.63 12.6377 110.077 11.1826ZM118.589 13.0486C117.715 12.1589 116.629 11.7141 115.332 11.7141C114.039 11.7141 112.957 12.1589 112.087 13.0486C111.216 13.942 110.782 15.0728 110.782 16.4488C110.782 17.8397 111.216 18.9782 112.087 19.8603C112.957 20.7461 114.039 21.1872 115.332 21.1872C116.64 21.1872 117.73 20.7461 118.601 19.8603C119.468 18.9782 119.905 17.8397 119.905 16.4488C119.905 15.0728 119.468 13.942 118.589 13.0486Z" fill="white" fill-opacity="0.87"/>
<path d="M131.677 14.4282L128.047 23.758H124.854L130.867 9.14697H132.556L138.482 23.758H135.289L131.677 14.4282Z" fill="white" fill-opacity="0.87"/>
<path d="M145.557 21.0853L144.513 23.758H141.32L147.333 9.14697H149.021L154.947 23.7542H151.754L150.71 21.0815H145.557V21.0853ZM148.143 14.3641L146.556 18.3486H149.707L148.143 14.3641Z" fill="white" fill-opacity="0.87"/>
<path d="M72.7809 29.7717L70.0442 36.508H69L72.5246 28H73.0599L76.5732 36.508H75.529L72.7809 29.7717Z" fill="white" fill-opacity="0.67"/>
<path d="M83.7203 36.508H82.8458V31.9129L78.7972 36.508H78.2619V30.4314H79.1478V35.0266L83.1964 30.4314H83.7203V36.508Z" fill="white" fill-opacity="0.67"/>
<path d="M92.2283 36.508H91.3425V31.9129L89.1071 34.4536L86.8717 31.9129V36.508H85.9858V30.4314H86.5211L89.1108 33.3717L91.7006 30.4314H92.2359V36.508H92.2283Z" fill="white" fill-opacity="0.67"/>
<path d="M97.2269 30.3447C98.0939 30.3447 98.8328 30.65 99.4397 31.2607C100.047 31.8714 100.352 32.6102 100.352 33.4659C100.352 34.3254 100.047 35.0567 99.4397 35.6674C98.8328 36.2743 98.0939 36.5796 97.2269 36.5796C96.3599 36.5796 95.6248 36.2743 95.0217 35.6674C94.4185 35.0605 94.117 34.3254 94.117 33.4659C94.117 32.5989 94.4223 31.8601 95.0292 31.2531C95.6324 30.65 96.3674 30.3447 97.2269 30.3447ZM97.2118 31.1966C96.6049 31.1966 96.0809 31.4152 95.6437 31.8487C95.2064 32.2822 94.9878 32.8213 94.9878 33.4734C94.9878 34.1218 95.2026 34.6609 95.6399 35.0906C96.0734 35.5203 96.5974 35.7352 97.2156 35.7352C97.83 35.7352 98.3578 35.5203 98.7951 35.0906C99.2323 34.6609 99.451 34.1218 99.451 33.4734C99.451 32.8251 99.2323 32.286 98.7951 31.8487C98.354 31.4115 97.83 31.1966 97.2118 31.1966Z" fill="white" fill-opacity="0.67"/>
<path d="M107.74 36.508H106.854V33.8693H103.122V36.508H102.237V30.4314H103.122V33.0211H106.854V30.4314H107.74V36.508Z" fill="white" fill-opacity="0.67"/>
<path d="M119.373 36.508H118.487V33.8693H114.756V36.508H113.87V30.4314H114.756V33.0211H118.487V30.4314H119.373V36.508Z" fill="white" fill-opacity="0.67"/>
<path d="M127.444 36.508H126.811L126.773 35.1359C126.539 35.5731 126.2 35.9237 125.763 36.1876C125.326 36.4515 124.839 36.5834 124.304 36.5834C123.444 36.5834 122.724 36.2818 122.14 35.6787C121.556 35.0755 121.266 34.3405 121.266 33.4735C121.266 32.6064 121.556 31.8676 122.14 31.2607C122.724 30.6538 123.444 30.3484 124.304 30.3484C124.832 30.3484 125.314 30.4804 125.755 30.7443C126.196 31.0081 126.536 31.3587 126.769 31.796L126.807 30.4352H127.44V36.508H127.444ZM122.796 35.0869C123.23 35.5166 123.754 35.7315 124.372 35.7315C124.986 35.7315 125.514 35.5166 125.951 35.0869C126.389 34.6571 126.607 34.1181 126.607 33.4697C126.607 32.8213 126.389 32.2823 125.951 31.845C125.514 31.4115 124.986 31.1928 124.372 31.1928C123.765 31.1928 123.241 31.4115 122.804 31.845C122.366 32.2785 122.148 32.8175 122.148 33.4697C122.144 34.1181 122.363 34.6571 122.796 35.0869Z" fill="white" fill-opacity="0.67"/>
<path d="M139.209 36.508H138.334V34.1143C137.92 34.8117 137.23 35.1585 136.257 35.1585C134.425 35.1585 133.509 34.1407 133.509 32.1089V30.4314H134.395V32.0599C134.395 32.8289 134.542 33.3981 134.84 33.7675C135.134 34.1369 135.647 34.3216 136.378 34.3216C137.075 34.3216 137.577 34.1332 137.878 33.7487C138.184 33.3679 138.334 32.8779 138.334 32.2785V30.4314H139.209V36.508Z" fill="white" fill-opacity="0.67"/>
<path d="M147.28 36.508H146.647L146.609 35.1359C146.375 35.5731 146.036 35.9237 145.599 36.1876C145.161 36.4515 144.675 36.5834 144.14 36.5834C143.28 36.5834 142.56 36.2818 141.976 35.6787C141.392 35.0755 141.101 34.3405 141.101 33.4735C141.101 32.6064 141.392 31.8676 141.976 31.2607C142.56 30.6538 143.28 30.3484 144.14 30.3484C144.668 30.3484 145.15 30.4804 145.591 30.7443C146.032 31.0081 146.371 31.3587 146.605 31.796L146.643 30.4352H147.276V36.508H147.28ZM142.632 35.0869C143.065 35.5166 143.589 35.7315 144.208 35.7315C144.826 35.7315 145.35 35.5166 145.787 35.0869C146.224 34.6571 146.443 34.1181 146.443 33.4697C146.443 32.8213 146.224 32.2823 145.787 31.845C145.35 31.4115 144.822 31.1928 144.208 31.1928C143.601 31.1928 143.077 31.4115 142.639 31.845C142.202 32.2785 141.984 32.8175 141.984 33.4697C141.984 34.1181 142.198 34.6571 142.632 35.0869Z" fill="white" fill-opacity="0.67"/>
<path d="M155 36.508H154.125V31.9129L150.077 36.508H149.542V30.4314H150.427V35.0266L154.476 30.4314H155V36.508ZM153.5 29.2704C153.164 29.5757 152.753 29.7265 152.267 29.7265C151.781 29.7265 151.37 29.5757 151.034 29.2704C150.699 28.965 150.529 28.5918 150.529 28.147H151.174C151.174 28.4147 151.279 28.6371 151.49 28.8143C151.702 28.9914 151.962 29.0819 152.267 29.0819C152.576 29.0819 152.836 28.9914 153.051 28.8143C153.266 28.6371 153.371 28.4147 153.371 28.147H154.005C154.005 28.5918 153.835 28.965 153.5 29.2704Z" fill="white" fill-opacity="0.67"/>
</svg>
